<svg width="41" height="37" viewBox="0 0 41 37" fill="none" xmlns="http://www.w3.org/2000/svg">
<path d="M5.34437 0.235227C3.55608 1.29953 0.0345873 5.35623 0 6.42053V8.18795C0 10.4181 2.08164 12.3873 3.96985 12.3873C6.23852 12.3873 8.13441 10.4991 8.13441 8.25736C8.13441 10.4991 9.95473 12.3873 12.2298 12.3873C14.4985 12.3873 16.2663 10.4991 16.2663 8.25736C16.2663 10.4991 18.2083 12.3873 20.4769 12.3873H20.5179C22.793 12.3873 24.7337 10.4991 24.7337 8.25736C24.7337 10.4991 26.5028 12.3873 28.7715 12.3873C31.0401 12.3873 32.8669 10.4991 32.8669 8.25736C32.8669 10.4991 34.7564 12.3873 37.0237 12.3873C38.9184 12.3873 41 10.4181 41 8.18795V6.42053C40.959 5.35623 37.4439 1.29953 35.6492 0.235227C30.0909 0.0347055 26.2415 0 20.5038 0C14.7598 0.00642696 6.93411 0.0938336 5.35206 0.235227H5.34437ZM16.2394 11.3333C16.0205 11.71 15.7511 12.0547 15.4387 12.3578V12.3642C14.5475 13.2346 13.3531 13.722 12.1094 13.7228C10.8638 13.724 9.66778 13.2332 8.78004 12.3565C8.47604 12.0587 8.2171 11.7179 8.01144 11.3449C7.79751 11.7266 7.49903 12.0544 7.18518 12.3565C6.29744 13.2332 5.10144 13.724 3.85584 13.7228H3.84943C3.69632 13.7162 3.54531 13.6845 3.40236 13.629C3.24646 15.3119 3.15075 16.9998 3.11542 18.6896V18.696C3.10901 19.3734 3.10901 19.921 3.10132 20.691C3.14232 24.6949 2.70805 33.6593 4.86399 35.8624C8.19974 36.6388 14.3383 36.9936 20.4885 37H20.4949C26.6527 36.9936 32.7836 36.6388 36.1194 35.8624C38.2753 33.6605 37.841 24.6949 37.882 20.691C37.8756 19.921 37.8756 19.3734 37.8679 18.696V18.6896C37.8361 16.9997 37.7404 15.3116 37.581 13.629C37.4388 13.6869 37.2873 13.7187 37.1339 13.7228H37.1275C35.8819 13.724 34.6859 13.2332 33.7982 12.3565H33.8046C33.4907 12.0544 33.191 11.7279 32.9783 11.3449H32.9719C32.7682 11.7175 32.5114 12.0582 32.2097 12.3565C31.3211 13.2318 30.1256 13.7222 28.8804 13.7222C27.6351 13.7222 26.4396 13.2318 25.551 12.3565C25.2428 12.0576 24.9777 11.7172 24.7632 11.3449L24.7491 11.3243C24.5288 11.7202 24.2623 12.0608 23.9613 12.3565C23.0735 13.2332 21.8775 13.724 20.6319 13.7228H20.6255C20.5845 13.7237 20.5401 13.7216 20.4923 13.7164C20.4462 13.7216 20.3997 13.7237 20.3527 13.7228H20.3463C19.1033 13.722 17.9105 13.2313 17.0246 12.3565C16.7165 12.0595 16.4537 11.7186 16.2445 11.3449L16.2304 11.3243L16.2394 11.3333ZM12.8165 15.773C14.1705 15.7795 15.3721 15.773 16.8658 17.4068C18.0392 17.2872 19.2677 17.2268 20.4949 17.2268C21.7221 17.2268 22.9506 17.2872 24.124 17.4068C25.6189 15.773 26.8192 15.773 28.1732 15.773H28.1797C28.8202 15.773 31.3822 15.773 33.1641 20.8015L35.0792 27.7028C36.4998 32.8379 34.6244 32.9664 32.2904 32.9664C28.8214 32.8379 26.8999 30.3083 26.8999 27.7773C24.9784 28.0999 22.7354 28.2542 20.4949 28.2542C18.2544 28.2542 16.0113 28.0999 14.0962 27.7773C14.0962 30.3083 12.1747 32.8379 8.70574 32.9664C6.36406 32.96 4.48866 32.8379 5.9093 27.7028L7.82441 20.8015C9.6127 15.773 12.1747 15.773 12.8152 15.773H12.8165ZM20.4962 19.7295C20.4898 19.7295 16.8466 23.0972 16.1868 24.2888L18.5746 24.1949V26.2837C18.5746 26.3852 19.5367 26.3441 20.4962 26.2978C21.4556 26.3441 22.4113 26.3852 22.4113 26.2837V24.1949L24.8055 24.2888C24.1458 23.0972 20.4962 19.7295 20.4962 19.7295Z" fill="white"/>
</svg>
