<svg width="104" height="210" viewBox="0 0 104 210" fill="none" xmlns="http://www.w3.org/2000/svg">
<path d="M19.28 25.216L19.28 24.716L19.2512 24.716L19.2227 24.7193L19.28 25.216ZM19.28 19.328L19.2227 19.8247L19.2512 19.828L19.28 19.828L19.28 19.328ZM3.92 17.664L3.86478 18.1609L3.86711 18.1612L3.92 17.664ZM2.64 1.792L2.34 1.392L2.31157 1.41332L2.28645 1.43844L2.64 1.792ZM4.304 1.28L4.36207 0.783379L4.33313 0.779995L4.304 0.779995L4.304 1.28ZM99.536 12.416L99.598 11.9198L99.5941 11.9194L99.536 12.416ZM99.536 32.896L99.5941 33.3926L99.598 33.3921L99.536 32.896ZM4.304 44.032L4.304 44.532L4.33313 44.532L4.36207 44.5286L4.304 44.032ZM2.64 43.52L2.28645 43.8735L2.31157 43.8987L2.34 43.92L2.64 43.52ZM3.92 26.88L3.86711 26.3828L3.86478 26.3831L3.92 26.88ZM37.072 24.96L37.072 25.46L37.0976 25.46L37.1231 25.4574L37.072 24.96ZM50.768 23.552L50.768 23.052L50.7424 23.052L50.7169 23.0546L50.768 23.552ZM50.768 21.632L50.8893 21.1469L50.8524 21.1377L50.8145 21.1342L50.768 21.632ZM37.072 20.352L37.1185 19.8542L37.0953 19.852L37.072 19.852L37.072 20.352ZM36.304 20.608L36.5276 21.0552L36.6767 20.9807L36.7512 20.8316L36.304 20.608ZM36.304 24.704L36.7512 24.4804L36.6767 24.3313L36.5276 24.2568L36.304 24.704ZM19.28 25.716C20.0681 25.716 20.676 25.1081 20.676 24.32L19.676 24.32C19.676 24.5559 19.5159 24.716 19.28 24.716L19.28 25.716ZM20.676 24.32L20.676 20.224L19.676 20.224L19.676 24.32L20.676 24.32ZM20.676 20.224C20.676 19.4359 20.0681 18.828 19.28 18.828L19.28 19.828C19.5159 19.828 19.676 19.9881 19.676 20.224L20.676 20.224ZM19.3373 18.8313C17.6709 18.639 13.8287 18.2228 10.4054 17.8549C8.69328 17.6708 7.08516 17.4988 5.90509 17.3728C5.31505 17.3098 4.83201 17.2583 4.49648 17.2226C4.32871 17.2047 4.19782 17.1907 4.10887 17.1813C4.06439 17.1765 4.0304 17.1729 4.00753 17.1705C3.99609 17.1693 3.98743 17.1683 3.98164 17.1677C3.97874 17.1674 3.97655 17.1672 3.97509 17.167C3.97436 17.167 3.97381 17.1669 3.97344 17.1669C3.97326 17.1668 3.97312 17.1668 3.97303 17.1668C3.97294 17.1668 3.97289 17.1668 3.92 17.664C3.86711 18.1612 3.86715 18.1612 3.86724 18.1612C3.86733 18.1612 3.86747 18.1612 3.86765 18.1612C3.86802 18.1613 3.86857 18.1613 3.86929 18.1614C3.87075 18.1616 3.87293 18.1618 3.87583 18.1621C3.88162 18.1627 3.89027 18.1637 3.9017 18.1649C3.92456 18.1673 3.95854 18.1709 4.003 18.1757C4.09193 18.1851 4.22279 18.1991 4.39052 18.2169C4.72599 18.2527 5.20895 18.3042 5.79891 18.3672C6.97884 18.4932 8.58672 18.6651 10.2986 18.8491C13.7233 19.2172 17.5611 19.633 19.2227 19.8247L19.3373 18.8313ZM3.97522 17.1671C3.06757 17.0662 2.5 16.3764 2.5 15.616L1.5 15.616C1.5 16.9036 2.46842 18.0058 3.86478 18.1609L3.97522 17.1671ZM2.5 15.616L2.5 3.328L1.5 3.328L1.5 15.616L2.5 15.616ZM2.5 3.328C2.5 2.94709 2.70439 2.43472 2.99355 2.14555L2.28645 1.43844C1.80761 1.91727 1.5 2.6849 1.5 3.328L2.5 3.328ZM2.94 2.192C3.33908 1.89269 3.86178 1.78 4.304 1.78L4.304 0.779995C3.72222 0.779995 2.96492 0.923305 2.34 1.392L2.94 2.192ZM4.24593 1.77661L99.4779 12.9126L99.5941 11.9194L4.36207 0.783379L4.24593 1.77661ZM99.474 12.9121C100.241 13.008 100.828 13.6855 100.828 14.464L101.828 14.464C101.828 13.1945 100.879 12.08 99.598 11.9199L99.474 12.9121ZM100.828 14.464L100.828 30.848L101.828 30.848L101.828 14.464L100.828 14.464ZM100.828 30.848C100.828 31.6265 100.241 32.304 99.474 32.3999L99.598 33.3921C100.879 33.232 101.828 32.1175 101.828 30.848L100.828 30.848ZM99.4779 32.3994L4.24593 43.5354L4.36207 44.5286L99.5941 33.3926L99.4779 32.3994ZM4.304 43.532C3.86178 43.532 3.33908 43.4193 2.94 43.12L2.34 43.92C2.96492 44.3887 3.72222 44.532 4.304 44.532L4.304 43.532ZM2.99355 43.1664C2.71415 42.887 2.5 42.3795 2.5 41.856L1.5 41.856C1.5 42.6125 1.79784 43.3849 2.28645 43.8735L2.99355 43.1664ZM2.5 41.856L2.5 28.928L1.5 28.928L1.5 41.856L2.5 41.856ZM2.5 28.928C2.5 28.1676 3.06757 27.4778 3.97521 27.3769L3.86478 26.3831C2.46842 26.5382 1.5 27.6404 1.5 28.928L2.5 28.928ZM3.92 26.88C3.97289 27.3772 3.97294 27.3772 3.97303 27.3772C3.97312 27.3772 3.97326 27.3772 3.97344 27.3771C3.97381 27.3771 3.97436 27.377 3.97509 27.377C3.97655 27.3768 3.97874 27.3766 3.98164 27.3763C3.98743 27.3756 3.99609 27.3747 4.00753 27.3735C4.0304 27.3711 4.06439 27.3675 4.10887 27.3627C4.19782 27.3532 4.32871 27.3393 4.49648 27.3214C4.83201 27.2857 5.31505 27.2342 5.90509 27.1712C7.08516 27.0452 8.69328 26.8731 10.4054 26.6891C13.8287 26.3212 17.6709 25.905 19.3373 25.7127L19.2227 24.7193C17.5611 24.911 13.7233 25.3268 10.2986 25.6949C8.58672 25.8788 6.97884 26.0508 5.79891 26.1768C5.20895 26.2398 4.72599 26.2913 4.39052 26.3271C4.22279 26.3449 4.09193 26.3589 4.003 26.3683C3.95854 26.3731 3.92456 26.3767 3.9017 26.3791C3.89027 26.3803 3.88162 26.3813 3.87583 26.3819C3.87293 26.3822 3.87075 26.3824 3.86929 26.3826C3.86857 26.3826 3.86802 26.3827 3.86765 26.3827C3.86747 26.3828 3.86733 26.3828 3.86724 26.3828C3.86715 26.3828 3.86711 26.3828 3.92 26.88ZM37.1231 25.4574L50.8191 24.0494L50.7169 23.0546L37.0209 24.4626L37.1231 25.4574ZM50.768 24.052C51.5561 24.052 52.164 23.4441 52.164 22.656L51.164 22.656C51.164 22.8919 51.0039 23.052 50.768 23.052L50.768 24.052ZM52.164 22.656C52.164 21.8543 51.5595 21.3145 50.8893 21.1469L50.6467 22.1171C51.0005 22.2055 51.164 22.4337 51.164 22.656L52.164 22.656ZM50.8145 21.1342L37.1185 19.8542L37.0255 20.8498L50.7215 22.1298L50.8145 21.1342ZM37.072 19.852C36.9021 19.852 36.6717 19.8487 36.4707 19.8989C36.2251 19.9603 35.9964 20.1052 35.8568 20.3844L36.7512 20.8316C36.7519 20.8302 36.7439 20.8451 36.724 20.86C36.7062 20.8733 36.6969 20.8732 36.7133 20.8691C36.7325 20.8643 36.7682 20.8586 36.833 20.8554C36.8981 20.8521 36.9728 20.852 37.072 20.852L37.072 19.852ZM36.0804 20.1608C35.6315 20.3852 35.42 20.8303 35.42 21.248L36.42 21.248C36.42 21.1537 36.4645 21.0868 36.5276 21.0552L36.0804 20.1608ZM35.42 21.248L35.42 24.064L36.42 24.064L36.42 21.248L35.42 21.248ZM35.42 24.064C35.42 24.4817 35.6315 24.9268 36.0804 25.1512L36.5276 24.2568C36.4645 24.2252 36.42 24.1583 36.42 24.064L35.42 24.064ZM35.8568 24.9276C35.9964 25.2068 36.2251 25.3517 36.4707 25.4131C36.6717 25.4633 36.9021 25.46 37.072 25.46L37.072 24.46C36.9728 24.46 36.8981 24.4599 36.833 24.4566C36.7682 24.4534 36.7325 24.4477 36.7133 24.4429C36.6969 24.4388 36.7062 24.4387 36.724 24.452C36.7439 24.4669 36.7519 24.4818 36.7512 24.4804L35.8568 24.9276ZM54.864 79.804L55.2003 79.434L54.8535 79.1187L54.5165 79.4445L54.864 79.804ZM8.912 81.084L8.61921 81.4894L8.6261 81.4942L8.912 81.084ZM2.512 47.42L2.86555 47.7735L2.86555 47.7735L2.512 47.42ZM94.672 80.316L94.9614 80.7238L94.9661 80.7204L94.672 80.316ZM60.112 82.748L60.2915 82.2813L60.2876 82.2798L60.112 82.748ZM82.384 63.292L82.0304 63.6456L82.0304 63.6456L82.384 63.292ZM62.544 63.292L62.7676 63.7392L62.9167 63.6647L62.9912 63.5156L62.544 63.292ZM20.816 63.292L21.1696 63.6456L21.2269 63.5882L21.2632 63.5156L20.816 63.292ZM54.5165 79.4445C50.8089 83.0285 44.5615 85.192 35.152 85.192L35.152 86.192C44.6865 86.192 51.2391 84.0035 55.2115 80.1635L54.5165 79.4445ZM35.152 85.192L27.216 85.192L27.216 86.192L35.152 86.192L35.152 85.192ZM27.216 85.192C19.3419 85.192 13.3101 83.5399 9.19789 80.6738L8.6261 81.4942C12.9619 84.5161 19.2181 86.192 27.216 86.192L27.216 85.192ZM9.20474 80.6787C4.74473 77.4575 2.5 72.7548 2.5 66.492L1.5 66.492C1.5 73.0292 3.86326 78.0545 8.61925 81.4893L9.20474 80.6787ZM2.5 66.492L2.5 48.828L1.5 48.828L1.5 66.492L2.5 66.492ZM2.5 48.828C2.5 48.3931 2.60839 48.0307 2.86555 47.7735L2.15844 47.0664C1.6476 47.5773 1.5 48.2389 1.5 48.828L2.5 48.828ZM2.86555 47.7735C3.15472 47.4844 3.66709 47.28 4.048 47.28L4.048 46.28C3.4049 46.28 2.63728 46.5876 2.15844 47.0664L2.86555 47.7735ZM4.048 47.28L99.152 47.28L99.152 46.28L4.048 46.28L4.048 47.28ZM99.152 47.28C100.068 47.28 100.828 47.9906 100.828 48.828L101.828 48.828C101.828 47.3614 100.54 46.28 99.152 46.28L99.152 47.28ZM100.828 48.828L100.828 65.852L101.828 65.852L101.828 48.828L100.828 48.828ZM100.828 65.852C100.828 72.3703 98.4555 76.9461 94.3779 79.9116L94.9661 80.7204C99.3365 77.5419 101.828 72.6457 101.828 65.852L100.828 65.852ZM94.3826 79.9082C90.5341 82.6395 84.6375 84.168 76.624 84.168L76.624 85.168C84.7385 85.168 90.8739 83.6245 94.9614 80.7238L94.3826 79.9082ZM76.624 84.168L72.912 84.168L72.912 85.168L76.624 85.168L76.624 84.168ZM72.912 84.168C67.6999 84.168 63.5425 83.5317 60.2915 82.2813L59.9325 83.2147C63.3375 84.5243 67.6281 85.168 72.912 85.168L72.912 84.168ZM60.2876 82.2798C58.2638 81.5209 56.54 80.6519 55.2003 79.434L54.5277 80.174C56.004 81.5161 57.8642 82.4391 59.9364 83.2162L60.2876 82.2798ZM61.788 63.676L61.788 64.188L62.788 64.188L62.788 63.676L61.788 63.676ZM61.788 64.188C61.788 65.0864 62.2791 65.8629 62.9976 66.3972C63.7164 66.9317 64.6876 67.248 65.744 67.248L65.744 66.248C64.8804 66.248 64.1236 65.9883 63.5944 65.5948C63.0649 65.2011 62.788 64.6976 62.788 64.188L61.788 64.188ZM65.744 67.248L79.184 67.248L79.184 66.248L65.744 66.248L65.744 67.248ZM79.184 67.248C80.2404 67.248 81.2116 66.9317 81.9304 66.3972C82.6489 65.8629 83.14 65.0864 83.14 64.188L82.14 64.188C82.14 64.6976 81.8631 65.2011 81.3337 65.5948C80.8044 65.9883 80.0476 66.248 79.184 66.248L79.184 67.248ZM83.14 64.188L83.14 63.676L82.14 63.676L82.14 64.188L83.14 64.188ZM83.14 63.676C83.14 63.4488 83.0295 63.2767 82.96 63.184C82.8865 63.086 82.795 62.9959 82.7376 62.9384L82.0304 63.6456C82.0635 63.6786 82.0897 63.7049 82.1132 63.73C82.1366 63.7549 82.1511 63.7722 82.16 63.784C82.1693 63.7964 82.1661 63.7946 82.1599 63.7804C82.1532 63.7651 82.14 63.7284 82.14 63.676L83.14 63.676ZM82.7376 62.9384C82.5826 62.7835 82.4218 62.6602 82.2221 62.5937C82.0353 62.5314 81.8543 62.536 81.744 62.536L81.744 63.536C81.8129 63.536 81.8485 63.5363 81.8777 63.5385C81.89 63.5395 81.8973 63.5406 81.9012 63.5413C81.9031 63.5416 81.9043 63.5419 81.9049 63.5421C81.9055 63.5422 81.9058 63.5423 81.9059 63.5423C81.906 63.5424 81.9062 63.5424 81.9066 63.5426C81.907 63.5428 81.9078 63.5432 81.9093 63.5439C81.912 63.5453 81.9179 63.5485 81.9274 63.5551C81.9473 63.5689 81.9802 63.5953 82.0304 63.6456L82.7376 62.9384ZM81.744 62.536L63.184 62.536L63.184 63.536L81.744 63.536L81.744 62.536ZM63.184 62.536C63.0732 62.536 62.8707 62.5324 62.6786 62.5872C62.4526 62.6518 62.2325 62.797 62.0968 63.0684L62.9912 63.5156C62.9921 63.5138 62.9861 63.5253 62.9702 63.5378C62.9556 63.5492 62.9462 63.5508 62.9534 63.5488C62.9627 63.5461 62.9842 63.5417 63.0262 63.539C63.0693 63.5362 63.1169 63.536 63.184 63.536L63.184 62.536ZM62.3204 62.8448C62.1358 62.9371 61.97 63.066 61.8728 63.2604C61.7807 63.4446 61.788 63.6246 61.788 63.676L62.788 63.676C62.788 63.6587 62.788 63.6505 62.7883 63.6436C62.7884 63.6376 62.7886 63.638 62.7881 63.642C62.7869 63.6522 62.7822 63.6776 62.7672 63.7076C62.752 63.738 62.7349 63.7557 62.7282 63.7617C62.7235 63.7658 62.7322 63.7569 62.7676 63.7392L62.3204 62.8448ZM20.06 63.676L20.06 64.188L21.06 64.188L21.06 63.676L20.06 63.676ZM20.06 64.188C20.06 65.0864 20.5511 65.8629 21.2696 66.3972C21.9884 66.9317 22.9596 67.248 24.016 67.248L24.016 66.248C23.1524 66.248 22.3956 65.9883 21.8663 65.5948C21.3369 65.2011 21.06 64.6976 21.06 64.188L20.06 64.188ZM24.016 67.248L41.424 67.248L41.424 66.248L24.016 66.248L24.016 67.248ZM41.424 67.248C42.4791 67.248 43.4778 66.9325 44.2247 66.4042C44.9685 65.8782 45.508 65.1023 45.508 64.188L44.508 64.188C44.508 64.6817 44.2155 65.1858 43.6473 65.5878C43.0822 65.9875 42.2889 66.248 41.424 66.248L41.424 67.248ZM45.508 64.188L45.508 63.676L44.508 63.676L44.508 64.188L45.508 64.188ZM45.508 63.676C45.508 63.4488 45.3975 63.2767 45.328 63.184C45.2545 63.086 45.163 62.9959 45.1056 62.9384L44.3984 63.6456C44.4315 63.6786 44.4577 63.7049 44.4812 63.73C44.5046 63.7549 44.5191 63.7722 44.528 63.784C44.5373 63.7964 44.5341 63.7946 44.5279 63.7804C44.5212 63.7651 44.508 63.7284 44.508 63.676L45.508 63.676ZM45.1056 62.9384C44.6941 62.527 44.2474 62.536 43.984 62.536L43.984 63.536C44.1213 63.536 44.188 63.5384 44.2467 63.5531C44.2887 63.5636 44.3359 63.583 44.3984 63.6456L45.1056 62.9384ZM43.984 62.536L21.456 62.536L21.456 63.536L43.984 63.536L43.984 62.536ZM21.456 62.536C21.3452 62.536 21.1427 62.5324 20.9506 62.5872C20.7246 62.6518 20.5045 62.797 20.3688 63.0684L21.2632 63.5156C21.2641 63.5138 21.2581 63.5253 21.2422 63.5377C21.2276 63.5492 21.2182 63.5508 21.2254 63.5488C21.2347 63.5461 21.2562 63.5417 21.2982 63.539C21.3413 63.5362 21.3889 63.536 21.456 63.536L21.456 62.536ZM20.4624 62.9384C20.405 62.9959 20.3135 63.086 20.24 63.184C20.1705 63.2767 20.06 63.4488 20.06 63.676L21.06 63.676C21.06 63.7284 21.0468 63.7651 21.0401 63.7804C21.0339 63.7946 21.0307 63.7964 21.04 63.784C21.0489 63.7722 21.0634 63.7549 21.0868 63.73C21.1103 63.7049 21.1365 63.6786 21.1696 63.6456L20.4624 62.9384ZM8.144 93.013L7.8748 92.5916L7.867 92.5966L7.85939 92.6019L8.144 93.013ZM95.056 93.013L95.3407 92.6018L95.3306 92.5951L95.056 93.013ZM95.056 122.069L94.7786 121.653L94.7732 121.657L95.056 122.069ZM8.14399 122.069L8.42134 121.653L8.42134 121.653L8.14399 122.069ZM21.712 108.885L21.9151 108.428L21.893 108.418L21.8701 108.411L21.712 108.885ZM81.488 108.885L81.3299 108.411L81.307 108.418L81.2849 108.428L81.488 108.885ZM81.488 106.325L81.2849 106.782L81.307 106.792L81.3299 106.799L81.488 106.325ZM21.712 106.325L21.8701 106.799L21.893 106.792L21.9151 106.782L21.712 106.325ZM1.092 107.605C1.092 101.369 3.57188 96.7864 8.4286 93.4241L7.85939 92.6019C2.73212 96.1516 0.0919955 101.041 0.0919952 107.605L1.092 107.605ZM8.41319 93.4343C12.9182 90.5562 19.0884 88.905 27.216 88.905L27.216 87.905C18.9596 87.905 12.5858 89.5818 7.8748 92.5916L8.41319 93.4343ZM27.216 88.905L75.984 88.905L75.984 87.905L27.216 87.905L27.216 88.905ZM75.984 88.905C84.1155 88.905 90.4092 90.5577 94.7814 93.4309L95.3306 92.5951C90.7428 89.5803 84.2365 87.905 75.984 87.905L75.984 88.905ZM94.7714 93.4241C99.6281 96.7864 102.108 101.369 102.108 107.605L103.108 107.605C103.108 101.041 100.468 96.1516 95.3406 92.6019L94.7714 93.4241ZM102.108 107.605C102.108 113.717 99.6257 118.422 94.7787 121.653L95.3334 122.485C100.47 119.06 103.108 114.037 103.108 107.605L102.108 107.605ZM94.7732 121.657C90.405 124.652 84.1163 126.305 75.984 126.305L75.984 127.305C84.2357 127.305 90.747 125.63 95.3388 122.481L94.7732 121.657ZM75.984 126.305L27.216 126.305L27.216 127.305L75.984 127.305L75.984 126.305ZM27.216 126.305C19.0877 126.305 12.9223 124.654 8.42134 121.653L7.86664 122.485C12.5817 125.628 18.9603 127.305 27.216 127.305L27.216 126.305ZM8.42134 121.653C3.57429 118.422 1.09199 113.717 1.092 107.605L0.0919952 107.605C0.0919949 114.037 2.7297 119.06 7.86664 122.485L8.42134 121.653ZM20.06 107.605C20.06 108.037 20.1943 108.418 20.4806 108.728C20.7531 109.023 21.1303 109.218 21.5539 109.359L21.8701 108.411C21.5257 108.296 21.3269 108.171 21.2154 108.05C21.1177 107.944 21.06 107.813 21.06 107.605L20.06 107.605ZM21.5089 109.342C22.767 109.901 24.3993 110.025 26.32 110.025L26.32 109.025C24.4007 109.025 22.9609 108.893 21.9151 108.428L21.5089 109.342ZM26.32 110.025L76.88 110.025L76.88 109.025L26.32 109.025L26.32 110.025ZM76.88 110.025C78.8007 110.025 80.433 109.901 81.6911 109.342L81.2849 108.428C80.239 108.893 78.7993 109.025 76.88 109.025L76.88 110.025ZM81.6461 109.359C82.0697 109.218 82.4469 109.023 82.7194 108.728C83.0057 108.418 83.14 108.037 83.14 107.605L82.14 107.605C82.14 107.813 82.0823 107.944 81.9846 108.05C81.8731 108.171 81.6743 108.296 81.3299 108.411L81.6461 109.359ZM83.14 107.605C83.14 107.173 83.0057 106.792 82.7194 106.482C82.4469 106.187 82.0697 105.992 81.6461 105.851L81.3299 106.799C81.6743 106.914 81.8731 107.039 81.9846 107.16C82.0823 107.266 82.14 107.397 82.14 107.605L83.14 107.605ZM81.6911 105.868C80.433 105.309 78.8007 105.185 76.88 105.185L76.88 106.185C78.7993 106.185 80.239 106.317 81.2849 106.782L81.6911 105.868ZM76.88 105.185L26.32 105.185L26.32 106.185L76.88 106.185L76.88 105.185ZM26.32 105.185C24.3993 105.185 22.767 105.309 21.5089 105.868L21.9151 106.782C22.9609 106.317 24.4007 106.185 26.32 106.185L26.32 105.185ZM21.5539 105.851C21.1303 105.992 20.7531 106.187 20.4806 106.482C20.1943 106.792 20.06 107.173 20.06 107.605L21.06 107.605C21.06 107.397 21.1177 107.266 21.2154 107.16C21.3269 107.039 21.5257 106.914 21.8701 106.799L21.5539 105.851ZM8.14399 134.01L7.8694 133.592L7.86664 133.594L8.14399 134.01ZM21.2 147.45L20.935 147.026L20.9288 147.03L20.9226 147.034L21.2 147.45ZM21.2 149.754L20.9226 150.17L20.9288 150.174L20.935 150.178L21.2 149.754ZM8.14399 162.81L7.86664 163.226L7.8694 163.228L8.14399 162.81ZM1.21999 148.474C1.21999 142.228 3.57905 137.654 8.42134 134.426L7.86664 133.594C2.72493 137.022 0.219994 141.92 0.219993 148.474L1.21999 148.474ZM8.41858 134.428C12.7857 131.558 19.0758 130.03 27.344 130.03L27.344 129.03C18.9722 129.03 12.4623 130.574 7.86941 133.592L8.41858 134.428ZM27.344 130.03L99.28 130.03L99.28 129.03L27.344 129.03L27.344 130.03ZM99.28 130.03C99.6294 130.03 100.021 130.21 100.334 130.524L101.042 129.816C100.587 129.362 99.9546 129.03 99.28 129.03L99.28 130.03ZM100.334 130.524C100.648 130.837 100.828 131.229 100.828 131.578L101.828 131.578C101.828 130.903 101.496 130.271 101.042 129.816L100.334 130.524ZM100.828 131.578L100.828 144.506L101.828 144.506L101.828 131.578L100.828 131.578ZM100.828 144.506C100.828 145.53 100.136 146.182 99.28 146.182L99.28 147.182C100.728 147.182 101.828 146.042 101.828 144.506L100.828 144.506ZM99.28 146.182L26.192 146.182L26.192 147.182L99.28 147.182L99.28 146.182ZM26.192 146.182C25.0353 146.182 24.0158 146.214 23.1493 146.33C22.2858 146.447 21.5335 146.652 20.935 147.026L21.465 147.874C21.8905 147.608 22.4822 147.429 23.2827 147.322C24.0802 147.214 25.0447 147.182 26.192 147.182L26.192 146.182ZM20.9226 147.034C20.4234 147.367 20.06 147.896 20.06 148.602L21.06 148.602C21.06 148.284 21.2086 148.045 21.4773 147.866L20.9226 147.034ZM20.06 148.602C20.06 149.308 20.4234 149.837 20.9226 150.17L21.4773 149.338C21.2086 149.159 21.06 148.92 21.06 148.602L20.06 148.602ZM20.935 150.178C21.5335 150.552 22.2858 150.757 23.1493 150.874C24.0158 150.99 25.0353 151.022 26.192 151.022L26.192 150.022C25.0447 150.022 24.0802 149.99 23.2827 149.882C22.4822 149.775 21.8905 149.596 21.465 149.33L20.935 150.178ZM26.192 151.022L99.28 151.022L99.28 150.022L26.192 150.022L26.192 151.022ZM99.28 151.022C100.117 151.022 100.828 151.782 100.828 152.698L101.828 152.698C101.828 151.31 100.747 150.022 99.28 150.022L99.28 151.022ZM100.828 152.698L100.828 165.242L101.828 165.242L101.828 152.698L100.828 152.698ZM100.828 165.242C100.828 165.591 100.648 165.983 100.334 166.296L101.042 167.004C101.496 166.549 101.828 165.917 101.828 165.242L100.828 165.242ZM100.334 166.296C100.021 166.61 99.6294 166.79 99.28 166.79L99.28 167.79C99.9546 167.79 100.587 167.458 101.042 167.004L100.334 166.296ZM99.28 166.79L27.344 166.79L27.344 167.79L99.28 167.79L99.28 166.79ZM27.344 166.79C19.0758 166.79 12.7857 165.262 8.41858 162.392L7.8694 163.228C12.4623 166.246 18.9722 167.79 27.344 167.79L27.344 166.79ZM8.42134 162.394C3.57739 159.165 1.21999 154.59 1.21999 148.474L0.219993 148.474C0.219993 154.902 2.7266 159.799 7.86664 163.226L8.42134 162.394ZM81.104 180.654L81.3276 181.101L81.4002 181.065L81.4576 181.008L81.104 180.654ZM82 170.67L81.6464 170.316L81.6464 170.316L82 170.67ZM82 208.302L82.3535 207.948L82.3284 207.923L82.3 207.902L82 208.302ZM81.104 198.318L81.5512 198.094L81.4767 197.945L81.3276 197.871L81.104 198.318ZM4.04799 181.41L80.336 181.41L80.336 180.41L4.04799 180.41L4.04799 181.41ZM80.336 181.41C80.733 181.41 81.1006 181.215 81.3276 181.101L80.8804 180.207C80.5954 180.349 80.451 180.41 80.336 180.41L80.336 181.41ZM81.4576 181.008C81.673 180.792 81.86 180.411 81.86 180.014L80.86 180.014C80.86 180.062 80.8473 180.122 80.8204 180.185C80.7927 180.25 80.7616 180.289 80.7504 180.3L81.4576 181.008ZM81.86 180.014L81.86 172.078L80.86 172.078L80.86 180.014L81.86 180.014ZM81.86 172.078C81.86 171.729 82.0397 171.337 82.3535 171.024L81.6464 170.316C81.1923 170.771 80.86 171.403 80.86 172.078L81.86 172.078ZM82.3535 171.024C82.6674 170.71 83.0586 170.53 83.408 170.53L83.408 169.53C82.7334 169.53 82.1006 169.862 81.6464 170.316L82.3535 171.024ZM83.408 170.53L99.152 170.53L99.152 169.53L83.408 169.53L83.408 170.53ZM99.152 170.53C99.6455 170.53 100.034 170.723 100.334 171.024L101.042 170.316C100.574 169.849 99.9385 169.53 99.152 169.53L99.152 170.53ZM100.334 171.024C100.648 171.337 100.828 171.729 100.828 172.078L101.828 172.078C101.828 171.403 101.496 170.771 101.042 170.316L100.334 171.024ZM100.828 172.078L100.828 206.894L101.828 206.894L101.828 172.078L100.828 172.078ZM100.828 206.894C100.828 207.243 100.648 207.635 100.334 207.948L101.042 208.656C101.496 208.201 101.828 207.569 101.828 206.894L100.828 206.894ZM100.334 207.948C100.034 208.249 99.6455 208.442 99.152 208.442L99.152 209.442C99.9385 209.442 100.574 209.123 101.042 208.656L100.334 207.948ZM99.152 208.442L83.408 208.442L83.408 209.442L99.152 209.442L99.152 208.442ZM83.408 208.442C83.0586 208.442 82.6674 208.262 82.3535 207.948L81.6464 208.656C82.1006 209.11 82.7334 209.442 83.408 209.442L83.408 208.442ZM82.3 207.902C81.9593 207.646 81.86 207.316 81.86 206.894L80.86 206.894C80.86 207.496 81.0167 208.19 81.7 208.702L82.3 207.902ZM81.86 206.894L81.86 198.958L80.86 198.958L80.86 206.894L81.86 206.894ZM81.86 198.958C81.86 198.732 81.7997 198.559 81.7272 198.414C81.695 198.35 81.6583 198.287 81.6311 198.24C81.6015 198.189 81.576 198.144 81.5512 198.094L80.6568 198.542C80.696 198.62 80.7345 198.687 80.7649 198.74C80.7977 198.797 80.817 198.83 80.8328 198.862C80.8562 198.909 80.86 198.928 80.86 198.958L81.86 198.958ZM81.3276 197.871C81.1006 197.757 80.733 197.562 80.336 197.562L80.336 198.562C80.451 198.562 80.5954 198.623 80.8804 198.765L81.3276 197.871ZM80.336 197.562L4.04799 197.562L4.04799 198.562L80.336 198.562L80.336 197.562ZM4.04799 197.562C3.17213 197.562 2.49999 196.89 2.49999 196.014L1.49999 196.014C1.49999 197.442 2.61985 198.562 4.04799 198.562L4.04799 197.562ZM2.49999 196.014L2.49999 182.958L1.49999 182.958L1.49999 196.014L2.49999 196.014ZM2.49999 182.958C2.49999 182.082 3.17213 181.41 4.04799 181.41L4.04799 180.41C2.61985 180.41 1.49999 181.53 1.49999 182.958L2.49999 182.958Z" fill="white"/>
</svg>
