<svg width="104" height="261" viewBox="0 0 104 261" fill="none" xmlns="http://www.w3.org/2000/svg">
<path d="M8.144 5.76L8.41385 6.18096L8.41859 6.17785L8.144 5.76ZM21.712 18.432L21.5539 17.9577L21.5202 17.9689L21.4884 17.9848L21.712 18.432ZM21.2 21.12L21.465 20.696L21.4449 20.6834L21.4236 20.6728L21.2 21.12ZM35.408 20.352L35.5937 20.8164L35.605 20.8116L35.408 20.352ZM45.264 13.824L45.5764 14.2145L45.5806 14.211L45.264 13.824ZM60.496 4.224L60.3148 3.758L60.3069 3.76108L60.299 3.76442L60.496 4.224ZM95.056 6.016L95.3334 5.59997L95.3306 5.59815L95.056 6.016ZM95.056 34.56L95.3221 34.9833L95.3258 34.9809L95.056 34.56ZM82.128 21.504L82.3708 21.9411L82.3885 21.9313L82.4054 21.92L82.128 21.504ZM81.616 19.2L81.8017 18.7358L81.7881 18.7303L81.7741 18.7257L81.616 19.2ZM69.072 20.224L68.8863 19.7598L68.8715 19.7657L68.857 19.7726L69.072 20.224ZM59.344 26.88L59.6606 27.267L59.6641 27.2641L59.344 26.88ZM43.984 36.352L43.8142 35.8817L43.8071 35.8844L43.984 36.352ZM8.272 34.432L8.55485 34.0195L8.54449 34.0128L8.272 34.432ZM1.092 19.968C1.092 13.8586 3.57164 9.28491 8.41383 6.18093L7.87417 5.33906C2.73236 8.63508 0.0920023 13.5334 0.092002 19.968L1.092 19.968ZM8.41859 6.17785C12.7862 3.30768 19.0767 1.78 27.216 1.78L27.216 0.779996C18.9713 0.779996 12.4618 2.32431 7.86941 5.34214L8.41859 6.17785ZM27.216 1.78L33.872 1.78L33.872 0.779996L27.216 0.779996L27.216 1.78ZM33.872 1.78C34.7479 1.78 35.42 2.45214 35.42 3.328L36.42 3.328C36.42 1.89985 35.3001 0.779997 33.872 0.779996L33.872 1.78ZM35.42 3.328L35.42 15.744L36.42 15.744L36.42 3.328L35.42 3.328ZM35.42 15.744C35.42 16.6199 34.7479 17.292 33.872 17.292L33.872 18.292C35.3001 18.292 36.42 17.1721 36.42 15.744L35.42 15.744ZM33.872 17.292L26.192 17.292L26.192 18.292L33.872 18.292L33.872 17.292ZM26.192 17.292C24.2251 17.292 22.763 17.5546 21.5539 17.9577L21.8701 18.9063C22.965 18.5414 24.3189 18.292 26.192 18.292L26.192 17.292ZM21.4884 17.9848C21.0835 18.1872 20.7251 18.4151 20.4684 18.7146C20.1962 19.0322 20.06 19.4046 20.06 19.84L21.06 19.84C21.06 19.6354 21.1159 19.4958 21.2276 19.3654C21.3549 19.2169 21.5725 19.0608 21.9356 18.8792L21.4884 17.9848ZM20.06 19.84C20.06 20.4113 20.2037 21.1809 20.9764 21.5672L21.4236 20.6728C21.1723 20.5471 21.06 20.2927 21.06 19.84L20.06 19.84ZM20.935 21.544C21.5378 21.9208 22.3265 22.1246 23.2329 22.24C24.1456 22.3562 25.2277 22.388 26.448 22.388L26.448 21.388C25.2363 21.388 24.2064 21.3558 23.3591 21.248C22.5055 21.1394 21.8862 20.9592 21.465 20.696L20.935 21.544ZM26.448 22.388C29.9534 22.388 32.9628 21.8686 35.5937 20.8162L35.2223 19.8878C32.7332 20.8834 29.8546 21.388 26.448 21.388L26.448 22.388ZM35.605 20.8116C38.3597 19.6309 41.7326 17.2895 45.5764 14.2144L44.9517 13.4336C41.1154 16.5025 37.8323 18.769 35.211 19.8924L35.605 20.8116ZM45.5806 14.211C51.1826 9.62752 56.2629 6.58215 60.693 4.68357L60.299 3.76442C55.7691 5.70584 50.6094 8.80447 44.9474 13.437L45.5806 14.211ZM60.6772 4.69C65.2176 2.92431 70.4024 2.036 76.24 2.036L76.24 1.036C70.3016 1.036 64.9904 1.93968 60.3148 3.758L60.6772 4.69ZM76.24 2.036C84.2485 2.036 90.4122 3.56262 94.7814 6.43385L95.3306 5.59815C90.7399 2.58137 84.3595 1.036 76.24 1.036L76.24 2.036ZM94.7787 6.43202C99.6291 9.66567 102.108 14.2442 102.108 20.352L103.108 20.352C103.108 13.9158 100.467 9.02233 95.3334 5.59997L94.7787 6.43202ZM102.108 20.352C102.108 26.4614 99.6284 31.0351 94.7862 34.1391L95.3258 34.9809C100.468 31.6849 103.108 26.7866 103.108 20.352L102.108 20.352ZM94.7899 34.1367C90.4175 36.885 84.2494 38.412 75.984 38.412L75.984 39.412C84.3586 39.412 90.7345 37.867 95.3221 34.9833L94.7899 34.1367ZM75.984 38.412L70.864 38.412L70.864 39.412L75.984 39.412L75.984 38.412ZM70.864 38.412C70.0266 38.412 69.316 37.6519 69.316 36.736L68.316 36.736C68.316 38.1241 69.3974 39.412 70.864 39.412L70.864 38.412ZM69.316 36.736L69.316 24.448L68.316 24.448L68.316 36.736L69.316 36.736ZM69.316 24.448C69.316 23.5321 70.0266 22.772 70.864 22.772L70.864 21.772C69.3974 21.772 68.316 23.0599 68.316 24.448L69.316 24.448ZM70.864 22.772L76.88 22.772L76.88 21.772L70.864 21.772L70.864 22.772ZM76.88 22.772C79.2907 22.772 81.0877 22.6539 82.3708 21.9411L81.8852 21.0669C80.8643 21.6341 79.3333 21.772 76.88 21.772L76.88 22.772ZM82.4054 21.92C82.9667 21.5458 83.14 20.9793 83.14 20.48L82.14 20.48C82.14 20.7487 82.0573 20.9502 81.8507 21.088L82.4054 21.92ZM83.14 20.48C83.14 20.0497 83.0071 19.6772 82.7497 19.373C82.5018 19.0801 82.1644 18.8808 81.8017 18.7358L81.4303 19.6642C81.7077 19.7752 81.8822 19.8959 81.9863 20.019C82.0809 20.1308 82.14 20.2703 82.14 20.48L83.14 20.48ZM81.7741 18.7257C80.565 18.3226 79.1029 18.06 77.136 18.06L77.136 19.06C79.0091 19.06 80.363 19.3094 81.4579 19.6743L81.7741 18.7257ZM77.136 18.06C74.243 18.06 71.4915 18.7177 68.8863 19.7598L69.2577 20.6882C71.7725 19.6823 74.397 19.06 77.136 19.06L77.136 18.06ZM68.857 19.7726C66.1154 21.0781 62.8788 23.2835 59.0239 26.4959L59.6641 27.2641C63.4892 24.0765 66.6526 21.9299 69.287 20.6754L68.857 19.7726ZM59.0274 26.493C53.4172 31.0832 48.3474 34.2447 43.8142 35.8817L44.1538 36.8223C48.8366 35.1313 54.0068 31.8928 59.6606 27.267L59.0274 26.493ZM43.8071 35.8844C39.1393 37.6505 33.6975 38.54 27.472 38.54L27.472 39.54C33.7905 39.54 39.3567 38.6375 44.1609 36.8196L43.8071 35.8844ZM27.472 38.54C19.2029 38.54 12.9181 37.0116 8.55476 34.0196L7.98923 34.8444C12.5859 37.9964 19.1011 39.54 27.472 39.54L27.472 38.54ZM8.54449 34.0128C3.57097 30.78 1.092 26.2043 1.092 19.968L0.092002 19.968C0.0920017 26.5317 2.73302 31.428 7.9995 34.8512L8.54449 34.0128ZM100.688 76.34L100.334 75.9864L100.334 75.9864L100.688 76.34ZM62.544 72.628L62.8976 72.9815L62.544 72.628ZM43.216 58.932L43.716 58.932L43.716 58.432L43.216 58.432L43.216 58.932ZM22.224 59.188L22.4476 59.6352L22.5202 59.5989L22.5776 59.5415L22.224 59.188ZM2.512 76.34L2.86555 75.9864L2.86555 75.9864L2.512 76.34ZM2.512 42.42L2.86555 42.7735L2.512 42.42ZM100.828 43.828L100.828 74.804L101.828 74.804L101.828 43.828L100.828 43.828ZM100.828 74.804C100.828 75.1849 100.624 75.6973 100.334 75.9864L101.042 76.6936C101.52 76.2147 101.828 75.4471 101.828 74.804L100.828 74.804ZM100.334 75.9864C100.085 76.2359 99.7311 76.352 99.152 76.352L99.152 77.352C99.8529 77.352 100.523 77.2121 101.042 76.6935L100.334 75.9864ZM99.152 76.352L83.408 76.352L83.408 77.352L99.152 77.352L99.152 76.352ZM83.408 76.352C82.5321 76.352 81.86 75.6799 81.86 74.804L80.86 74.804C80.86 76.2321 81.9799 77.352 83.408 77.352L83.408 76.352ZM81.86 74.804L81.86 59.828L80.86 59.828L80.86 74.804L81.86 74.804ZM81.86 59.828C81.86 59.3952 81.6423 59.0391 81.3601 58.8039C81.0805 58.5709 80.7118 58.432 80.336 58.432L80.336 59.432C80.4722 59.432 80.6155 59.4851 80.7199 59.5721C80.8217 59.6569 80.86 59.7488 80.86 59.828L81.86 59.828ZM80.336 58.432L64.208 58.432L64.208 59.432L80.336 59.432L80.336 58.432ZM64.208 58.432C63.7882 58.432 63.4044 58.5592 63.1197 58.818C62.8321 59.0795 62.684 59.4414 62.684 59.828L63.684 59.828C63.684 59.7026 63.7279 59.6165 63.7923 59.558C63.8596 59.4968 63.9878 59.432 64.208 59.432L64.208 58.432ZM62.684 59.828L62.684 71.092L63.684 71.092L63.684 59.828L62.684 59.828ZM62.684 71.092C62.684 71.5855 62.491 71.9739 62.1904 72.2744L62.8976 72.9815C63.365 72.5141 63.684 71.8785 63.684 71.092L62.684 71.092ZM62.1904 72.2744C61.8766 72.5883 61.4854 72.768 61.136 72.768L61.136 73.768C61.8106 73.768 62.4434 73.4357 62.8976 72.9815L62.1904 72.2744ZM61.136 72.768L45.392 72.768L45.392 73.768L61.136 73.768L61.136 72.768ZM45.392 72.768C44.5161 72.768 43.716 71.9679 43.716 71.092L42.716 71.092C42.716 72.5201 43.9639 73.768 45.392 73.768L45.392 72.768ZM43.716 71.092L43.716 58.932L42.716 58.932L42.716 71.092L43.716 71.092ZM43.216 58.432L22.864 58.432L22.864 59.432L43.216 59.432L43.216 58.432ZM22.864 58.432C22.4667 58.432 22.0859 58.619 21.8704 58.8344L22.5776 59.5415C22.5887 59.5304 22.6282 59.4993 22.693 59.4716C22.7556 59.4447 22.8164 59.432 22.864 59.432L22.864 58.432ZM22.0004 58.7408C21.5515 58.9652 21.34 59.4103 21.34 59.828L22.34 59.828C22.34 59.7337 22.3845 59.6668 22.4476 59.6352L22.0004 58.7408ZM21.34 59.828L21.34 74.804L22.34 74.804L22.34 59.828L21.34 59.828ZM21.34 74.804C21.34 75.6799 20.6679 76.352 19.792 76.352L19.792 77.352C21.2201 77.352 22.34 76.2321 22.34 74.804L21.34 74.804ZM19.792 76.352L4.04799 76.352L4.04799 77.352L19.792 77.352L19.792 76.352ZM4.04799 76.352C3.5819 76.352 3.10847 76.2294 2.86555 75.9864L2.15844 76.6935C2.68353 77.2186 3.4901 77.352 4.04799 77.352L4.04799 76.352ZM2.86555 75.9864C2.62263 75.7435 2.5 75.2701 2.5 74.804L1.5 74.804C1.5 75.3619 1.63336 76.1685 2.15844 76.6936L2.86555 75.9864ZM2.5 74.804L2.5 43.828L1.5 43.828L1.5 74.804L2.5 74.804ZM2.5 43.828C2.5 43.3931 2.60839 43.0307 2.86555 42.7735L2.15845 42.0664C1.6476 42.5773 1.5 43.2389 1.5 43.828L2.5 43.828ZM2.86555 42.7735C3.15472 42.4844 3.66709 42.28 4.04799 42.28L4.04799 41.28C3.40491 41.28 2.63728 41.5876 2.15845 42.0664L2.86555 42.7735ZM4.04799 42.28L99.152 42.28L99.152 41.28L4.04799 41.28L4.04799 42.28ZM99.152 42.28C99.6455 42.28 100.034 42.473 100.334 42.7736L101.042 42.0664C100.574 41.599 99.9385 41.28 99.152 41.28L99.152 42.28ZM100.334 42.7736C100.648 43.0874 100.828 43.4786 100.828 43.828L101.828 43.828C101.828 43.1534 101.496 42.5206 101.042 42.0664L100.334 42.7736ZM52.816 112.17L53.1425 111.791L52.8058 111.501L52.4781 111.801L52.816 112.17ZM46.928 115.498L46.7774 115.021L46.7699 115.024L46.928 115.498ZM10.448 117.418L10.4065 116.92L10.4027 116.92L10.448 117.418ZM6.35199 118.186L6.20832 117.707L6.20495 117.708L6.35199 118.186ZM4.688 118.698L4.54095 118.22L4.52134 118.226L4.5023 118.234L4.688 118.698ZM2.76799 118.442L2.468 118.842L2.76799 118.442ZM3.536 101.418L3.39863 100.937L3.536 101.418ZM4.43199 101.162L4.56938 101.643L4.57904 101.64L4.43199 101.162ZM40.784 99.114L41.0234 99.5529L41.0324 99.548L41.0412 99.5427L40.784 99.114ZM41.68 96.682L42.18 96.682L42.18 96.182L41.68 96.182L41.68 96.682ZM2.512 96.042L2.15844 96.3955L2.512 96.042ZM2.512 80.17L2.86555 80.5235L2.512 80.17ZM94.672 112.81L94.9614 113.218L94.9661 113.214L94.672 112.81ZM81.104 96.81L81.4576 96.4564L81.4002 96.3991L81.3276 96.3628L81.104 96.81ZM59.856 96.81L59.6324 96.3628L59.5598 96.3991L59.5024 96.4564L59.856 96.81ZM52.4781 111.801C50.9974 113.159 49.1418 114.275 46.7774 115.021L47.0786 115.975C49.5782 115.185 51.5626 113.997 53.1539 112.539L52.4781 111.801ZM46.7699 115.024C43.39 116.15 38.7175 116.662 32.848 116.662L32.848 117.662C38.7545 117.662 43.554 117.15 47.0861 115.972L46.7699 115.024ZM32.848 116.662L16.592 116.662L16.592 117.662L32.848 117.662L32.848 116.662ZM16.592 116.662C14.0148 116.662 11.9526 116.791 10.4065 116.92L10.4895 117.916C12.0154 117.789 14.0492 117.662 16.592 117.662L16.592 116.662ZM10.4027 116.92C8.96629 117.051 7.52481 117.312 6.20832 117.707L6.49567 118.665C7.73918 118.292 9.1137 118.041 10.4933 117.916L10.4027 116.92ZM6.20495 117.708L4.54095 118.22L4.83504 119.176L6.49904 118.664L6.20495 117.708ZM4.5023 118.234C4.03163 118.422 3.44682 118.326 3.068 118.042L2.468 118.842C3.11317 119.326 4.06436 119.486 4.87369 119.162L4.5023 118.234ZM3.068 118.042C2.70774 117.772 2.49999 117.296 2.49999 116.778L1.49999 116.778C1.49999 117.54 1.80425 118.344 2.468 118.842L3.068 118.042ZM2.49999 116.778L2.5 103.466L1.5 103.466L1.49999 116.778L2.49999 116.778ZM2.5 103.466C2.5 102.675 2.98259 102.096 3.67336 101.899L3.39863 100.937C2.2974 101.252 1.5 102.209 1.5 103.466L2.5 103.466ZM3.67336 101.899L4.56935 101.643L4.29464 100.681L3.39863 100.937L3.67336 101.899ZM4.57904 101.64C6.20018 101.141 7.82791 100.89 9.21326 100.764L9.12273 99.768C7.69207 99.8981 5.99182 100.159 4.28495 100.684L4.57904 101.64ZM9.21326 100.764C10.5923 100.639 13.1215 100.638 16.72 100.638L16.72 99.638C13.1505 99.638 10.5597 99.6374 9.12273 99.768L9.21326 100.764ZM16.72 100.638L33.616 100.638L33.616 99.638L16.72 99.638L16.72 100.638ZM33.616 100.638C35.3532 100.638 36.8187 100.574 38.035 100.409C39.2481 100.246 40.2438 99.9782 41.0234 99.5529L40.5446 98.6751C39.9162 99.0178 39.0559 99.2624 37.901 99.4185C36.7493 99.5741 35.3348 99.638 33.616 99.638L33.616 100.638ZM41.0412 99.5427C41.4868 99.2754 41.7701 98.8471 41.9402 98.3936C42.1104 97.9396 42.18 97.4292 42.18 96.938L41.18 96.938C41.18 97.3428 41.1216 97.7284 41.0038 98.0424C40.8859 98.3569 40.7212 98.5686 40.5268 98.6852L41.0412 99.5427ZM42.18 96.938L42.18 96.682L41.18 96.682L41.18 96.938L42.18 96.938ZM41.68 96.182L4.04799 96.182L4.04799 97.182L41.68 97.182L41.68 96.182ZM4.04799 96.182C3.66709 96.182 3.15472 95.9776 2.86555 95.6884L2.15844 96.3955C2.63728 96.8744 3.4049 97.182 4.04799 97.182L4.04799 96.182ZM2.86555 95.6884C2.60839 95.4313 2.5 95.0689 2.5 94.634L1.5 94.634C1.5 95.2231 1.6476 95.8847 2.15844 96.3955L2.86555 95.6884ZM2.5 94.634L2.5 81.578L1.5 81.578L1.5 94.634L2.5 94.634ZM2.5 81.578C2.5 81.1431 2.60839 80.7807 2.86555 80.5235L2.15844 79.8164C1.6476 80.3273 1.5 80.9889 1.5 81.578L2.5 81.578ZM2.86555 80.5235C3.15472 80.2344 3.66709 80.03 4.04799 80.03L4.04799 79.03C3.4049 79.03 2.63728 79.3376 2.15844 79.8164L2.86555 80.5235ZM4.04799 80.03L99.152 80.03L99.152 79.03L4.04799 79.03L4.04799 80.03ZM99.152 80.03C100.068 80.03 100.828 80.7406 100.828 81.578L101.828 81.578C101.828 80.1114 100.54 79.03 99.152 79.03L99.152 80.03ZM100.828 81.578L100.828 98.346L101.828 98.346L101.828 81.578L100.828 81.578ZM100.828 98.346C100.828 104.864 98.4555 109.44 94.3779 112.406L94.9661 113.214C99.3365 110.036 101.828 105.14 101.828 98.346L100.828 98.346ZM94.3826 112.402C90.5341 115.133 84.6375 116.662 76.624 116.662L76.624 117.662C84.7385 117.662 90.8739 116.119 94.9614 113.218L94.3826 112.402ZM76.624 116.662L70.864 116.662L70.864 117.662L76.624 117.662L76.624 116.662ZM70.864 116.662C62.6001 116.662 56.7249 114.88 53.1425 111.791L52.4895 112.549C56.3311 115.86 62.4879 117.662 70.864 117.662L70.864 116.662ZM59.1 97.322L59.1 97.834L60.1 97.834L60.1 97.322L59.1 97.322ZM59.1 97.834C59.1 98.7324 59.5911 99.5089 60.3096 100.043C61.0284 100.578 61.9996 100.894 63.056 100.894L63.056 99.894C62.1924 99.894 61.4356 99.6343 60.9063 99.2408C60.3769 98.8471 60.1 98.3436 60.1 97.834L59.1 97.834ZM63.056 100.894L77.776 100.894L77.776 99.894L63.056 99.894L63.056 100.894ZM77.776 100.894C78.8311 100.894 79.8298 100.579 80.5767 100.05C81.3204 99.5242 81.86 98.7483 81.86 97.834L80.86 97.834C80.86 98.3277 80.5675 98.8318 79.9993 99.2338C79.4342 99.6335 78.6409 99.894 77.776 99.894L77.776 100.894ZM81.86 97.834L81.86 97.322L80.86 97.322L80.86 97.834L81.86 97.834ZM81.86 97.322C81.86 97.1366 81.7828 96.9536 81.7272 96.8424C81.6637 96.7154 81.571 96.5699 81.4576 96.4564L80.7504 97.1635C80.7549 97.168 80.7674 97.1821 80.7849 97.2077C80.8016 97.2322 80.8183 97.2607 80.8328 97.2896C80.8475 97.3191 80.8568 97.3428 80.8615 97.3576C80.8638 97.3647 80.8639 97.3664 80.8632 97.3629C80.8628 97.3604 80.86 97.3458 80.86 97.322L81.86 97.322ZM81.3276 96.3628C80.9514 96.1747 80.5794 96.182 80.336 96.182L80.336 97.182C80.6046 97.182 80.7446 97.1893 80.8804 97.2572L81.3276 96.3628ZM80.336 96.182L60.496 96.182L60.496 97.182L80.336 97.182L80.336 96.182ZM60.496 96.182C60.3778 96.182 60.2383 96.1807 60.0938 96.2048C59.9369 96.231 59.7929 96.2825 59.6324 96.3628L60.0796 97.2572C60.1751 97.2095 60.2231 97.197 60.2582 97.1912C60.3057 97.1833 60.3582 97.182 60.496 97.182L60.496 96.182ZM59.5024 96.4564C59.389 96.5699 59.2963 96.7154 59.2328 96.8424C59.1772 96.9536 59.1 97.1366 59.1 97.322L60.1 97.322C60.1 97.3458 60.0972 97.3604 60.0968 97.3629C60.0961 97.3664 60.0962 97.3647 60.0985 97.3576C60.1032 97.3428 60.1125 97.3191 60.1272 97.2896C60.1417 97.2607 60.1584 97.2322 60.1751 97.2077C60.1926 97.1821 60.2051 97.168 60.2096 97.1635L59.5024 96.4564ZM61.776 141.498L61.776 141.998L61.799 141.998L61.8219 141.996L61.776 141.498ZM61.776 143.418L61.8219 142.92L61.799 142.918L61.776 142.918L61.776 143.418ZM99.408 146.106L99.47 145.61L99.4577 145.608L99.4454 145.607L99.408 146.106ZM100.56 161.85L100.26 161.45L100.203 161.493L100.16 161.55L100.56 161.85ZM98.896 162.49L98.8398 162.987L98.8678 162.99L98.896 162.99L98.896 162.49ZM3.79199 152.122L3.72997 152.618L3.74019 152.619L3.79199 152.122ZM3.79199 131.898L3.73507 131.401L3.72997 131.402L3.79199 131.898ZM98.896 121.53L98.896 121.03L98.8678 121.03L98.8398 121.033L98.896 121.53ZM100.56 122.042L100.206 122.396L100.232 122.421L100.26 122.442L100.56 122.042ZM99.408 138.81L99.4454 139.309L99.4577 139.308L99.47 139.306L99.408 138.81ZM61.776 140.998C61.3432 140.998 60.9871 141.216 60.7519 141.498C60.5189 141.778 60.38 142.146 60.38 142.522L61.38 142.522C61.38 142.386 61.4331 142.242 61.5201 142.138C61.6049 142.036 61.6968 141.998 61.776 141.998L61.776 140.998ZM60.38 142.522C60.38 142.864 60.5417 143.204 60.766 143.45C60.9964 143.704 61.3466 143.918 61.776 143.918L61.776 142.918C61.6934 142.918 61.5956 142.876 61.506 142.778C61.4103 142.672 61.38 142.564 61.38 142.522L60.38 142.522ZM61.7301 143.916C71.4618 144.812 94.2678 146.222 99.3706 146.605L99.4454 145.607C94.3082 145.222 71.5462 143.816 61.8219 142.92L61.7301 143.916ZM99.346 146.602C100.136 146.701 100.828 147.399 100.828 148.282L101.828 148.282C101.828 146.861 100.728 145.767 99.47 145.61L99.346 146.602ZM100.828 148.282L100.828 160.314L101.828 160.314L101.828 148.282L100.828 148.282ZM100.828 160.314C100.828 160.797 100.646 161.16 100.26 161.45L100.86 162.25C101.498 161.772 101.828 161.111 101.828 160.314L100.828 160.314ZM100.16 161.55C99.9247 161.864 99.499 161.99 98.896 161.99L98.896 162.99C99.573 162.99 100.427 162.86 100.96 162.15L100.16 161.55ZM98.9522 161.993C85.383 160.457 16.1335 152.905 3.8438 151.625L3.74019 152.619C16.0265 153.899 85.273 161.451 98.8398 162.987L98.9522 161.993ZM3.85401 151.626C3.08679 151.53 2.49999 150.853 2.49999 150.074L1.49999 150.074C1.49999 151.343 2.44919 152.458 3.72997 152.618L3.85401 151.626ZM2.49999 150.074L2.49999 133.946L1.49999 133.946L1.49999 150.074L2.49999 150.074ZM2.49999 133.946C2.49999 133.167 3.08679 132.49 3.85401 132.394L3.72997 131.402C2.44919 131.562 1.49999 132.677 1.49999 133.946L2.49999 133.946ZM3.84892 132.395C16.1481 130.985 85.3656 123.565 98.9522 122.027L98.8398 121.033C85.2904 122.567 16.0119 129.995 3.73508 131.401L3.84892 132.395ZM98.896 122.03C99.5039 122.03 99.9691 122.158 100.206 122.396L100.914 121.688C100.383 121.158 99.5681 121.03 98.896 121.03L98.896 122.03ZM100.26 122.442C100.632 122.721 100.828 123.205 100.828 123.578L101.828 123.578C101.828 122.927 101.512 122.131 100.86 121.642L100.26 122.442ZM100.828 123.578L100.828 136.634L101.828 136.634L101.828 123.578L100.828 123.578ZM100.828 136.634C100.828 137.517 100.136 138.215 99.346 138.314L99.47 139.306C100.728 139.149 101.828 138.055 101.828 136.634L100.828 136.634ZM99.3706 138.311C94.2678 138.694 71.4618 140.104 61.7301 141L61.8219 141.996C71.5462 141.1 94.3082 139.694 99.4454 139.309L99.3706 138.311ZM100.688 181.667L101.042 182.021L101.042 182.021L100.688 181.667ZM2.51199 181.667L2.15844 182.021L2.51199 181.667ZM2.51199 165.795L2.86555 166.149L2.51199 165.795ZM100.828 167.203L100.828 180.259L101.828 180.259L101.828 167.203L100.828 167.203ZM100.828 180.259C100.828 180.608 100.648 181 100.334 181.313L101.042 182.021C101.496 181.566 101.828 180.934 101.828 180.259L100.828 180.259ZM100.334 181.313C100.034 181.614 99.6455 181.807 99.152 181.807L99.152 182.807C99.9385 182.807 100.574 182.488 101.042 182.021L100.334 181.313ZM99.152 181.807L4.04799 181.807L4.04799 182.807L99.152 182.807L99.152 181.807ZM4.04799 181.807C3.66708 181.807 3.15472 181.603 2.86555 181.313L2.15844 182.021C2.63728 182.499 3.4049 182.807 4.04799 182.807L4.04799 181.807ZM2.86555 181.313C2.60838 181.056 2.49999 180.694 2.49999 180.259L1.49999 180.259C1.49999 180.848 1.6476 181.51 2.15844 182.021L2.86555 181.313ZM2.49999 180.259L2.49999 167.203L1.49999 167.203L1.49999 180.259L2.49999 180.259ZM2.49999 167.203C2.49999 166.768 2.60838 166.406 2.86555 166.149L2.15844 165.441C1.6476 165.952 1.49999 166.614 1.49999 167.203L2.49999 167.203ZM2.86555 166.149C3.15472 165.859 3.66708 165.655 4.04799 165.655L4.04799 164.655C3.4049 164.655 2.63728 164.963 2.15844 165.441L2.86555 166.149ZM4.04799 165.655L99.152 165.655L99.152 164.655L4.04799 164.655L4.04799 165.655ZM99.152 165.655C99.6455 165.655 100.034 165.848 100.334 166.149L101.042 165.441C100.574 164.974 99.9385 164.655 99.152 164.655L99.152 165.655ZM100.334 166.149C100.648 166.462 100.828 166.854 100.828 167.203L101.828 167.203C101.828 166.528 101.496 165.896 101.042 165.441L100.334 166.149ZM8.14399 189.51L8.42135 189.926L8.42415 189.924L8.14399 189.51ZM95.184 189.51L95.4664 189.097L95.4586 189.092L95.184 189.51ZM95.184 217.926L95.4586 218.344L95.4588 218.344L95.184 217.926ZM81.616 205.254L81.4303 204.79L81.411 204.797L81.3924 204.807L81.616 205.254ZM81.616 202.822L81.3924 203.269L81.4523 203.299L81.5179 203.312L81.616 202.822ZM21.584 202.694L21.4084 202.226L21.3983 202.23L21.584 202.694ZM21.584 205.254L21.8076 204.807L21.789 204.797L21.7697 204.79L21.584 205.254ZM8.14399 217.926L8.42423 217.512L8.41382 217.505L8.14399 217.926ZM1.09199 203.718C1.09199 197.74 3.56913 193.161 8.42134 189.926L7.86665 189.094C2.73485 192.515 0.0919942 197.408 0.091994 203.718L1.09199 203.718ZM8.42415 189.924C12.6629 187.057 18.6952 185.53 26.704 185.53L26.704 184.53C18.5848 184.53 12.3291 186.075 7.86384 189.096L8.42415 189.924ZM26.704 185.53L76.496 185.53L76.496 184.53L26.704 184.53L26.704 185.53ZM76.496 185.53C84.5025 185.53 90.539 187.056 94.9094 189.928L95.4586 189.092C90.869 186.076 84.6175 184.53 76.496 184.53L76.496 185.53ZM94.9017 189.923C99.6292 193.157 102.108 197.739 102.108 203.718L103.108 203.718C103.108 197.409 100.467 192.519 95.4663 189.097L94.9017 189.923ZM102.108 203.718C102.108 209.829 99.6267 214.405 94.9092 217.508L95.4588 218.344C100.469 215.047 103.108 210.151 103.108 203.718L102.108 203.718ZM94.9094 217.508C90.539 220.38 84.5025 221.906 76.496 221.906L76.496 222.906C84.6174 222.906 90.869 221.36 95.4586 218.344L94.9094 217.508ZM76.496 221.906L65.488 221.906L65.488 222.906L76.496 222.906L76.496 221.906ZM65.488 221.906C64.5721 221.906 63.812 221.195 63.812 220.358L62.812 220.358C62.812 221.825 64.0999 222.906 65.488 222.906L65.488 221.906ZM63.812 220.358L63.812 207.942L62.812 207.942L62.812 220.358L63.812 220.358ZM63.812 207.942C63.812 207.105 64.5721 206.394 65.488 206.394L65.488 205.394C64.0999 205.394 62.812 206.475 62.812 207.942L63.812 207.942ZM65.488 206.394L77.392 206.394L77.392 205.394L65.488 205.394L65.488 206.394ZM77.392 206.394C79.1823 206.394 80.6993 206.271 81.8396 205.701L81.3924 204.807C80.4847 205.261 79.1857 205.394 77.392 205.394L77.392 206.394ZM81.8017 205.718C82.1643 205.573 82.5018 205.374 82.7497 205.081C83.0071 204.777 83.14 204.404 83.14 203.974L82.14 203.974C82.14 204.184 82.0809 204.323 81.9863 204.435C81.8822 204.558 81.7076 204.679 81.4303 204.79L81.8017 205.718ZM83.14 203.974C83.14 203.548 83.0092 203.166 82.7366 202.868C82.4698 202.577 82.1065 202.41 81.7141 202.332L81.5179 203.312C81.7655 203.362 81.9142 203.451 81.9994 203.544C82.0788 203.63 82.14 203.76 82.14 203.974L83.14 203.974ZM81.8396 202.375C80.6993 201.805 79.1823 201.682 77.392 201.682L77.392 202.682C79.1857 202.682 80.4847 202.815 81.3924 203.269L81.8396 202.375ZM77.392 201.682L25.68 201.682L25.68 202.682L77.392 202.682L77.392 201.682ZM25.68 201.682C23.8762 201.682 22.5207 201.809 21.4084 202.226L21.7596 203.162C22.6953 202.811 23.8998 202.682 25.68 202.682L25.68 201.682ZM21.3983 202.23C20.6241 202.539 20.06 203.204 20.06 203.974L21.06 203.974C21.06 203.72 21.2639 203.361 21.7697 203.158L21.3983 202.23ZM20.06 203.974C20.06 204.404 20.1929 204.777 20.4503 205.081C20.6982 205.374 21.0356 205.573 21.3983 205.718L21.7697 204.79C21.4923 204.679 21.3178 204.558 21.2137 204.435C21.1191 204.323 21.06 204.184 21.06 203.974L20.06 203.974ZM21.3604 205.701C22.4984 206.27 23.8836 206.394 25.68 206.394L25.68 205.394C23.8924 205.394 22.7176 205.262 21.8076 204.807L21.3604 205.701ZM25.68 206.394L41.04 206.394L41.04 205.394L25.68 205.394L25.68 206.394ZM41.04 206.394C41.9559 206.394 42.716 207.105 42.716 207.942L43.716 207.942C43.716 206.475 42.4281 205.394 41.04 205.394L41.04 206.394ZM42.716 207.942L42.716 220.358L43.716 220.358L43.716 207.942L42.716 207.942ZM42.716 220.358C42.716 221.195 41.9559 221.906 41.04 221.906L41.04 222.906C42.4281 222.906 43.716 221.825 43.716 220.358L42.716 220.358ZM41.04 221.906L26.704 221.906L26.704 222.906L41.04 222.906L41.04 221.906ZM26.704 221.906C18.6952 221.906 12.6629 220.379 8.42415 217.512L7.86384 218.34C12.3291 221.361 18.5848 222.906 26.704 222.906L26.704 221.906ZM8.41382 217.505C3.57163 214.401 1.09199 209.827 1.09199 203.718L0.091994 203.718C0.0919937 210.153 2.73235 215.051 7.87416 218.347L8.41382 217.505ZM100.688 259.715L100.334 259.361L100.334 259.361L100.688 259.715ZM62.544 256.003L62.8975 256.357L62.544 256.003ZM43.216 242.307L43.716 242.307L43.716 241.807L43.216 241.807L43.216 242.307ZM22.224 242.563L22.4476 243.01L22.5202 242.974L22.5775 242.917L22.224 242.563ZM2.51199 259.715L2.86554 259.361L2.51199 259.715ZM2.51199 225.795L2.86554 226.149L2.51199 225.795ZM100.828 227.203L100.828 258.179L101.828 258.179L101.828 227.203L100.828 227.203ZM100.828 258.179C100.828 258.56 100.624 259.072 100.334 259.361L101.042 260.069C101.52 259.59 101.828 258.822 101.828 258.179L100.828 258.179ZM100.334 259.361C100.085 259.611 99.7311 259.727 99.152 259.727L99.152 260.727C99.8529 260.727 100.523 260.587 101.042 260.069L100.334 259.361ZM99.152 259.727L83.408 259.727L83.408 260.727L99.152 260.727L99.152 259.727ZM83.408 259.727C82.5321 259.727 81.86 259.055 81.86 258.179L80.86 258.179C80.86 259.607 81.9799 260.727 83.408 260.727L83.408 259.727ZM81.86 258.179L81.86 243.203L80.86 243.203L80.86 258.179L81.86 258.179ZM81.86 243.203C81.86 242.77 81.6423 242.414 81.3601 242.179C81.0805 241.946 80.7118 241.807 80.336 241.807L80.336 242.807C80.4722 242.807 80.6155 242.86 80.7199 242.947C80.8217 243.032 80.86 243.124 80.86 243.203L81.86 243.203ZM80.336 241.807L64.208 241.807L64.208 242.807L80.336 242.807L80.336 241.807ZM64.208 241.807C63.7882 241.807 63.4044 241.934 63.1197 242.193C62.8321 242.454 62.684 242.816 62.684 243.203L63.684 243.203C63.684 243.078 63.7279 242.992 63.7923 242.933C63.8596 242.872 63.9878 242.807 64.208 242.807L64.208 241.807ZM62.684 243.203L62.684 254.467L63.684 254.467L63.684 243.203L62.684 243.203ZM62.684 254.467C62.684 254.961 62.491 255.349 62.1904 255.649L62.8975 256.357C63.365 255.889 63.684 255.253 63.684 254.467L62.684 254.467ZM62.1904 255.649C61.8766 255.963 61.4854 256.143 61.136 256.143L61.136 257.143C61.8106 257.143 62.4434 256.811 62.8975 256.357L62.1904 255.649ZM61.136 256.143L45.392 256.143L45.392 257.143L61.136 257.143L61.136 256.143ZM45.392 256.143C44.5161 256.143 43.716 255.343 43.716 254.467L42.716 254.467C42.716 255.895 43.9638 257.143 45.392 257.143L45.392 256.143ZM43.716 254.467L43.716 242.307L42.716 242.307L42.716 254.467L43.716 254.467ZM43.216 241.807L22.864 241.807L22.864 242.807L43.216 242.807L43.216 241.807ZM22.864 241.807C22.4667 241.807 22.0859 241.994 21.8704 242.209L22.5775 242.917C22.5887 242.905 22.6282 242.874 22.693 242.847C22.7556 242.82 22.8164 242.807 22.864 242.807L22.864 241.807ZM22.0004 242.116C21.5515 242.34 21.34 242.785 21.34 243.203L22.34 243.203C22.34 243.109 22.3844 243.042 22.4476 243.01L22.0004 242.116ZM21.34 243.203L21.34 258.179L22.34 258.179L22.34 243.203L21.34 243.203ZM21.34 258.179C21.34 259.055 20.6678 259.727 19.792 259.727L19.792 260.727C21.2201 260.727 22.34 259.607 22.34 258.179L21.34 258.179ZM19.792 259.727L4.04799 259.727L4.04799 260.727L19.792 260.727L19.792 259.727ZM4.04799 259.727C3.58189 259.727 3.10846 259.604 2.86554 259.361L2.15844 260.069C2.68352 260.594 3.49009 260.727 4.04799 260.727L4.04799 259.727ZM2.86554 259.361C2.62262 259.119 2.49999 258.645 2.49999 258.179L1.49999 258.179C1.49999 258.737 1.63335 259.543 2.15844 260.069L2.86554 259.361ZM2.49999 258.179L2.49999 227.203L1.49999 227.203L1.49999 258.179L2.49999 258.179ZM2.49999 227.203C2.49999 226.768 2.60838 226.406 2.86554 226.149L2.15844 225.441C1.6476 225.952 1.49999 226.614 1.49999 227.203L2.49999 227.203ZM2.86554 226.149C3.15471 225.859 3.66708 225.655 4.04799 225.655L4.04799 224.655C3.4049 224.655 2.63727 224.963 2.15844 225.441L2.86554 226.149ZM4.04799 225.655L99.152 225.655L99.152 224.655L4.04799 224.655L4.04799 225.655ZM99.152 225.655C99.6455 225.655 100.034 225.848 100.334 226.149L101.042 225.441C100.574 224.974 99.9385 224.655 99.152 224.655L99.152 225.655ZM100.334 226.149C100.648 226.462 100.828 226.854 100.828 227.203L101.828 227.203C101.828 226.528 101.496 225.896 101.042 225.441L100.334 226.149Z" fill="white"/>
</svg>
