<svg width="104" height="176" viewBox="0 0 104 176" fill="none" xmlns="http://www.w3.org/2000/svg">
<path d="M41.424 20.864L41.1467 20.448L41.0634 20.5034L41.008 20.5866L41.424 20.864ZM8.144 34.56L7.86664 34.976L7.86941 34.9779L8.144 34.56ZM8.144 5.888L8.41385 6.30896L8.41859 6.30585L8.144 5.888ZM95.056 5.888L94.7814 6.30588L94.7862 6.30894L95.056 5.888ZM95.056 34.56L95.3306 34.9779L95.3334 34.976L95.056 34.56ZM65.232 38.4L65.632 38.1L65.6107 38.0716L65.5856 38.0464L65.232 38.4ZM81.488 21.888L81.3299 21.4137L81.488 21.888ZM81.488 19.072L81.2849 19.5289L81.307 19.5387L81.3299 19.5463L81.488 19.072ZM21.712 19.072L21.8701 19.5463L21.893 19.5387L21.9151 19.5289L21.712 19.072ZM21.712 21.888L21.8701 21.4137L21.712 21.888ZM26.192 23.028L40.528 23.028L40.528 22.028L26.192 22.028L26.192 23.028ZM40.528 23.028C40.8419 23.028 41.071 22.8656 41.2064 22.6963C41.3292 22.5429 41.412 22.3396 41.412 22.144L40.412 22.144C40.412 22.1198 40.4148 22.1033 40.4165 22.0955C40.4182 22.087 40.42 22.082 40.4208 22.08C40.4219 22.0769 40.4229 22.0749 40.4256 22.0717C40.4285 22.068 40.4382 22.057 40.4579 22.0464C40.4798 22.0344 40.5053 22.028 40.528 22.028L40.528 23.028ZM41.412 22.144C41.412 21.8048 41.5733 21.5415 41.84 21.1413L41.008 20.5866C40.7627 20.9545 40.412 21.4592 40.412 22.144L41.412 22.144ZM41.7014 21.28C41.8742 21.1648 42.0712 21.0529 42.261 20.9716C42.4588 20.8868 42.6102 20.852 42.704 20.852L42.704 19.852C42.4138 19.852 42.1172 19.9452 41.867 20.0524C41.6088 20.1631 41.3578 20.3072 41.1467 20.448L41.7014 21.28ZM42.704 20.852L58.832 20.852L58.832 19.852L42.704 19.852L42.704 20.852ZM58.832 20.852C59.6694 20.852 60.38 21.6121 60.38 22.528L61.38 22.528C61.38 21.1399 60.2986 19.852 58.832 19.852L58.832 20.852ZM60.38 22.528L60.38 36.992L61.38 36.992L61.38 22.528L60.38 22.528ZM60.38 36.992C60.38 37.8679 59.7079 38.54 58.832 38.54L58.832 39.54C60.2601 39.54 61.38 38.4201 61.38 36.992L60.38 36.992ZM58.832 38.54L27.216 38.54L27.216 39.54L58.832 39.54L58.832 38.54ZM27.216 38.54C18.9496 38.54 12.7868 37.0127 8.41859 34.1421L7.86941 34.9779C12.4612 37.9953 18.8424 39.54 27.216 39.54L27.216 38.54ZM8.42135 34.144C3.57088 30.9103 1.092 26.3318 1.092 20.224L0.092002 20.224C0.0920017 26.6602 2.73311 31.5537 7.86665 34.976L8.42135 34.144ZM1.092 20.224C1.092 14.1103 3.57511 9.41068 8.41383 6.30894L7.87417 5.46706C2.72889 8.76531 0.0920023 13.7937 0.092002 20.224L1.092 20.224ZM8.41859 6.30585C12.7913 3.43233 18.9574 1.78 27.216 1.78L27.216 0.779996C18.8346 0.779996 12.4567 2.45566 7.86941 5.47014L8.41859 6.30585ZM27.216 1.78L75.984 1.78L75.984 0.779998L27.216 0.779996L27.216 1.78ZM75.984 1.78C84.2426 1.78 90.4087 3.43234 94.7814 6.30585L95.3306 5.47015C90.7433 2.45566 84.3654 0.779999 75.984 0.779998L75.984 1.78ZM94.7862 6.30894C99.6249 9.41068 102.108 14.1103 102.108 20.224L103.108 20.224C103.108 13.7937 100.471 8.76531 95.3258 5.46706L94.7862 6.30894ZM102.108 20.224C102.108 26.3318 99.6291 30.9103 94.7787 34.144L95.3334 34.976C100.467 31.5537 103.108 26.6602 103.108 20.224L102.108 20.224ZM94.7814 34.1421C90.4132 37.0127 84.2504 38.54 75.984 38.54L75.984 39.54C84.3576 39.54 90.7388 37.9953 95.3306 34.9779L94.7814 34.1421ZM75.984 38.54L66.768 38.54L66.768 39.54L75.984 39.54L75.984 38.54ZM66.768 38.54C66.3094 38.54 65.873 38.4213 65.632 38.1L64.832 38.7C65.359 39.4027 66.2026 39.54 66.768 39.54L66.768 38.54ZM65.5856 38.0464C65.3284 37.7893 65.22 37.4269 65.22 36.992L64.22 36.992C64.22 37.5811 64.3676 38.2427 64.8784 38.7536L65.5856 38.0464ZM65.22 36.992L65.22 24.576L64.22 24.576L64.22 36.992L65.22 36.992ZM65.22 24.576C65.22 23.7001 65.8921 23.028 66.768 23.028L66.768 22.028C65.3399 22.028 64.22 23.1479 64.22 24.576L65.22 24.576ZM66.768 23.028L76.88 23.028L76.88 22.028L66.768 22.028L66.768 23.028ZM76.88 23.028C78.8424 23.028 80.4334 22.7666 81.6461 22.3623L81.3299 21.4137C80.2387 21.7774 78.7576 22.028 76.88 22.028L76.88 23.028ZM81.6461 22.3623C82.1003 22.2109 82.4776 21.9713 82.7424 21.6403C83.0103 21.3055 83.14 20.9054 83.14 20.48L82.14 20.48C82.14 20.6946 82.0777 20.8705 81.9616 21.0157C81.8424 21.1647 81.6437 21.3091 81.3299 21.4137L81.6461 22.3623ZM83.14 20.48C83.14 20.0072 83.0191 19.594 82.7316 19.2586C82.4552 18.9361 82.0694 18.7387 81.6461 18.5977L81.3299 19.5463C81.6747 19.6613 81.8648 19.7839 81.9724 19.9094C82.0689 20.022 82.14 20.1848 82.14 20.48L83.14 20.48ZM81.6911 18.6151C80.433 18.0559 78.8007 17.932 76.88 17.932L76.88 18.932C78.7993 18.932 80.2391 19.0641 81.2849 19.5289L81.6911 18.6151ZM76.88 17.932L26.192 17.932L26.192 18.932L76.88 18.932L76.88 17.932ZM26.192 17.932C24.2662 17.932 22.765 18.0568 21.5089 18.6151L21.9151 19.5289C22.963 19.0632 24.2778 18.932 26.192 18.932L26.192 17.932ZM21.5539 18.5977C21.1306 18.7387 20.7448 18.9361 20.4684 19.2586C20.1809 19.594 20.06 20.0072 20.06 20.48L21.06 20.48C21.06 20.1848 21.1311 20.022 21.2276 19.9094C21.3352 19.7839 21.5254 19.6613 21.8701 19.5463L21.5539 18.5977ZM20.06 20.48C20.06 20.9053 20.1897 21.3055 20.4576 21.6403C20.7224 21.9713 21.0997 22.2109 21.5539 22.3623L21.8701 21.4137C21.5563 21.3091 21.3576 21.1647 21.2384 21.0156C21.1223 20.8705 21.06 20.6946 21.06 20.48L20.06 20.48ZM21.5539 22.3623C22.763 22.7654 24.2251 23.028 26.192 23.028L26.192 22.028C24.3189 22.028 22.965 21.7786 21.8701 21.4137L21.5539 22.3623ZM19.152 65.716L19.152 65.216L19.1233 65.216L19.0947 65.2193L19.152 65.716ZM19.28 59.828L19.2248 60.3249L19.2523 60.328L19.28 60.328L19.28 59.828ZM3.792 58.164L3.72997 58.6602L3.7391 58.6612L3.792 58.164ZM2.64 42.292L2.33999 41.892L2.31157 41.9133L2.28644 41.9384L2.64 42.292ZM4.304 41.78L4.36215 41.2834L4.33317 41.28L4.304 41.28L4.304 41.78ZM99.408 52.916L99.47 52.4198L99.4662 52.4194L99.408 52.916ZM99.408 73.396L99.4662 73.8926L99.47 73.8921L99.408 73.396ZM4.304 84.532L4.304 85.032L4.33317 85.032L4.36215 85.0286L4.304 84.532ZM2.64 84.02L2.28644 84.3736L2.31157 84.3987L2.33999 84.42L2.64 84.02ZM3.792 67.38L3.73909 66.8827L3.72998 66.8839L3.792 67.38ZM36.944 65.46L36.944 65.96L36.9694 65.96L36.9947 65.9574L36.944 65.46ZM50.768 64.052L50.768 63.552L50.7426 63.552L50.7173 63.5546L50.768 64.052ZM50.768 62.26L50.7173 62.7574L50.7426 62.76L50.768 62.76L50.768 62.26ZM36.944 60.852L36.9947 60.3546L36.9694 60.352L36.944 60.352L36.944 60.852ZM36.176 61.108L36.5295 61.4616L36.5296 61.4616L36.176 61.108ZM36.176 65.204L36.5296 64.8504L36.5296 64.8504L36.176 65.204ZM19.152 66.216C19.9401 66.216 20.548 65.6081 20.548 64.82L19.548 64.82C19.548 65.0559 19.3879 65.216 19.152 65.216L19.152 66.216ZM20.548 64.82L20.548 60.724L19.548 60.724L19.548 64.82L20.548 64.82ZM20.548 60.724C20.548 59.9867 19.9884 59.328 19.28 59.328L19.28 60.328C19.3052 60.328 19.369 60.3437 19.4364 60.4185C19.4999 60.4891 19.548 60.5947 19.548 60.724L20.548 60.724ZM19.3352 59.3311C17.606 59.1389 13.7328 58.7228 10.2932 58.3548C8.5731 58.1708 6.96103 57.9988 5.779 57.8728C5.18798 57.8098 4.70446 57.7583 4.36869 57.7226C4.2008 57.7047 4.06986 57.6907 3.98088 57.6813C3.93639 57.6765 3.90239 57.6729 3.87952 57.6705C3.86809 57.6693 3.85943 57.6683 3.85363 57.6677C3.85073 57.6674 3.84855 57.6672 3.84709 57.667C3.84636 57.667 3.84581 57.6669 3.84544 57.6669C3.84526 57.6668 3.84512 57.6668 3.84503 57.6668C3.84494 57.6668 3.84489 57.6668 3.792 58.164C3.7391 58.6612 3.73915 58.6612 3.73924 58.6612C3.73933 58.6612 3.73947 58.6612 3.73965 58.6612C3.74002 58.6613 3.74057 58.6613 3.74129 58.6614C3.74275 58.6616 3.74494 58.6618 3.74783 58.6621C3.75363 58.6627 3.76228 58.6637 3.77372 58.6649C3.79658 58.6673 3.83057 58.6709 3.87505 58.6757C3.96401 58.6851 4.09495 58.6991 4.26281 58.7169C4.59854 58.7527 5.08202 58.8042 5.673 58.8672C6.85496 58.9932 8.46689 59.1652 10.1868 59.3492C13.6272 59.7172 17.498 60.1331 19.2248 60.3249L19.3352 59.3311ZM3.85402 57.6679C3.0868 57.572 2.5 56.8945 2.5 56.116L1.5 56.116C1.5 57.3855 2.44919 58.5 3.72998 58.6601L3.85402 57.6679ZM2.5 56.116L2.5 43.828L1.5 43.828L1.5 56.116L2.5 56.116ZM2.5 43.828C2.5 43.4471 2.70438 42.9347 2.99355 42.6455L2.28644 41.9384C1.80762 42.4173 1.5 43.1849 1.5 43.828L2.5 43.828ZM2.94 42.692C3.34646 42.3871 3.74576 42.28 4.304 42.28L4.304 41.28C3.58224 41.28 2.95754 41.4288 2.33999 41.892L2.94 42.692ZM4.24585 42.2766L99.3499 53.4126L99.4662 52.4194L4.36215 41.2834L4.24585 42.2766ZM99.346 53.4121C100.156 53.5134 100.828 54.2269 100.828 54.964L101.828 54.964C101.828 53.6531 100.708 52.5746 99.47 52.4199L99.346 53.4121ZM100.828 54.964L100.828 71.348L101.828 71.348L101.828 54.964L100.828 54.964ZM100.828 71.348C100.828 72.0851 100.156 72.7986 99.346 72.8999L99.47 73.8921C100.708 73.7374 101.828 72.6589 101.828 71.348L100.828 71.348ZM99.3499 72.8994L4.24585 84.0354L4.36215 85.0286L99.4662 73.8926L99.3499 72.8994ZM4.304 84.032C3.74575 84.032 3.34645 83.9248 2.94 83.62L2.33999 84.42C2.95753 84.8832 3.58223 85.032 4.304 85.032L4.304 84.032ZM2.99355 83.6664C2.70438 83.3773 2.5 82.8649 2.5 82.484L1.5 82.484C1.5 83.1271 1.80761 83.8947 2.28644 84.3736L2.99355 83.6664ZM2.5 82.484L2.5 69.428L1.5 69.428L1.5 82.484L2.5 82.484ZM2.5 69.428C2.5 68.6495 3.0868 67.972 3.85402 67.8761L3.72998 66.8839C2.44919 67.044 1.5 68.1585 1.5 69.428L2.5 69.428ZM3.792 67.38C3.84489 67.8772 3.84494 67.8772 3.84503 67.8772C3.84512 67.8772 3.84526 67.8772 3.84544 67.8771C3.84581 67.8771 3.84636 67.877 3.84709 67.877C3.84855 67.8768 3.85074 67.8766 3.85363 67.8763C3.85943 67.8756 3.86809 67.8747 3.87953 67.8735C3.9024 67.8711 3.93639 67.8674 3.98087 67.8627C4.06982 67.8532 4.20071 67.8393 4.36847 67.8214C4.70401 67.7857 5.18705 67.7342 5.77708 67.6712C6.95716 67.5452 8.56528 67.3731 10.2774 67.1891C13.7007 66.8212 17.5429 66.405 19.2093 66.2127L19.0947 65.2193C17.4331 65.411 13.5953 65.8268 10.1706 66.1949C8.45871 66.3788 6.85083 66.5508 5.67091 66.6768C5.08095 66.7398 4.59799 66.7913 4.26252 66.8271C4.09478 66.8449 3.96393 66.8589 3.875 66.8683C3.83054 66.8731 3.79656 66.8767 3.7737 66.8791C3.76227 66.8803 3.75362 66.8813 3.74783 66.8819C3.74493 66.8822 3.74275 66.8824 3.74129 66.8826C3.74057 66.8826 3.74002 66.8827 3.73965 66.8827C3.73947 66.8828 3.73933 66.8828 3.73924 66.8828C3.73915 66.8828 3.7391 66.8828 3.792 67.38ZM36.9947 65.9574L50.8187 64.5494L50.7173 63.5546L36.8933 64.9626L36.9947 65.9574ZM50.768 64.552C51.5561 64.552 52.164 63.9441 52.164 63.156L51.164 63.156C51.164 63.3919 51.0039 63.552 50.768 63.552L50.768 64.552ZM52.164 63.156C52.164 62.3679 51.5561 61.76 50.768 61.76L50.768 62.76C51.0039 62.76 51.164 62.9201 51.164 63.156L52.164 63.156ZM50.8187 61.7626L36.9947 60.3546L36.8933 61.3494L50.7173 62.7574L50.8187 61.7626ZM36.944 60.352C36.6806 60.352 36.2339 60.343 35.8224 60.7544L36.5296 61.4616C36.5921 61.399 36.6393 61.3796 36.6813 61.3691C36.74 61.3544 36.8067 61.352 36.944 61.352L36.944 60.352ZM35.8225 60.7544C35.607 60.9699 35.42 61.3507 35.42 61.748L36.42 61.748C36.42 61.7004 36.4327 61.6396 36.4596 61.577C36.4873 61.5122 36.5184 61.4727 36.5295 61.4616L35.8225 60.7544ZM35.42 61.748L35.42 64.564L36.42 64.564L36.42 61.748L35.42 61.748ZM35.42 64.564C35.42 64.9613 35.607 65.3421 35.8224 65.5576L36.5296 64.8504C36.5184 64.8393 36.4873 64.7998 36.4596 64.735C36.4327 64.6724 36.42 64.6116 36.42 64.564L35.42 64.564ZM35.8224 65.5576C36.2339 65.969 36.6806 65.96 36.944 65.96L36.944 64.96C36.8067 64.96 36.74 64.9576 36.6813 64.9429C36.6393 64.9324 36.5921 64.913 36.5296 64.8504L35.8224 65.5576ZM3.79199 117.616L3.86132 117.121L3.85401 117.12L3.79199 117.616ZM3.792 106.736L3.73242 106.24L3.72998 106.24L3.792 106.736ZM31.824 103.152L31.8885 103.648L31.824 102.652L31.824 103.152ZM4.04799 103.024L4.05743 102.524L4.04799 102.524L4.04799 103.024ZM2.512 87.92L2.86555 88.2735L2.512 87.92ZM99.408 108.784L99.4463 109.283L99.4582 109.282L99.47 109.28L99.408 108.784ZM59.216 112.24L59.172 111.742L59.172 112.738L59.216 112.24ZM99.408 115.696L99.47 115.2L99.4582 115.198L99.4463 115.197L99.408 115.696ZM100.688 136.56L100.334 136.206L100.334 136.206L100.688 136.56ZM2.512 136.56L2.86555 136.206L2.512 136.56ZM4.04799 121.328L4.04799 120.828L4.0203 120.828L3.99278 120.831L4.04799 121.328ZM31.824 121.2L31.827 121.7L31.8857 120.704L31.824 121.2ZM3.85401 117.12C3.06724 117.022 2.49999 116.455 2.49999 115.568L1.49999 115.568C1.49999 116.985 2.46874 117.954 3.72998 118.112L3.85401 117.12ZM2.49999 115.568L2.5 108.912L1.5 108.912L1.49999 115.568L2.49999 115.568ZM2.5 108.912C2.5 107.986 3.10495 107.326 3.85401 107.232L3.72998 106.24C2.43104 106.402 1.5 107.534 1.5 108.912L2.5 108.912ZM3.85157 107.232C7.05422 106.848 14.0647 105.952 20.2719 105.152C23.3761 104.752 26.2802 104.376 28.4083 104.1C29.4724 103.962 30.3424 103.849 30.9464 103.77C31.2485 103.731 31.484 103.7 31.644 103.68C31.724 103.669 31.7851 103.661 31.8263 103.656C31.8468 103.653 31.8624 103.651 31.8728 103.65C31.878 103.649 31.882 103.649 31.8846 103.648C31.8859 103.648 31.8869 103.648 31.8876 103.648C31.8879 103.648 31.8881 103.648 31.8883 103.648C31.8885 103.648 31.8885 103.648 31.824 103.152C31.7595 102.656 31.7594 102.656 31.7592 102.656C31.759 102.656 31.7588 102.656 31.7585 102.656C31.7578 102.656 31.7568 102.657 31.7555 102.657C31.7529 102.657 31.749 102.658 31.7438 102.658C31.7333 102.66 31.7178 102.662 31.6972 102.664C31.6561 102.67 31.595 102.678 31.515 102.688C31.355 102.709 31.1195 102.739 30.8176 102.779C30.2136 102.857 29.3436 102.97 28.2797 103.108C26.1518 103.384 23.2479 103.76 20.1441 104.16C13.9353 104.96 6.92977 105.856 3.73242 106.24L3.85157 107.232ZM31.824 103.152C31.824 102.652 31.8239 102.652 31.8238 102.652C31.8236 102.652 31.8234 102.652 31.823 102.652C31.8224 102.652 31.8215 102.652 31.8202 102.652C31.8176 102.652 31.8138 102.652 31.8088 102.652C31.7987 102.652 31.7836 102.652 31.7636 102.652C31.7237 102.652 31.6644 102.652 31.5867 102.652C31.4313 102.652 31.2025 102.652 30.909 102.652C30.3218 102.651 29.4754 102.651 28.4385 102.65C26.3647 102.648 23.529 102.644 20.4813 102.636C14.3841 102.62 7.44453 102.588 4.05743 102.524L4.03856 103.524C7.43547 103.588 14.3839 103.62 20.4787 103.636C23.527 103.644 26.3633 103.648 28.4375 103.65C29.4746 103.651 30.3212 103.651 30.9085 103.652C31.2022 103.652 31.431 103.652 31.5865 103.652C31.6642 103.652 31.7236 103.652 31.7635 103.652C31.7835 103.652 31.7986 103.652 31.8087 103.652C31.8138 103.652 31.8176 103.652 31.8202 103.652C31.8214 103.652 31.8224 103.652 31.823 103.652C31.8234 103.652 31.8236 103.652 31.8238 103.652C31.8239 103.652 31.824 103.652 31.824 103.152ZM4.04799 102.524C3.17214 102.524 2.5 101.852 2.5 100.976L1.5 100.976C1.5 102.404 2.61985 103.524 4.04799 103.524L4.04799 102.524ZM2.5 100.976L2.5 89.328L1.5 89.328L1.5 100.976L2.5 100.976ZM2.5 89.328C2.5 88.8931 2.60839 88.5307 2.86555 88.2735L2.15844 87.5664C1.6476 88.0773 1.5 88.7389 1.5 89.328L2.5 89.328ZM2.86555 88.2735C3.15472 87.9844 3.66709 87.78 4.04799 87.78L4.04799 86.78C3.4049 86.78 2.63728 87.0876 2.15844 87.5664L2.86555 88.2735ZM4.04799 87.78L99.152 87.78L99.152 86.78L4.04799 86.78L4.04799 87.78ZM99.152 87.78C99.6455 87.78 100.034 87.973 100.334 88.2736L101.042 87.5664C100.574 87.099 99.9385 86.78 99.152 86.78L99.152 87.78ZM100.334 88.2736C100.648 88.5874 100.828 88.9786 100.828 89.328L101.828 89.328C101.828 88.6534 101.496 88.0206 101.042 87.5664L100.334 88.2736ZM100.828 89.328L100.828 106.608L101.828 106.608L101.828 89.328L100.828 89.328ZM100.828 106.608C100.828 107.491 100.136 108.189 99.346 108.288L99.47 109.28C100.728 109.123 101.828 108.029 101.828 106.608L100.828 106.608ZM99.3697 108.285C95.2065 108.606 85.1556 109.47 76.1486 110.254C71.6445 110.646 67.4003 111.018 64.2822 111.292C62.7232 111.429 61.4456 111.541 60.5578 111.62C60.114 111.659 59.7675 111.689 59.532 111.71C59.4143 111.721 59.3243 111.728 59.2637 111.734C59.2334 111.737 59.2105 111.739 59.1951 111.74C59.1875 111.741 59.1817 111.741 59.1778 111.741C59.1759 111.742 59.1744 111.742 59.1735 111.742C59.173 111.742 59.1726 111.742 59.1724 111.742C59.1721 111.742 59.172 111.742 59.216 112.24C59.26 112.738 59.2601 112.738 59.2604 112.738C59.2606 112.738 59.261 112.738 59.2615 112.738C59.2624 112.738 59.2639 112.738 59.2658 112.738C59.2697 112.737 59.2755 112.737 59.2831 112.736C59.2985 112.735 59.3214 112.733 59.3517 112.73C59.4122 112.725 59.5022 112.717 59.6199 112.706C59.8554 112.685 60.2018 112.655 60.6457 112.616C61.5334 112.538 62.8108 112.425 64.3698 112.288C67.4877 112.014 71.7315 111.642 76.2354 111.25C85.2444 110.466 95.2895 109.602 99.4463 109.283L99.3697 108.285ZM59.216 112.24C59.172 112.738 59.1721 112.738 59.1724 112.738C59.1726 112.738 59.173 112.738 59.1735 112.738C59.1744 112.738 59.1759 112.738 59.1778 112.739C59.1817 112.739 59.1875 112.739 59.1951 112.74C59.2105 112.741 59.2334 112.743 59.2637 112.746C59.3243 112.752 59.4143 112.759 59.532 112.77C59.7675 112.791 60.114 112.821 60.5578 112.86C61.4456 112.939 62.7232 113.051 64.2822 113.188C67.4003 113.462 71.6445 113.834 76.1486 114.226C85.1556 115.01 95.2065 115.874 99.3697 116.195L99.4463 115.197C95.2895 114.878 85.2444 114.014 76.2354 113.23C71.7315 112.838 67.4877 112.466 64.3698 112.192C62.8108 112.055 61.5334 111.942 60.6457 111.864C60.2018 111.825 59.8554 111.794 59.6199 111.774C59.5022 111.763 59.4122 111.755 59.3517 111.75C59.3214 111.747 59.2985 111.745 59.2831 111.744C59.2755 111.743 59.2697 111.743 59.2658 111.742C59.2639 111.742 59.2624 111.742 59.2615 111.742C59.261 111.742 59.2606 111.742 59.2604 111.742C59.2601 111.742 59.26 111.742 59.216 112.24ZM99.346 116.192C100.156 116.293 100.828 117.007 100.828 117.744L101.828 117.744C101.828 116.433 100.708 115.355 99.47 115.2L99.346 116.192ZM100.828 117.744L100.828 135.152L101.828 135.152L101.828 117.744L100.828 117.744ZM100.828 135.152C100.828 135.501 100.648 135.893 100.334 136.206L101.042 136.914C101.496 136.459 101.828 135.827 101.828 135.152L100.828 135.152ZM100.334 136.206C100.034 136.507 99.6455 136.7 99.152 136.7L99.152 137.7C99.9385 137.7 100.574 137.381 101.042 136.914L100.334 136.206ZM99.152 136.7L4.04799 136.7L4.04799 137.7L99.152 137.7L99.152 136.7ZM4.04799 136.7C3.66709 136.7 3.15471 136.496 2.86555 136.206L2.15844 136.914C2.63728 137.392 3.4049 137.7 4.04799 137.7L4.04799 136.7ZM2.86555 136.206C2.60838 135.949 2.49999 135.587 2.49999 135.152L1.49999 135.152C1.49999 135.741 1.6476 136.403 2.15844 136.914L2.86555 136.206ZM2.49999 135.152L2.49999 123.504L1.49999 123.504L1.49999 135.152L2.49999 135.152ZM2.49999 123.504C2.49999 122.637 3.17357 121.928 4.10321 121.825L3.99278 120.831C2.61842 120.984 1.49999 122.067 1.49999 123.504L2.49999 123.504ZM4.04799 121.828C7.44158 121.828 14.387 121.796 20.4826 121.764C23.5307 121.748 26.3668 121.732 28.4409 121.72C29.4779 121.714 30.3244 121.709 30.9117 121.705C31.2054 121.704 31.4342 121.702 31.5896 121.701C31.6673 121.701 31.7267 121.701 31.7666 121.7C31.7866 121.7 31.8017 121.7 31.8118 121.7C31.8169 121.7 31.8207 121.7 31.8232 121.7C31.8245 121.7 31.8254 121.7 31.8261 121.7C31.8264 121.7 31.8266 121.7 31.8268 121.7C31.827 121.7 31.827 121.7 31.824 121.2C31.8209 120.7 31.8209 120.7 31.8207 120.7C31.8206 120.7 31.8203 120.7 31.82 120.7C31.8194 120.7 31.8184 120.7 31.8171 120.7C31.8146 120.7 31.8108 120.7 31.8057 120.7C31.7956 120.7 31.7805 120.7 31.7605 120.7C31.7206 120.701 31.6613 120.701 31.5836 120.701C31.4282 120.702 31.1994 120.704 30.9058 120.706C30.3185 120.709 29.4721 120.714 28.4351 120.72C26.3612 120.732 23.5253 120.748 20.4774 120.764C14.381 120.796 7.43841 120.828 4.04799 120.828L4.04799 121.828ZM31.824 121.2C31.8857 120.704 31.8856 120.704 31.8854 120.704C31.8852 120.704 31.885 120.704 31.8847 120.704C31.884 120.704 31.883 120.703 31.8817 120.703C31.8791 120.703 31.8752 120.703 31.87 120.702C31.8596 120.701 31.844 120.699 31.8234 120.696C31.7823 120.691 31.7212 120.683 31.6412 120.673C31.4813 120.654 31.2458 120.624 30.9438 120.587C30.3399 120.511 29.4699 120.403 28.406 120.27C26.2782 120.004 23.3744 119.64 20.2706 119.248C14.0615 118.464 7.05725 117.568 3.86132 117.121L3.72267 118.111C6.92675 118.56 13.9385 119.456 20.1453 120.24C23.2496 120.632 26.1538 120.996 28.282 121.262C29.3461 121.395 30.2161 121.504 30.8202 121.579C31.1222 121.617 31.3577 121.646 31.5178 121.666C31.5978 121.676 31.6589 121.683 31.7001 121.688C31.7206 121.691 31.7362 121.693 31.7466 121.694C31.7518 121.695 31.7558 121.695 31.7584 121.696C31.7597 121.696 31.7607 121.696 31.7613 121.696C31.7617 121.696 31.7619 121.696 31.7621 121.696C31.7623 121.696 31.7623 121.696 31.824 121.2ZM100.688 174.465L100.334 174.111L100.334 174.111L100.688 174.465ZM62.544 170.753L62.8975 171.107L62.544 170.753ZM43.216 157.057L43.716 157.057L43.716 156.557L43.216 156.557L43.216 157.057ZM22.224 157.313L22.4476 157.76L22.5202 157.724L22.5775 157.667L22.224 157.313ZM2.51199 174.465L2.86555 174.111L2.51199 174.465ZM2.51199 140.545L2.86555 140.899L2.51199 140.545ZM100.828 141.953L100.828 172.929L101.828 172.929L101.828 141.953L100.828 141.953ZM100.828 172.929C100.828 173.31 100.624 173.822 100.334 174.111L101.042 174.819C101.52 174.34 101.828 173.572 101.828 172.929L100.828 172.929ZM100.334 174.111C100.085 174.361 99.7311 174.477 99.152 174.477L99.152 175.477C99.8529 175.477 100.523 175.337 101.042 174.819L100.334 174.111ZM99.152 174.477L83.408 174.477L83.408 175.477L99.152 175.477L99.152 174.477ZM83.408 174.477C82.5321 174.477 81.86 173.805 81.86 172.929L80.86 172.929C80.86 174.357 81.9799 175.477 83.408 175.477L83.408 174.477ZM81.86 172.929L81.86 157.953L80.86 157.953L80.86 172.929L81.86 172.929ZM81.86 157.953C81.86 157.52 81.6423 157.164 81.3601 156.929C81.0805 156.696 80.7118 156.557 80.336 156.557L80.336 157.557C80.4722 157.557 80.6155 157.61 80.7199 157.697C80.8217 157.782 80.86 157.874 80.86 157.953L81.86 157.953ZM80.336 156.557L64.208 156.557L64.208 157.557L80.336 157.557L80.336 156.557ZM64.208 156.557C63.7882 156.557 63.4044 156.684 63.1197 156.943C62.8321 157.204 62.684 157.566 62.684 157.953L63.684 157.953C63.684 157.828 63.7279 157.742 63.7923 157.683C63.8596 157.622 63.9878 157.557 64.208 157.557L64.208 156.557ZM62.684 157.953L62.684 169.217L63.684 169.217L63.684 157.953L62.684 157.953ZM62.684 169.217C62.684 169.711 62.491 170.099 62.1904 170.399L62.8975 171.107C63.365 170.639 63.684 170.003 63.684 169.217L62.684 169.217ZM62.1904 170.399C61.8766 170.713 61.4854 170.893 61.136 170.893L61.136 171.893C61.8106 171.893 62.4434 171.561 62.8975 171.107L62.1904 170.399ZM61.136 170.893L45.392 170.893L45.392 171.893L61.136 171.893L61.136 170.893ZM45.392 170.893C44.5161 170.893 43.716 170.093 43.716 169.217L42.716 169.217C42.716 170.645 43.9639 171.893 45.392 171.893L45.392 170.893ZM43.716 169.217L43.716 157.057L42.716 157.057L42.716 169.217L43.716 169.217ZM43.216 156.557L22.864 156.557L22.864 157.557L43.216 157.557L43.216 156.557ZM22.864 156.557C22.4667 156.557 22.0859 156.744 21.8704 156.959L22.5775 157.667C22.5887 157.655 22.6282 157.624 22.693 157.597C22.7556 157.57 22.8164 157.557 22.864 157.557L22.864 156.557ZM22.0004 156.866C21.5515 157.09 21.34 157.535 21.34 157.953L22.34 157.953C22.34 157.859 22.3844 157.792 22.4476 157.76L22.0004 156.866ZM21.34 157.953L21.34 172.929L22.34 172.929L22.34 157.953L21.34 157.953ZM21.34 172.929C21.34 173.805 20.6678 174.477 19.792 174.477L19.792 175.477C21.2201 175.477 22.34 174.357 22.34 172.929L21.34 172.929ZM19.792 174.477L4.04799 174.477L4.04799 175.477L19.792 175.477L19.792 174.477ZM4.04799 174.477C3.58189 174.477 3.10847 174.354 2.86555 174.111L2.15844 174.819C2.68353 175.344 3.4901 175.477 4.04799 175.477L4.04799 174.477ZM2.86555 174.111C2.62263 173.869 2.49999 173.395 2.49999 172.929L1.49999 172.929C1.49999 173.487 1.63335 174.293 2.15844 174.819L2.86555 174.111ZM2.49999 172.929L2.49999 141.953L1.49999 141.953L1.49999 172.929L2.49999 172.929ZM2.49999 141.953C2.49999 141.518 2.60838 141.156 2.86555 140.899L2.15844 140.191C1.6476 140.702 1.49999 141.364 1.49999 141.953L2.49999 141.953ZM2.86555 140.899C3.15472 140.609 3.66709 140.405 4.04799 140.405L4.04799 139.405C3.4049 139.405 2.63728 139.713 2.15844 140.191L2.86555 140.899ZM4.04799 140.405L99.152 140.405L99.152 139.405L4.04799 139.405L4.04799 140.405ZM99.152 140.405C99.6455 140.405 100.034 140.598 100.334 140.899L101.042 140.191C100.574 139.724 99.9385 139.405 99.152 139.405L99.152 140.405ZM100.334 140.899C100.648 141.212 100.828 141.604 100.828 141.953L101.828 141.953C101.828 141.278 101.496 140.646 101.042 140.191L100.334 140.899Z" fill="white"/>
</svg>
