<svg width="88" height="27" viewBox="0 0 88 27" fill="none" xmlns="http://www.w3.org/2000/svg">
<path d="M84.348 26.7387C84.8271 26.7392 85.3016 26.6438 85.7444 26.4579C86.1873 26.272 86.5897 25.9993 86.9288 25.6554C87.268 25.3115 87.5371 24.9031 87.7209 24.4534C87.9047 24.0038 87.9995 23.5218 88 23.0349C88.0005 22.548 87.9066 22.0658 87.7237 21.6158C87.5408 21.1658 87.2725 20.7568 86.934 20.4122C86.5956 20.0676 86.1937 19.7941 85.7512 19.6073C85.3088 19.4206 84.8344 19.3242 84.3553 19.3237C83.3877 19.3227 82.4594 19.7124 81.7745 20.407C81.0896 21.1015 80.7043 22.0442 80.7033 23.0275C80.7024 24.0107 81.0858 24.9542 81.7693 25.6501C82.4528 26.3461 83.3804 26.7377 84.348 26.7387ZM80.696 12.9334H77.5793C75.5773 12.9334 74.4993 14.4611 74.4993 17.0023V26.1909H68.596V12.9334H66.088C64.0823 12.9334 63.008 14.4611 63.008 17.0023V26.1909H57.1047V8.0298H63.008V10.7871C63.976 8.64834 65.3033 8.0298 67.2723 8.0298H74.503V10.7871C75.471 8.64834 76.7947 8.0298 78.7637 8.0298H80.696V12.9334ZM55.814 18.5263H43.4977C43.8203 20.5608 45.0743 21.7233 47.1863 21.7233C48.763 21.7233 49.8703 21.0712 50.2297 19.9087L55.4547 21.3991C54.1677 24.5589 50.9813 26.4816 47.1863 26.4816C40.777 26.4816 37.84 21.4327 37.84 17.1104C37.84 12.8626 40.4177 7.77642 46.8233 7.77642C53.6287 7.77642 55.8837 12.9334 55.8837 16.7489C55.8837 17.5836 55.847 18.1276 55.8103 18.5263H55.814ZM50.0867 15.0051C49.94 13.4401 48.8327 11.9869 46.827 11.9869C44.9643 11.9869 43.857 12.8253 43.4977 15.0051H50.0867ZM27.5293 26.1872H32.7213L39.2003 8.02608H33.2603L30.107 18.5971L26.8877 8.02608H20.9733L27.5293 26.1872ZM3.32933 26.1872H9.20333V12.9297H14.7913V26.1872H20.625V8.02608H9.20333V6.90079C9.20333 5.66371 10.065 4.90358 11.4253 4.90358H14.7913V0H10.45C6.18933 0 3.32567 2.653 3.32567 6.53935V8.0298H0V12.9334H3.32933V26.1909V26.1872Z" fill="white"/>
</svg>
