<svg width="104" height="271" viewBox="0 0 104 271" fill="none" xmlns="http://www.w3.org/2000/svg">
<path d="M93.904 34.432L93.6292 34.0143L93.6267 34.016L93.904 34.432ZM46.928 34.432L46.648 34.8464L46.6564 34.8518L46.928 34.432ZM39.632 18.432L40.132 18.432L40.132 17.932L39.632 17.932L39.632 18.432ZM2.512 17.792L2.15845 18.1456L2.512 17.792ZM2.512 1.92L2.86555 2.27355L2.512 1.92ZM81.104 18.56L81.5512 18.3364L81.4767 18.1873L81.3276 18.1128L81.104 18.56ZM59.856 18.56L59.6324 18.1128L59.4833 18.1873L59.4088 18.3364L59.856 18.56ZM100.828 3.328L100.828 19.968L101.828 19.968L101.828 3.328L100.828 3.328ZM100.828 19.968C100.828 26.2133 98.3417 30.914 93.6292 34.0143L94.1788 34.8497C99.1944 31.55 101.828 26.5227 101.828 19.968L100.828 19.968ZM93.6267 34.016C89.5132 36.7583 83.3501 38.412 75.088 38.412L75.088 39.412C83.4659 39.412 89.8468 37.7377 94.1814 34.848L93.6267 34.016ZM75.088 38.412L65.872 38.412L65.872 39.412L75.088 39.412L75.088 38.412ZM65.872 38.412C57.6122 38.412 51.4449 36.7592 47.1996 34.0122L46.6564 34.8518C51.1151 37.7368 57.4918 39.412 65.872 39.412L65.872 38.412ZM47.2079 34.0177C42.6198 30.9176 40.132 26.2147 40.132 19.968L39.132 19.968C39.132 26.5212 41.7642 31.5464 46.6481 34.8463L47.2079 34.0177ZM40.132 19.968L40.132 18.432L39.132 18.432L39.132 19.968L40.132 19.968ZM39.632 17.932L4.048 17.932L4.048 18.932L39.632 18.932L39.632 17.932ZM4.048 17.932C3.66709 17.932 3.15472 17.7276 2.86555 17.4384L2.15845 18.1456C2.63728 18.6244 3.40491 18.932 4.048 18.932L4.048 17.932ZM2.86555 17.4384C2.60839 17.1813 2.5 16.8189 2.5 16.384L1.5 16.384C1.5 16.9731 1.64761 17.6347 2.15845 18.1456L2.86555 17.4384ZM2.5 16.384L2.5 3.328L1.5 3.328L1.5 16.384L2.5 16.384ZM2.5 3.328C2.5 2.89307 2.60839 2.53071 2.86555 2.27355L2.15845 1.56644C1.64761 2.07728 1.5 2.73892 1.5 3.328L2.5 3.328ZM2.86555 2.27355C3.15472 1.98438 3.66709 1.78 4.048 1.78L4.048 0.779995C3.40491 0.779995 2.63728 1.08761 2.15845 1.56644L2.86555 2.27355ZM4.048 1.78L99.152 1.78L99.152 0.779999L4.048 0.779995L4.048 1.78ZM99.152 1.78C100.068 1.78 100.828 2.49057 100.828 3.328L101.828 3.328C101.828 1.86143 100.54 0.779999 99.152 0.779999L99.152 1.78ZM59.1 19.072L59.1 19.584L60.1 19.584L60.1 19.072L59.1 19.072ZM59.1 19.584C59.1 20.4824 59.5911 21.2589 60.3096 21.7932C61.0284 22.3277 61.9996 22.644 63.056 22.644L63.056 21.644C62.1924 21.644 61.4356 21.3843 60.9064 20.9908C60.3769 20.5971 60.1 20.0936 60.1 19.584L59.1 19.584ZM63.056 22.644L77.776 22.644L77.776 21.644L63.056 21.644L63.056 22.644ZM77.776 22.644C78.8311 22.644 79.8298 22.3285 80.5767 21.8002C81.3205 21.2742 81.86 20.4983 81.86 19.584L80.86 19.584C80.86 20.0777 80.5675 20.5818 79.9993 20.9838C79.4342 21.3835 78.6409 21.644 77.776 21.644L77.776 22.644ZM81.86 19.584L81.86 19.072L80.86 19.072L80.86 19.584L81.86 19.584ZM81.86 19.072C81.86 18.8524 81.7513 18.6777 81.7087 18.6068C81.6476 18.5048 81.6038 18.4415 81.5512 18.3364L80.6568 18.7836C80.7322 18.9345 80.8164 19.0632 80.8513 19.1212C80.8725 19.1567 80.8765 19.1664 80.8757 19.1644C80.8736 19.1593 80.86 19.125 80.86 19.072L81.86 19.072ZM81.3276 18.1128C80.9514 17.9247 80.5794 17.932 80.336 17.932L80.336 18.932C80.6046 18.932 80.7446 18.9393 80.8804 19.0072L81.3276 18.1128ZM80.336 17.932L60.496 17.932L60.496 18.932L80.336 18.932L80.336 17.932ZM60.496 17.932C60.3778 17.932 60.2383 17.9307 60.0938 17.9548C59.9369 17.981 59.7929 18.0325 59.6324 18.1128L60.0796 19.0072C60.1751 18.9595 60.2231 18.947 60.2582 18.9412C60.3057 18.9333 60.3582 18.932 60.496 18.932L60.496 17.932ZM59.4088 18.3364C59.3562 18.4415 59.3124 18.5048 59.2513 18.6067C59.2087 18.6777 59.1 18.8524 59.1 19.072L60.1 19.072C60.1 19.125 60.0864 19.1593 60.0843 19.1644C60.0835 19.1664 60.0875 19.1567 60.1087 19.1212C60.1436 19.0632 60.2278 18.9345 60.3032 18.7836L59.4088 18.3364ZM52.816 74.295L53.1425 73.9163L52.8058 73.6261L52.4781 73.9264L52.816 74.295ZM46.928 77.623L46.7774 77.1461L46.7699 77.1487L46.928 77.623ZM10.448 79.543L10.4065 79.0447L10.4027 79.0451L10.448 79.543ZM6.35199 80.311L6.20832 79.8321L6.20495 79.8331L6.35199 80.311ZM4.688 80.823L4.54095 80.3451L4.52134 80.3511L4.5023 80.3588L4.688 80.823ZM2.76799 80.567L2.468 80.967L2.76799 80.567ZM3.536 63.543L3.39863 63.0622L3.536 63.543ZM4.432 63.287L4.56939 63.7679L4.57904 63.7649L4.432 63.287ZM40.784 61.239L41.0234 61.6779L41.0324 61.673L41.0412 61.6677L40.784 61.239ZM41.68 58.807L42.18 58.807L42.18 58.307L41.68 58.307L41.68 58.807ZM2.512 58.167L2.15844 58.5205L2.15844 58.5206L2.512 58.167ZM2.512 42.295L2.86555 42.6485L2.512 42.295ZM94.672 74.935L94.9614 75.3428L94.9661 75.3394L94.672 74.935ZM81.104 58.935L81.4576 58.5814L81.4002 58.5241L81.3276 58.4878L81.104 58.935ZM59.856 58.935L59.6324 58.4878L59.5598 58.5241L59.5024 58.5814L59.856 58.935ZM52.4781 73.9264C50.9974 75.2837 49.1418 76.3996 46.7774 77.1462L47.0786 78.0998C49.5782 77.3104 51.5626 76.1223 53.1539 74.6636L52.4781 73.9264ZM46.7699 77.1487C43.39 78.2753 38.7175 78.787 32.848 78.787L32.848 79.787C38.7545 79.787 43.554 79.2747 47.0861 78.0973L46.7699 77.1487ZM32.848 78.787L16.592 78.787L16.592 79.787L32.848 79.787L32.848 78.787ZM16.592 78.787C14.0148 78.787 11.9526 78.9159 10.4065 79.0447L10.4895 80.0413C12.0154 79.9141 14.0492 79.787 16.592 79.787L16.592 78.787ZM10.4027 79.0451C8.96629 79.1756 7.52481 79.4371 6.20832 79.8321L6.49567 80.7899C7.73919 80.4169 9.1137 80.1664 10.4933 80.0409L10.4027 79.0451ZM6.20495 79.8331L4.54095 80.3451L4.83504 81.3009L6.49904 80.7889L6.20495 79.8331ZM4.5023 80.3588C4.03164 80.547 3.44682 80.4511 3.068 80.167L2.468 80.967C3.11317 81.4509 4.06436 81.611 4.87369 81.2872L4.5023 80.3588ZM3.068 80.167C2.70774 79.8968 2.5 79.421 2.5 78.903L1.5 78.903C1.5 79.665 1.80425 80.4692 2.468 80.967L3.068 80.167ZM2.5 78.903L2.5 65.591L1.5 65.591L1.5 78.903L2.5 78.903ZM2.5 65.591C2.5 64.7999 2.98259 64.2211 3.67336 64.0238L3.39863 63.0622C2.29741 63.3769 1.5 64.3341 1.5 65.591L2.5 65.591ZM3.67336 64.0238L4.56936 63.7678L4.29464 62.8062L3.39863 63.0622L3.67336 64.0238ZM4.57904 63.7649C6.20018 63.2661 7.82792 63.0149 9.21326 62.8889L9.12273 61.8931C7.69207 62.0231 5.99182 62.2839 4.28496 62.8091L4.57904 63.7649ZM9.21326 62.8889C10.5923 62.7636 13.1215 62.763 16.72 62.763L16.72 61.763C13.1505 61.763 10.5597 61.7624 9.12273 61.8931L9.21326 62.8889ZM16.72 62.763L33.616 62.763L33.616 61.763L16.72 61.763L16.72 62.763ZM33.616 62.763C35.3532 62.763 36.8187 62.6989 38.035 62.5345C39.2481 62.3706 40.2438 62.1032 41.0234 61.6779L40.5446 60.8C39.9162 61.1428 39.0559 61.3874 37.901 61.5435C36.7493 61.6991 35.3348 61.763 33.616 61.763L33.616 62.763ZM41.0412 61.6677C41.4868 61.4004 41.7701 60.9721 41.9402 60.5186C42.1104 60.0646 42.18 59.5542 42.18 59.063L41.18 59.063C41.18 59.4678 41.1216 59.8534 41.0038 60.1674C40.8859 60.4819 40.7212 60.6936 40.5268 60.8102L41.0412 61.6677ZM42.18 59.063L42.18 58.807L41.18 58.807L41.18 59.063L42.18 59.063ZM41.68 58.307L4.04799 58.307L4.04799 59.307L41.68 59.307L41.68 58.307ZM4.04799 58.307C3.66709 58.307 3.15472 58.1026 2.86555 57.8134L2.15844 58.5206C2.63728 58.9994 3.4049 59.307 4.04799 59.307L4.04799 58.307ZM2.86555 57.8134C2.60839 57.5563 2.5 57.1939 2.5 56.759L1.5 56.759C1.5 57.3481 1.6476 58.0097 2.15844 58.5205L2.86555 57.8134ZM2.5 56.759L2.5 43.703L1.5 43.703L1.5 56.759L2.5 56.759ZM2.5 43.703C2.5 43.2681 2.60839 42.9057 2.86555 42.6485L2.15845 41.9414C1.6476 42.4523 1.5 43.1139 1.5 43.703L2.5 43.703ZM2.86555 42.6485C3.15472 42.3594 3.66709 42.155 4.04799 42.155L4.04799 41.155C3.40491 41.155 2.63728 41.4626 2.15845 41.9414L2.86555 42.6485ZM4.04799 42.155L99.152 42.155L99.152 41.155L4.04799 41.155L4.04799 42.155ZM99.152 42.155C100.068 42.155 100.828 42.8656 100.828 43.703L101.828 43.703C101.828 42.2364 100.54 41.155 99.152 41.155L99.152 42.155ZM100.828 43.703L100.828 60.471L101.828 60.471L101.828 43.703L100.828 43.703ZM100.828 60.471C100.828 66.9893 98.4555 71.5651 94.3779 74.5306L94.9661 75.3394C99.3365 72.1609 101.828 67.2647 101.828 60.471L100.828 60.471ZM94.3826 74.5272C90.5341 77.2585 84.6375 78.787 76.624 78.787L76.624 79.787C84.7385 79.787 90.8739 78.2435 94.9614 75.3428L94.3826 74.5272ZM76.624 78.787L70.864 78.787L70.864 79.787L76.624 79.787L76.624 78.787ZM70.864 78.787C62.6001 78.787 56.7249 77.0046 53.1425 73.9163L52.4895 74.6737C56.3311 77.9854 62.4879 79.787 70.864 79.787L70.864 78.787ZM59.1 59.447L59.1 59.959L60.1 59.959L60.1 59.447L59.1 59.447ZM59.1 59.959C59.1 60.8574 59.5911 61.6339 60.3096 62.1682C61.0284 62.7027 61.9996 63.019 63.056 63.019L63.056 62.019C62.1924 62.019 61.4356 61.7593 60.9064 61.3658C60.3769 60.9721 60.1 60.4686 60.1 59.959L59.1 59.959ZM63.056 63.019L77.776 63.019L77.776 62.019L63.056 62.019L63.056 63.019ZM77.776 63.019C78.8311 63.019 79.8298 62.7035 80.5767 62.1752C81.3205 61.6492 81.86 60.8733 81.86 59.959L80.86 59.959C80.86 60.4527 80.5675 60.9568 79.9993 61.3588C79.4342 61.7585 78.6409 62.019 77.776 62.019L77.776 63.019ZM81.86 59.959L81.86 59.447L80.86 59.447L80.86 59.959L81.86 59.959ZM81.86 59.447C81.86 59.2616 81.7828 59.0786 81.7272 58.9674C81.6637 58.8404 81.571 58.6949 81.4576 58.5814L80.7504 59.2885C80.7549 59.293 80.7674 59.3071 80.7849 59.3327C80.8016 59.3572 80.8183 59.3857 80.8328 59.4146C80.8475 59.4441 80.8568 59.4678 80.8615 59.4826C80.8638 59.4897 80.8639 59.4914 80.8632 59.4879C80.8628 59.4854 80.86 59.4708 80.86 59.447L81.86 59.447ZM81.3276 58.4878C80.9514 58.2997 80.5794 58.307 80.336 58.307L80.336 59.307C80.6046 59.307 80.7446 59.3143 80.8804 59.3822L81.3276 58.4878ZM80.336 58.307L60.496 58.307L60.496 59.307L80.336 59.307L80.336 58.307ZM60.496 58.307C60.3778 58.307 60.2383 58.3057 60.0938 58.3298C59.9369 58.356 59.7929 58.4075 59.6324 58.4878L60.0796 59.3822C60.1751 59.3345 60.2231 59.322 60.2582 59.3162C60.3057 59.3083 60.3582 59.307 60.496 59.307L60.496 58.307ZM59.5024 58.5814C59.389 58.6949 59.2963 58.8404 59.2328 58.9674C59.1772 59.0786 59.1 59.2616 59.1 59.447L60.1 59.447C60.1 59.4708 60.0972 59.4854 60.0968 59.4879C60.0961 59.4914 60.0962 59.4897 60.0985 59.4826C60.1032 59.4678 60.1125 59.4441 60.1272 59.4146C60.1417 59.3857 60.1584 59.3572 60.1751 59.3327C60.1926 59.3071 60.2051 59.293 60.2096 59.2885L59.5024 58.5814ZM8.14399 87.638L7.8748 87.2166L7.867 87.2216L7.85939 87.2269L8.14399 87.638ZM95.056 87.638L95.3407 87.2268L95.3306 87.2201L95.056 87.638ZM95.056 116.694L94.7786 116.278L94.7732 116.282L95.056 116.694ZM8.14399 116.694L8.42134 116.278L8.14399 116.694ZM21.712 103.51L21.9151 103.053L21.893 103.043L21.8701 103.036L21.712 103.51ZM81.488 103.51L81.3299 103.036L81.307 103.043L81.2849 103.053L81.488 103.51ZM81.488 100.95L81.2849 101.407L81.307 101.417L81.3299 101.424L81.488 100.95ZM21.712 100.95L21.8701 101.424L21.893 101.417L21.9151 101.407L21.712 100.95ZM1.092 102.23C1.092 95.9936 3.57187 91.4114 8.4286 88.0491L7.85939 87.2269C2.73211 90.7766 0.0919987 95.6664 0.0919984 102.23L1.092 102.23ZM8.41319 88.0593C12.9182 85.1812 19.0884 83.53 27.216 83.53L27.216 82.53C18.9596 82.53 12.5858 84.2068 7.8748 87.2166L8.41319 88.0593ZM27.216 83.53L75.984 83.53L75.984 82.53L27.216 82.53L27.216 83.53ZM75.984 83.53C84.1155 83.53 90.4092 85.1827 94.7814 88.0559L95.3306 87.2201C90.7428 84.2053 84.2365 82.53 75.984 82.53L75.984 83.53ZM94.7714 88.0491C99.6281 91.4114 102.108 95.9936 102.108 102.23L103.108 102.23C103.108 95.6664 100.468 90.7766 95.3406 87.2269L94.7714 88.0491ZM102.108 102.23C102.108 108.342 99.6257 113.047 94.7787 116.278L95.3334 117.11C100.47 113.685 103.108 108.662 103.108 102.23L102.108 102.23ZM94.7732 116.282C90.405 119.277 84.1163 120.93 75.984 120.93L75.984 121.93C84.2357 121.93 90.747 120.255 95.3388 117.106L94.7732 116.282ZM75.984 120.93L27.216 120.93L27.216 121.93L75.984 121.93L75.984 120.93ZM27.216 120.93C19.0877 120.93 12.9223 119.279 8.42134 116.278L7.86665 117.11C12.5817 120.253 18.9603 121.93 27.216 121.93L27.216 120.93ZM8.42134 116.278C3.57429 113.047 1.092 108.342 1.092 102.23L0.0919984 102.23C0.0919981 108.662 2.72969 113.685 7.86665 117.11L8.42134 116.278ZM20.06 102.23C20.06 102.662 20.1943 103.043 20.4806 103.353C20.7531 103.648 21.1303 103.843 21.5539 103.984L21.8701 103.036C21.5257 102.921 21.3269 102.796 21.2154 102.675C21.1177 102.569 21.06 102.438 21.06 102.23L20.06 102.23ZM21.5089 103.967C22.767 104.526 24.3993 104.65 26.32 104.65L26.32 103.65C24.4007 103.65 22.9609 103.518 21.9151 103.053L21.5089 103.967ZM26.32 104.65L76.88 104.65L76.88 103.65L26.32 103.65L26.32 104.65ZM76.88 104.65C78.8007 104.65 80.433 104.526 81.6911 103.967L81.2849 103.053C80.239 103.518 78.7993 103.65 76.88 103.65L76.88 104.65ZM81.6461 103.984C82.0697 103.843 82.4469 103.648 82.7194 103.353C83.0057 103.043 83.14 102.662 83.14 102.23L82.14 102.23C82.14 102.438 82.0823 102.569 81.9846 102.675C81.8731 102.796 81.6743 102.921 81.3299 103.036L81.6461 103.984ZM83.14 102.23C83.14 101.798 83.0057 101.417 82.7194 101.107C82.4469 100.812 82.0697 100.617 81.6461 100.476L81.3299 101.424C81.6743 101.539 81.8731 101.664 81.9846 101.785C82.0823 101.891 82.14 102.022 82.14 102.23L83.14 102.23ZM81.6911 100.493C80.433 99.9339 78.8007 99.81 76.88 99.81L76.88 100.81C78.7993 100.81 80.239 100.942 81.2849 101.407L81.6911 100.493ZM76.88 99.81L26.32 99.81L26.32 100.81L76.88 100.81L76.88 99.81ZM26.32 99.81C24.3993 99.81 22.767 99.9339 21.5089 100.493L21.9151 101.407C22.9609 100.942 24.4007 100.81 26.32 100.81L26.32 99.81ZM21.5539 100.476C21.1303 100.617 20.7531 100.812 20.4806 101.107C20.1943 101.417 20.06 101.798 20.06 102.23L21.06 102.23C21.06 102.022 21.1177 101.891 21.2154 101.785C21.3269 101.664 21.5257 101.539 21.8701 101.424L21.5539 100.476ZM2.12799 126.587L2.60588 126.734L2.62799 126.662L2.62799 126.587L2.12799 126.587ZM2.384 125.691L2.83121 125.915L2.86749 125.842L2.87897 125.762L2.384 125.691ZM21.968 125.051L21.568 125.351L21.5893 125.379L21.6144 125.405L21.968 125.051ZM22.352 126.971L22.8116 127.168L22.8321 127.12L22.8423 127.069L22.352 126.971ZM21.712 128.635L22.1762 128.821L22.1817 128.807L22.1863 128.793L21.712 128.635ZM22.096 132.859L21.7424 133.213L21.7827 133.253L21.831 133.283L22.096 132.859ZM100.688 134.395L100.288 134.695L100.309 134.723L100.334 134.749L100.688 134.395ZM100.688 150.267L101.042 150.621L101.042 150.621L100.688 150.267ZM8.52799 146.555L8.81136 146.143L8.80009 146.136L8.52799 146.555ZM1.98799 132.347C1.98799 130.182 2.11675 128.324 2.60588 126.734L1.6501 126.44C1.11524 128.178 0.987993 130.16 0.987993 132.347L1.98799 132.347ZM2.12799 126.587C2.62799 126.587 2.62799 126.587 2.62799 126.587C2.62799 126.587 2.62799 126.588 2.62799 126.588C2.62799 126.588 2.62799 126.588 2.62799 126.588C2.62799 126.589 2.62799 126.589 2.62799 126.589C2.62799 126.59 2.62798 126.591 2.62798 126.591C2.62796 126.592 2.62795 126.593 2.62795 126.593C2.62793 126.594 2.62794 126.593 2.62802 126.591C2.6282 126.587 2.62868 126.578 2.62994 126.564C2.63246 126.537 2.63805 126.49 2.65029 126.429C2.67476 126.307 2.72563 126.126 2.83121 125.915L1.93678 125.467C1.78636 125.768 1.70922 126.035 1.6697 126.233C1.64994 126.332 1.63953 126.413 1.63405 126.474C1.6313 126.504 1.62979 126.529 1.62897 126.548C1.62855 126.557 1.62831 126.565 1.62817 126.572C1.6281 126.575 1.62805 126.578 1.62803 126.581C1.62802 126.582 1.62801 126.583 1.628 126.584C1.628 126.585 1.628 126.585 1.62799 126.586C1.62799 126.586 1.62799 126.586 1.62799 126.586C1.62799 126.586 1.62799 126.587 1.62799 126.587C1.62799 126.587 1.62799 126.587 2.12799 126.587ZM2.87897 125.762C2.96495 125.16 3.6053 124.655 4.304 124.655L4.304 123.655C3.21068 123.655 2.05903 124.43 1.88902 125.62L2.87897 125.762ZM4.304 124.655L20.304 124.655L20.304 123.655L4.304 123.655L4.304 124.655ZM20.304 124.655C20.7556 124.655 21.2582 124.938 21.568 125.351L22.368 124.751C21.9098 124.14 21.1323 123.655 20.304 123.655L20.304 124.655ZM21.6144 125.405C21.9388 125.729 21.9826 126.269 21.8617 126.873L22.8423 127.069C22.9774 126.393 23.0212 125.397 22.3216 124.697L21.6144 125.405ZM21.8924 126.774C21.6961 127.232 21.5329 127.656 21.4188 127.966C21.3617 128.121 21.3167 128.248 21.2859 128.336C21.2705 128.381 21.2586 128.415 21.2505 128.439C21.2464 128.451 21.2433 128.46 21.2411 128.467C21.2401 128.47 21.2392 128.472 21.2386 128.474C21.2384 128.475 21.2381 128.475 21.238 128.476C21.2379 128.476 21.2378 128.476 21.2378 128.477C21.2377 128.477 21.2377 128.477 21.2377 128.477C21.2377 128.477 21.2377 128.477 21.2377 128.477C21.2377 128.477 21.2377 128.477 21.712 128.635C22.1863 128.793 22.1863 128.793 22.1863 128.793L22.1863 128.793C22.1863 128.793 22.1863 128.793 22.1863 128.793C22.1863 128.793 22.1864 128.793 22.1864 128.793C22.1865 128.793 22.1866 128.792 22.1868 128.792C22.1872 128.79 22.1879 128.788 22.1888 128.786C22.1906 128.78 22.1933 128.772 22.197 128.761C22.2044 128.74 22.2155 128.707 22.2301 128.666C22.2593 128.582 22.3023 128.461 22.3572 128.312C22.4671 128.013 22.6239 127.606 22.8116 127.168L21.8924 126.774ZM21.2478 128.449C20.9622 129.163 20.828 129.998 20.828 130.939L21.828 130.939C21.828 130.088 21.9498 129.387 22.1762 128.821L21.2478 128.449ZM20.828 130.939C20.828 131.831 21.1305 132.601 21.7424 133.213L22.4495 132.505C22.0374 132.093 21.828 131.583 21.828 130.939L20.828 130.939ZM21.831 133.283C22.9834 134.003 24.7727 134.255 26.832 134.255L26.832 133.255C24.7953 133.255 23.2566 132.995 22.361 132.435L21.831 133.283ZM26.832 134.255L99.152 134.255L99.152 133.255L26.832 133.255L26.832 134.255ZM99.152 134.255C99.7208 134.255 100.04 134.365 100.288 134.695L101.088 134.095C100.568 133.401 99.8632 133.255 99.152 133.255L99.152 134.255ZM100.334 134.749C100.648 135.062 100.828 135.454 100.828 135.803L101.828 135.803C101.828 135.128 101.496 134.496 101.042 134.041L100.334 134.749ZM100.828 135.803L100.828 148.731L101.828 148.731L101.828 135.803L100.828 135.803ZM100.828 148.731C100.828 149.225 100.635 149.613 100.334 149.913L101.042 150.621C101.509 150.153 101.828 149.517 101.828 148.731L100.828 148.731ZM100.334 149.913C100.034 150.214 99.6455 150.407 99.152 150.407L99.152 151.407C99.9385 151.407 100.574 151.088 101.042 150.621L100.334 149.913ZM99.152 150.407L27.216 150.407L27.216 151.407L99.152 151.407L99.152 150.407ZM27.216 150.407C18.9433 150.407 12.7884 148.877 8.81126 146.143L8.24473 146.967C12.4596 149.865 18.8487 151.407 27.216 151.407L27.216 150.407ZM8.80009 146.136C4.23041 143.171 1.98799 138.609 1.98799 132.347L0.987993 132.347C0.987993 138.885 3.35358 143.795 8.2559 146.974L8.80009 146.136ZM100.688 188.215L100.334 187.861L100.334 187.861L100.688 188.215ZM62.544 184.503L62.8975 184.857L62.544 184.503ZM43.216 170.807L43.716 170.807L43.716 170.307L43.216 170.307L43.216 170.807ZM22.224 171.063L22.4476 171.51L22.5202 171.474L22.5775 171.417L22.224 171.063ZM2.51199 188.215L2.86555 187.861L2.51199 188.215ZM2.51199 154.295L2.86555 154.649L2.51199 154.295ZM100.828 155.703L100.828 186.679L101.828 186.679L101.828 155.703L100.828 155.703ZM100.828 186.679C100.828 187.06 100.624 187.572 100.334 187.861L101.042 188.569C101.52 188.09 101.828 187.322 101.828 186.679L100.828 186.679ZM100.334 187.861C100.085 188.111 99.7311 188.227 99.152 188.227L99.152 189.227C99.8529 189.227 100.523 189.087 101.042 188.569L100.334 187.861ZM99.152 188.227L83.408 188.227L83.408 189.227L99.152 189.227L99.152 188.227ZM83.408 188.227C82.5321 188.227 81.86 187.555 81.86 186.679L80.86 186.679C80.86 188.107 81.9799 189.227 83.408 189.227L83.408 188.227ZM81.86 186.679L81.86 171.703L80.86 171.703L80.86 186.679L81.86 186.679ZM81.86 171.703C81.86 171.27 81.6423 170.914 81.3601 170.679C81.0805 170.446 80.7118 170.307 80.336 170.307L80.336 171.307C80.4722 171.307 80.6155 171.36 80.7199 171.447C80.8217 171.532 80.86 171.624 80.86 171.703L81.86 171.703ZM80.336 170.307L64.208 170.307L64.208 171.307L80.336 171.307L80.336 170.307ZM64.208 170.307C63.7882 170.307 63.4044 170.434 63.1197 170.693C62.8321 170.954 62.684 171.316 62.684 171.703L63.684 171.703C63.684 171.578 63.7279 171.492 63.7923 171.433C63.8596 171.372 63.9878 171.307 64.208 171.307L64.208 170.307ZM62.684 171.703L62.684 182.967L63.684 182.967L63.684 171.703L62.684 171.703ZM62.684 182.967C62.684 183.461 62.491 183.849 62.1904 184.149L62.8975 184.857C63.365 184.389 63.684 183.753 63.684 182.967L62.684 182.967ZM62.1904 184.149C61.8766 184.463 61.4854 184.643 61.136 184.643L61.136 185.643C61.8106 185.643 62.4434 185.311 62.8975 184.857L62.1904 184.149ZM61.136 184.643L45.392 184.643L45.392 185.643L61.136 185.643L61.136 184.643ZM45.392 184.643C44.5161 184.643 43.716 183.843 43.716 182.967L42.716 182.967C42.716 184.395 43.9639 185.643 45.392 185.643L45.392 184.643ZM43.716 182.967L43.716 170.807L42.716 170.807L42.716 182.967L43.716 182.967ZM43.216 170.307L22.864 170.307L22.864 171.307L43.216 171.307L43.216 170.307ZM22.864 170.307C22.4667 170.307 22.0859 170.494 21.8704 170.709L22.5775 171.417C22.5887 171.405 22.6282 171.374 22.693 171.347C22.7556 171.32 22.8164 171.307 22.864 171.307L22.864 170.307ZM22.0004 170.616C21.5515 170.84 21.34 171.285 21.34 171.703L22.34 171.703C22.34 171.609 22.3844 171.542 22.4476 171.51L22.0004 170.616ZM21.34 171.703L21.34 186.679L22.34 186.679L22.34 171.703L21.34 171.703ZM21.34 186.679C21.34 187.555 20.6678 188.227 19.792 188.227L19.792 189.227C21.2201 189.227 22.34 188.107 22.34 186.679L21.34 186.679ZM19.792 188.227L4.04799 188.227L4.04799 189.227L19.792 189.227L19.792 188.227ZM4.04799 188.227C3.58189 188.227 3.10847 188.104 2.86555 187.861L2.15844 188.569C2.68352 189.094 3.4901 189.227 4.04799 189.227L4.04799 188.227ZM2.86555 187.861C2.62263 187.619 2.49999 187.145 2.49999 186.679L1.49999 186.679C1.49999 187.237 1.63335 188.043 2.15844 188.569L2.86555 187.861ZM2.49999 186.679L2.49999 155.703L1.49999 155.703L1.49999 186.679L2.49999 186.679ZM2.49999 155.703C2.49999 155.268 2.60838 154.906 2.86555 154.649L2.15844 153.941C1.6476 154.452 1.49999 155.114 1.49999 155.703L2.49999 155.703ZM2.86555 154.649C3.15472 154.359 3.66708 154.155 4.04799 154.155L4.04799 153.155C3.4049 153.155 2.63728 153.463 2.15844 153.941L2.86555 154.649ZM4.04799 154.155L99.152 154.155L99.152 153.155L4.04799 153.155L4.04799 154.155ZM99.152 154.155C99.6455 154.155 100.034 154.348 100.334 154.649L101.042 153.941C100.574 153.474 99.9385 153.155 99.152 153.155L99.152 154.155ZM100.334 154.649C100.648 154.962 100.828 155.354 100.828 155.703L101.828 155.703C101.828 155.028 101.496 154.396 101.042 153.941L100.334 154.649ZM8.14399 195.885L8.42135 196.301L8.42415 196.299L8.14399 195.885ZM95.184 195.885L95.4664 195.472L95.4586 195.467L95.184 195.885ZM95.184 224.301L95.4586 224.719L95.4588 224.719L95.184 224.301ZM81.616 211.629L81.4303 211.165L81.411 211.172L81.3924 211.182L81.616 211.629ZM81.616 209.197L81.3924 209.644L81.4523 209.674L81.5179 209.687L81.616 209.197ZM21.584 209.069L21.4084 208.601L21.3983 208.605L21.584 209.069ZM21.584 211.629L21.8076 211.182L21.789 211.172L21.7697 211.165L21.584 211.629ZM8.14399 224.301L8.42423 223.887L8.41382 223.88L8.14399 224.301ZM1.09199 210.093C1.09199 204.115 3.56913 199.536 8.42134 196.301L7.86664 195.469C2.73485 198.89 0.091994 203.783 0.0919937 210.093L1.09199 210.093ZM8.42415 196.299C12.6629 193.432 18.6952 191.905 26.704 191.905L26.704 190.905C18.5848 190.905 12.3291 192.45 7.86384 195.471L8.42415 196.299ZM26.704 191.905L76.496 191.905L76.496 190.905L26.704 190.905L26.704 191.905ZM76.496 191.905C84.5025 191.905 90.539 193.431 94.9094 196.303L95.4586 195.467C90.869 192.451 84.6174 190.905 76.496 190.905L76.496 191.905ZM94.9017 196.298C99.6292 199.532 102.108 204.114 102.108 210.093L103.108 210.093C103.108 203.784 100.467 198.894 95.4663 195.472L94.9017 196.298ZM102.108 210.093C102.108 216.204 99.6267 220.78 94.9092 223.883L95.4588 224.719C100.469 221.422 103.108 216.526 103.108 210.093L102.108 210.093ZM94.9094 223.883C90.539 226.755 84.5025 228.281 76.496 228.281L76.496 229.281C84.6174 229.281 90.869 227.735 95.4586 224.719L94.9094 223.883ZM76.496 228.281L65.488 228.281L65.488 229.281L76.496 229.281L76.496 228.281ZM65.488 228.281C64.5721 228.281 63.812 227.57 63.812 226.733L62.812 226.733C62.812 228.2 64.0999 229.281 65.488 229.281L65.488 228.281ZM63.812 226.733L63.812 214.317L62.812 214.317L62.812 226.733L63.812 226.733ZM63.812 214.317C63.812 213.48 64.5721 212.769 65.488 212.769L65.488 211.769C64.0999 211.769 62.812 212.85 62.812 214.317L63.812 214.317ZM65.488 212.769L77.392 212.769L77.392 211.769L65.488 211.769L65.488 212.769ZM77.392 212.769C79.1823 212.769 80.6993 212.646 81.8396 212.076L81.3924 211.182C80.4847 211.636 79.1857 211.769 77.392 211.769L77.392 212.769ZM81.8017 212.093C82.1643 211.948 82.5018 211.749 82.7497 211.456C83.0071 211.152 83.14 210.779 83.14 210.349L82.14 210.349C82.14 210.559 82.0809 210.698 81.9863 210.81C81.8822 210.933 81.7076 211.054 81.4303 211.165L81.8017 212.093ZM83.14 210.349C83.14 209.923 83.0092 209.541 82.7366 209.243C82.4698 208.952 82.1065 208.785 81.7141 208.707L81.5179 209.687C81.7655 209.737 81.9142 209.826 81.9994 209.919C82.0788 210.005 82.14 210.135 82.14 210.349L83.14 210.349ZM81.8396 208.75C80.6993 208.18 79.1823 208.057 77.392 208.057L77.392 209.057C79.1857 209.057 80.4847 209.19 81.3924 209.644L81.8396 208.75ZM77.392 208.057L25.68 208.057L25.68 209.057L77.392 209.057L77.392 208.057ZM25.68 208.057C23.8762 208.057 22.5207 208.184 21.4084 208.601L21.7596 209.537C22.6953 209.186 23.8998 209.057 25.68 209.057L25.68 208.057ZM21.3983 208.605C20.6241 208.914 20.06 209.579 20.06 210.349L21.06 210.349C21.06 210.095 21.2639 209.736 21.7697 209.533L21.3983 208.605ZM20.06 210.349C20.06 210.779 20.1929 211.152 20.4503 211.456C20.6982 211.749 21.0356 211.948 21.3983 212.093L21.7697 211.165C21.4923 211.054 21.3178 210.933 21.2137 210.81C21.1191 210.698 21.06 210.559 21.06 210.349L20.06 210.349ZM21.3604 212.076C22.4984 212.645 23.8836 212.769 25.68 212.769L25.68 211.769C23.8924 211.769 22.7176 211.637 21.8076 211.182L21.3604 212.076ZM25.68 212.769L41.04 212.769L41.04 211.769L25.68 211.769L25.68 212.769ZM41.04 212.769C41.9559 212.769 42.716 213.48 42.716 214.317L43.716 214.317C43.716 212.85 42.4281 211.769 41.04 211.769L41.04 212.769ZM42.716 214.317L42.716 226.733L43.716 226.733L43.716 214.317L42.716 214.317ZM42.716 226.733C42.716 227.57 41.9559 228.281 41.04 228.281L41.04 229.281C42.4281 229.281 43.716 228.2 43.716 226.733L42.716 226.733ZM41.04 228.281L26.704 228.281L26.704 229.281L41.04 229.281L41.04 228.281ZM26.704 228.281C18.6952 228.281 12.6629 226.754 8.42415 223.887L7.86384 224.715C12.3291 227.736 18.5848 229.281 26.704 229.281L26.704 228.281ZM8.41382 223.88C3.57163 220.776 1.09199 216.202 1.09199 210.093L0.0919937 210.093C0.0919934 216.528 2.73235 221.426 7.87416 224.722L8.41382 223.88ZM81.104 242.154L81.3276 242.601L81.4002 242.565L81.4575 242.508L81.104 242.154ZM82 232.17L81.6464 231.816L81.6464 231.816L82 232.17ZM82 269.802L82.3535 269.448L82.3284 269.423L82.3 269.402L82 269.802ZM81.104 259.818L81.5512 259.594L81.4767 259.445L81.3276 259.371L81.104 259.818ZM4.04799 242.91L80.336 242.91L80.336 241.91L4.04799 241.91L4.04799 242.91ZM80.336 242.91C80.733 242.91 81.1006 242.715 81.3276 242.601L80.8804 241.707C80.5954 241.849 80.451 241.91 80.336 241.91L80.336 242.91ZM81.4575 242.508C81.673 242.292 81.86 241.911 81.86 241.514L80.86 241.514C80.86 241.562 80.8473 241.622 80.8204 241.685C80.7927 241.75 80.7616 241.789 80.7504 241.8L81.4575 242.508ZM81.86 241.514L81.86 233.578L80.86 233.578L80.86 241.514L81.86 241.514ZM81.86 233.578C81.86 233.229 82.0397 232.837 82.3535 232.524L81.6464 231.816C81.1923 232.271 80.86 232.903 80.86 233.578L81.86 233.578ZM82.3535 232.524C82.6674 232.21 83.0586 232.03 83.408 232.03L83.408 231.03C82.7334 231.03 82.1006 231.362 81.6464 231.816L82.3535 232.524ZM83.408 232.03L99.152 232.03L99.152 231.03L83.408 231.03L83.408 232.03ZM99.152 232.03C99.6455 232.03 100.034 232.223 100.334 232.524L101.042 231.816C100.574 231.349 99.9385 231.03 99.152 231.03L99.152 232.03ZM100.334 232.524C100.648 232.837 100.828 233.229 100.828 233.578L101.828 233.578C101.828 232.903 101.496 232.271 101.042 231.816L100.334 232.524ZM100.828 233.578L100.828 268.394L101.828 268.394L101.828 233.578L100.828 233.578ZM100.828 268.394C100.828 268.743 100.648 269.135 100.334 269.448L101.042 270.156C101.496 269.701 101.828 269.069 101.828 268.394L100.828 268.394ZM100.334 269.448C100.034 269.749 99.6455 269.942 99.152 269.942L99.152 270.942C99.9385 270.942 100.574 270.623 101.042 270.156L100.334 269.448ZM99.152 269.942L83.408 269.942L83.408 270.942L99.152 270.942L99.152 269.942ZM83.408 269.942C83.0586 269.942 82.6674 269.762 82.3535 269.448L81.6464 270.156C82.1006 270.61 82.7334 270.942 83.408 270.942L83.408 269.942ZM82.3 269.402C81.9593 269.146 81.86 268.816 81.86 268.394L80.86 268.394C80.86 268.996 81.0167 269.69 81.7 270.202L82.3 269.402ZM81.86 268.394L81.86 260.458L80.86 260.458L80.86 268.394L81.86 268.394ZM81.86 260.458C81.86 260.232 81.7997 260.059 81.7272 259.914C81.695 259.85 81.6583 259.787 81.6311 259.74C81.6015 259.689 81.576 259.644 81.5512 259.594L80.6568 260.042C80.696 260.12 80.7345 260.187 80.7649 260.24C80.7977 260.297 80.817 260.33 80.8328 260.362C80.8562 260.409 80.86 260.428 80.86 260.458L81.86 260.458ZM81.3276 259.371C81.1006 259.257 80.733 259.062 80.336 259.062L80.336 260.062C80.451 260.062 80.5954 260.123 80.8804 260.265L81.3276 259.371ZM80.336 259.062L4.04799 259.062L4.04799 260.062L80.336 260.062L80.336 259.062ZM4.04799 259.062C3.17213 259.062 2.49999 258.39 2.49999 257.514L1.49999 257.514C1.49999 258.942 2.61985 260.062 4.04799 260.062L4.04799 259.062ZM2.49999 257.514L2.49999 244.458L1.49999 244.458L1.49999 257.514L2.49999 257.514ZM2.49999 244.458C2.49999 243.582 3.17213 242.91 4.04799 242.91L4.04799 241.91C2.61985 241.91 1.49999 243.03 1.49999 244.458L2.49999 244.458Z" fill="black"/>
</svg>
