<svg width="104" height="119" viewBox="0 0 104 119" fill="none" xmlns="http://www.w3.org/2000/svg">
<path d="M82 34.944L81.6464 35.2975L81.6464 35.2976L82 34.944ZM81.104 18.688L81.4576 18.3344L81.4002 18.2771L81.3276 18.2408L81.104 18.688ZM63.568 18.688L63.7916 19.1352L63.8642 19.0989L63.9216 19.0415L63.568 18.688ZM62.672 31.232L63.0256 31.5856L63.0256 31.5856L62.672 31.232ZM43.856 31.232L43.5024 31.5856L43.5276 31.6107L43.556 31.632L43.856 31.232ZM43.088 18.688L43.4416 18.3344L43.3842 18.2771L43.3116 18.2408L43.088 18.688ZM2.512 17.792L2.15845 18.1456L2.512 17.792ZM2.512 1.92L2.86555 2.27355L2.512 1.92ZM100.828 3.328L100.828 33.408L101.828 33.408L101.828 3.328L100.828 3.328ZM100.828 33.408C100.828 34.2839 100.028 35.084 99.152 35.084L99.152 36.084C100.58 36.084 101.828 34.8361 101.828 33.408L100.828 33.408ZM99.152 35.084L83.408 35.084L83.408 36.084L99.152 36.084L99.152 35.084ZM83.408 35.084C83.0586 35.084 82.6674 34.9043 82.3536 34.5904L81.6464 35.2976C82.1006 35.7517 82.7334 36.084 83.408 36.084L83.408 35.084ZM82.3536 34.5904C82.053 34.2899 81.86 33.9015 81.86 33.408L80.86 33.408C80.86 34.1945 81.179 34.8301 81.6464 35.2975L82.3536 34.5904ZM81.86 33.408L81.86 19.328L80.86 19.328L80.86 33.408L81.86 33.408ZM81.86 19.328C81.86 18.9307 81.673 18.5499 81.4576 18.3344L80.7504 19.0416C80.7616 19.0527 80.7927 19.0922 80.8204 19.157C80.8473 19.2196 80.86 19.2804 80.86 19.328L81.86 19.328ZM81.3276 18.2408C81.1006 18.1273 80.733 17.932 80.336 17.932L80.336 18.932C80.451 18.932 80.5954 18.9927 80.8804 19.1352L81.3276 18.2408ZM80.336 17.932L64.208 17.932L64.208 18.932L80.336 18.932L80.336 17.932ZM64.208 17.932C63.8107 17.932 63.4299 18.119 63.2144 18.3344L63.9216 19.0415C63.9327 19.0304 63.9722 18.9993 64.037 18.9716C64.0996 18.9447 64.1604 18.932 64.208 18.932L64.208 17.932ZM63.3444 18.2408C63.073 18.3765 62.9278 18.5966 62.8632 18.8226C62.8084 19.0147 62.812 19.2172 62.812 19.328L63.812 19.328C63.812 19.2609 63.8122 19.2133 63.815 19.1702C63.8177 19.1282 63.8221 19.1067 63.8248 19.0974C63.8268 19.0902 63.8252 19.0996 63.8138 19.1142C63.8013 19.1301 63.7898 19.1361 63.7916 19.1352L63.3444 18.2408ZM62.812 19.328L62.812 29.824L63.812 29.824L63.812 19.328L62.812 19.328ZM62.812 29.824C62.812 30.1734 62.6323 30.5646 62.3184 30.8784L63.0256 31.5856C63.4797 31.1314 63.812 30.4986 63.812 29.824L62.812 29.824ZM62.3185 30.8784C62.0293 31.1676 61.5169 31.372 61.136 31.372L61.136 32.372C61.7791 32.372 62.5467 32.0644 63.0256 31.5856L62.3185 30.8784ZM61.136 31.372L45.392 31.372L45.392 32.372L61.136 32.372L61.136 31.372ZM45.392 31.372C45.0432 31.372 44.6393 31.1945 44.156 30.832L43.556 31.632C44.0967 32.0375 44.7168 32.372 45.392 32.372L45.392 31.372ZM44.2096 30.8784C43.9524 30.6213 43.844 30.2589 43.844 29.824L42.844 29.824C42.844 30.4131 42.9916 31.0747 43.5024 31.5856L44.2096 30.8784ZM43.844 29.824L43.844 19.328L42.844 19.328L42.844 29.824L43.844 29.824ZM43.844 19.328C43.844 18.9307 43.657 18.5499 43.4416 18.3344L42.7345 19.0416C42.7456 19.0527 42.7767 19.0922 42.8044 19.157C42.8313 19.2196 42.844 19.2804 42.844 19.328L43.844 19.328ZM43.3116 18.2408C43.0846 18.1273 42.717 17.932 42.32 17.932L42.32 18.932C42.435 18.932 42.5794 18.9927 42.8644 19.1352L43.3116 18.2408ZM42.32 17.932L4.048 17.932L4.048 18.932L42.32 18.932L42.32 17.932ZM4.048 17.932C3.66709 17.932 3.15472 17.7276 2.86555 17.4384L2.15845 18.1456C2.63728 18.6244 3.40491 18.932 4.048 18.932L4.048 17.932ZM2.86555 17.4384C2.60839 17.1813 2.5 16.8189 2.5 16.384L1.5 16.384C1.5 16.9731 1.64761 17.6347 2.15845 18.1456L2.86555 17.4384ZM2.5 16.384L2.5 3.328L1.5 3.328L1.5 16.384L2.5 16.384ZM2.5 3.328C2.5 2.89307 2.60839 2.53071 2.86555 2.27355L2.15845 1.56644C1.64761 2.07728 1.5 2.73892 1.5 3.328L2.5 3.328ZM2.86555 2.27355C3.15472 1.98438 3.66709 1.78 4.048 1.78L4.048 0.779995C3.40491 0.779995 2.63728 1.08761 2.15845 1.56644L2.86555 2.27355ZM4.048 1.78L99.152 1.78L99.152 0.779999L4.048 0.779995L4.048 1.78ZM99.152 1.78C100.068 1.78 100.828 2.49057 100.828 3.328L101.828 3.328C101.828 1.86143 100.54 0.779999 99.152 0.779999L99.152 1.78ZM19.28 54.341L19.28 53.841L19.2512 53.841L19.2227 53.8443L19.28 54.341ZM19.28 48.453L19.2227 48.9497L19.2512 48.953L19.28 48.953L19.28 48.453ZM3.92 46.789L3.86478 47.2859L3.8671 47.2862L3.92 46.789ZM2.64 30.917L2.34 30.517L2.31157 30.5383L2.28644 30.5634L2.64 30.917ZM4.304 30.405L4.36207 29.9084L4.33314 29.905L4.304 29.905L4.304 30.405ZM99.536 41.541L99.598 41.0448L99.5941 41.0444L99.536 41.541ZM99.536 62.021L99.5941 62.5176L99.598 62.5171L99.536 62.021ZM4.304 73.157L4.304 73.657L4.33313 73.657L4.36207 73.6536L4.304 73.157ZM2.64 72.645L2.28644 72.9986L2.31157 73.0237L2.33999 73.045L2.64 72.645ZM3.92 56.005L3.8671 55.5078L3.86478 55.5081L3.92 56.005ZM37.072 54.085L37.072 54.585L37.0976 54.585L37.1231 54.5824L37.072 54.085ZM50.768 52.677L50.768 52.177L50.7424 52.177L50.7169 52.1796L50.768 52.677ZM50.768 50.757L50.8893 50.2719L50.8524 50.2627L50.8145 50.2592L50.768 50.757ZM37.072 49.477L37.1185 48.9792L37.0953 48.977L37.072 48.977L37.072 49.477ZM36.304 49.733L36.5276 50.1802L36.6767 50.1057L36.7512 49.9566L36.304 49.733ZM36.304 53.829L36.7512 53.6054L36.6767 53.4563L36.5276 53.3818L36.304 53.829ZM19.28 54.841C20.0681 54.841 20.676 54.2331 20.676 53.445L19.676 53.445C19.676 53.6809 19.5159 53.841 19.28 53.841L19.28 54.841ZM20.676 53.445L20.676 49.349L19.676 49.349L19.676 53.445L20.676 53.445ZM20.676 49.349C20.676 48.5609 20.0681 47.953 19.28 47.953L19.28 48.953C19.5159 48.953 19.676 49.1131 19.676 49.349L20.676 49.349ZM19.3373 47.9563C17.6709 47.764 13.8287 47.3478 10.4054 46.9799C8.69328 46.7958 7.08516 46.6238 5.90509 46.4978C5.31505 46.4348 4.83201 46.3833 4.49647 46.3476C4.32871 46.3297 4.19782 46.3157 4.10887 46.3063C4.06439 46.3015 4.0304 46.2979 4.00753 46.2955C3.99609 46.2943 3.98743 46.2933 3.98163 46.2927C3.97873 46.2924 3.97655 46.2922 3.97509 46.292C3.97436 46.292 3.97381 46.2919 3.97344 46.2919C3.97326 46.2918 3.97312 46.2918 3.97303 46.2918C3.97294 46.2918 3.97289 46.2918 3.92 46.789C3.8671 47.2862 3.86715 47.2862 3.86724 47.2862C3.86733 47.2862 3.86747 47.2862 3.86765 47.2862C3.86802 47.2863 3.86857 47.2863 3.86929 47.2864C3.87075 47.2866 3.87293 47.2868 3.87583 47.2871C3.88162 47.2877 3.89027 47.2887 3.9017 47.2899C3.92457 47.2923 3.95854 47.2959 4.003 47.3007C4.09192 47.3101 4.22278 47.3241 4.39052 47.3419C4.72599 47.3777 5.20895 47.4292 5.79891 47.4922C6.97883 47.6182 8.58671 47.7901 10.2986 47.9741C13.7233 48.3422 17.5611 48.758 19.2227 48.9497L19.3373 47.9563ZM3.97522 46.2921C3.06757 46.1912 2.5 45.5014 2.5 44.741L1.5 44.741C1.5 46.0286 2.46842 47.1308 3.86478 47.2859L3.97522 46.2921ZM2.5 44.741L2.5 32.453L1.5 32.453L1.5 44.741L2.5 44.741ZM2.5 32.453C2.5 32.0721 2.70438 31.5597 2.99355 31.2705L2.28644 30.5634C1.80762 31.0423 1.5 31.8099 1.5 32.453L2.5 32.453ZM2.94 31.317C3.33908 31.0177 3.86178 30.905 4.304 30.905L4.304 29.905C3.72222 29.905 2.96492 30.0483 2.34 30.517L2.94 31.317ZM4.24592 30.9016L99.4779 42.0376L99.5941 41.0444L4.36207 29.9084L4.24592 30.9016ZM99.474 42.0371C100.241 42.133 100.828 42.8105 100.828 43.589L101.828 43.589C101.828 42.3195 100.879 41.205 99.598 41.0449L99.474 42.0371ZM100.828 43.589L100.828 59.973L101.828 59.973L101.828 43.589L100.828 43.589ZM100.828 59.973C100.828 60.7515 100.241 61.429 99.474 61.5249L99.598 62.5171C100.879 62.357 101.828 61.2425 101.828 59.973L100.828 59.973ZM99.4779 61.5244L4.24592 72.6604L4.36207 73.6536L99.5941 62.5176L99.4779 61.5244ZM4.304 72.657C3.86178 72.657 3.33908 72.5443 2.94 72.245L2.33999 73.045C2.96492 73.5137 3.72222 73.657 4.304 73.657L4.304 72.657ZM2.99355 72.2914C2.71415 72.012 2.5 71.5045 2.5 70.981L1.5 70.981C1.5 71.7375 1.79784 72.51 2.28644 72.9986L2.99355 72.2914ZM2.5 70.981L2.5 58.053L1.5 58.053L1.5 70.981L2.5 70.981ZM2.5 58.053C2.5 57.2926 3.06757 56.6028 3.97522 56.5019L3.86478 55.5081C2.46842 55.6632 1.5 56.7654 1.5 58.053L2.5 58.053ZM3.92 56.005C3.97289 56.5022 3.97294 56.5022 3.97303 56.5022C3.97312 56.5022 3.97326 56.5022 3.97344 56.5021C3.97381 56.5021 3.97436 56.502 3.97509 56.502C3.97655 56.5018 3.97873 56.5016 3.98163 56.5013C3.98743 56.5006 3.99609 56.4997 4.00753 56.4985C4.0304 56.4961 4.06439 56.4925 4.10887 56.4877C4.19782 56.4782 4.32871 56.4643 4.49647 56.4464C4.83201 56.4107 5.31505 56.3592 5.90509 56.2962C7.08516 56.1702 8.69328 55.9981 10.4054 55.8141C13.8287 55.4462 17.6709 55.03 19.3373 54.8377L19.2227 53.8443C17.5611 54.036 13.7233 54.4518 10.2986 54.8199C8.58671 55.0038 6.97883 55.1758 5.79891 55.3018C5.20895 55.3648 4.72599 55.4163 4.39052 55.4521C4.22278 55.4699 4.09192 55.4839 4.003 55.4933C3.95854 55.4981 3.92457 55.5017 3.9017 55.5041C3.89027 55.5053 3.88162 55.5063 3.87583 55.5069C3.87293 55.5072 3.87075 55.5074 3.86929 55.5076C3.86857 55.5076 3.86802 55.5077 3.86765 55.5077C3.86747 55.5078 3.86733 55.5078 3.86724 55.5078C3.86715 55.5078 3.8671 55.5078 3.92 56.005ZM37.1231 54.5824L50.8191 53.1744L50.7169 52.1796L37.0209 53.5876L37.1231 54.5824ZM50.768 53.177C51.5561 53.177 52.164 52.5691 52.164 51.781L51.164 51.781C51.164 52.0169 51.0039 52.177 50.768 52.177L50.768 53.177ZM52.164 51.781C52.164 50.9793 51.5595 50.4395 50.8893 50.2719L50.6467 51.2421C51.0005 51.3305 51.164 51.5587 51.164 51.781L52.164 51.781ZM50.8145 50.2592L37.1185 48.9792L37.0255 49.9748L50.7215 51.2548L50.8145 50.2592ZM37.072 48.977C36.9021 48.977 36.6717 48.9737 36.4707 49.0239C36.2251 49.0853 35.9964 49.2302 35.8568 49.5094L36.7512 49.9566C36.7519 49.9552 36.7439 49.9701 36.724 49.985C36.7062 49.9983 36.6969 49.9982 36.7133 49.9941C36.7325 49.9893 36.7682 49.9836 36.833 49.9804C36.8981 49.9771 36.9728 49.977 37.072 49.977L37.072 48.977ZM36.0804 49.2858C35.6315 49.5102 35.42 49.9553 35.42 50.373L36.42 50.373C36.42 50.2787 36.4645 50.2118 36.5276 50.1802L36.0804 49.2858ZM35.42 50.373L35.42 53.189L36.42 53.189L36.42 50.373L35.42 50.373ZM35.42 53.189C35.42 53.6067 35.6315 54.0518 36.0804 54.2762L36.5276 53.3818C36.4645 53.3502 36.42 53.2833 36.42 53.189L35.42 53.189ZM35.8568 54.0526C35.9964 54.3318 36.2251 54.4767 36.4707 54.5381C36.6717 54.5883 36.9021 54.585 37.072 54.585L37.072 53.585C36.9728 53.585 36.8981 53.5849 36.833 53.5816C36.7682 53.5784 36.7325 53.5727 36.7133 53.5679C36.6969 53.5638 36.7062 53.5637 36.724 53.577C36.7439 53.5919 36.7519 53.6068 36.7512 53.6054L35.8568 54.0526ZM2.76799 103.809L3.21521 104.033L3.3357 103.792L3.20071 103.558L2.76799 103.809ZM8.14399 80.513L7.8748 80.0916L7.867 80.0966L7.85939 80.1019L8.14399 80.513ZM95.056 80.513L95.3407 80.1018L95.3306 80.0951L95.056 80.513ZM95.056 109.569L94.7786 109.153L94.7732 109.157L95.056 109.569ZM21.84 114.049L21.8756 113.55L21.34 113.512L21.34 114.049L21.84 114.049ZM21.328 117.761L21.628 118.161L21.6564 118.14L21.6816 118.115L21.328 117.761ZM21.712 96.385L21.9151 95.9281L21.893 95.9183L21.8701 95.9107L21.712 96.385ZM81.488 96.385L81.3299 95.9107L81.307 95.9183L81.2849 95.9281L81.488 96.385ZM81.488 93.825L81.2849 94.2819L81.307 94.2917L81.3299 94.2993L81.488 93.825ZM21.712 93.825L21.8701 94.2993L21.893 94.2917L21.9151 94.2819L21.712 93.825ZM3.20071 103.558C1.84178 101.211 1.092 98.3555 1.092 95.105L0.0919987 95.105C0.0919986 98.5104 0.878215 101.543 2.33528 104.06L3.20071 103.558ZM1.092 95.105C1.092 88.8686 3.57187 84.2864 8.4286 80.9241L7.85939 80.1019C2.73211 83.6516 0.091999 88.5414 0.0919987 95.105L1.092 95.105ZM8.41319 80.9343C12.9182 78.0562 19.0884 76.405 27.216 76.405L27.216 75.405C18.9596 75.405 12.5858 77.0818 7.8748 80.0916L8.41319 80.9343ZM27.216 76.405L75.984 76.405L75.984 75.405L27.216 75.405L27.216 76.405ZM75.984 76.405C84.1155 76.405 90.4092 78.0577 94.7814 80.9309L95.3306 80.0951C90.7428 77.0803 84.2365 75.405 75.984 75.405L75.984 76.405ZM94.7714 80.9241C99.6281 84.2864 102.108 88.8686 102.108 95.105L103.108 95.105C103.108 88.5414 100.468 83.6516 95.3406 80.1019L94.7714 80.9241ZM102.108 95.105C102.108 101.217 99.6257 105.922 94.7787 109.153L95.3334 109.985C100.47 106.56 103.108 101.537 103.108 95.105L102.108 95.105ZM94.7732 109.157C90.405 112.152 84.1163 113.805 75.984 113.805L75.984 114.805C84.2357 114.805 90.747 113.13 95.3388 109.981L94.7732 109.157ZM75.984 113.805L27.216 113.805L27.216 114.805L75.984 114.805L75.984 113.805ZM27.216 113.805C25.4448 113.805 23.6706 113.678 21.8756 113.55L21.8044 114.548C23.5934 114.676 25.4032 114.805 27.216 114.805L27.216 113.805ZM21.34 114.049L21.34 116.353L22.34 116.353L22.34 114.049L21.34 114.049ZM21.34 116.353C21.34 116.788 21.2316 117.15 20.9744 117.407L21.6816 118.115C22.1924 117.604 22.34 116.942 22.34 116.353L21.34 116.353ZM21.028 117.361C20.5447 117.723 20.1408 117.901 19.792 117.901L19.792 118.901C20.4671 118.901 21.0873 118.567 21.628 118.161L21.028 117.361ZM19.792 117.901L4.04799 117.901L4.04799 118.901L19.792 118.901L19.792 117.901ZM4.04799 117.901C3.17214 117.901 2.49999 117.229 2.49999 116.353L1.49999 116.353C1.49999 117.781 2.61985 118.901 4.04799 118.901L4.04799 117.901ZM2.49999 116.353L2.5 107.137L1.5 107.137L1.49999 116.353L2.49999 116.353ZM2.5 107.137C2.5 106.058 2.74007 104.983 3.21521 104.033L2.32078 103.585C1.77192 104.683 1.5 105.912 1.5 107.137L2.5 107.137ZM20.06 95.105C20.06 95.5368 20.1943 95.918 20.4806 96.2281C20.7531 96.5233 21.1303 96.7181 21.5539 96.8593L21.8701 95.9107C21.5257 95.7958 21.3269 95.6707 21.2154 95.5499C21.1177 95.444 21.06 95.3132 21.06 95.105L20.06 95.105ZM21.5089 96.8419C22.767 97.4011 24.3993 97.525 26.32 97.525L26.32 96.525C24.4007 96.525 22.9609 96.3929 21.9151 95.9281L21.5089 96.8419ZM26.32 97.525L76.88 97.525L76.88 96.525L26.32 96.525L26.32 97.525ZM76.88 97.525C78.8007 97.525 80.433 97.4011 81.6911 96.8419L81.2849 95.9281C80.239 96.3929 78.7993 96.525 76.88 96.525L76.88 97.525ZM81.6461 96.8593C82.0697 96.7181 82.4469 96.5233 82.7194 96.2281C83.0057 95.918 83.14 95.5368 83.14 95.105L82.14 95.105C82.14 95.3132 82.0823 95.444 81.9846 95.5499C81.8731 95.6707 81.6743 95.7959 81.3299 95.9107L81.6461 96.8593ZM83.14 95.105C83.14 94.6732 83.0057 94.292 82.7194 93.9819C82.4469 93.6867 82.0697 93.4919 81.6461 93.3507L81.3299 94.2993C81.6743 94.4141 81.8731 94.5393 81.9846 94.6601C82.0823 94.766 82.14 94.8968 82.14 95.105L83.14 95.105ZM81.6911 93.3681C80.433 92.8089 78.8007 92.685 76.88 92.685L76.88 93.685C78.7993 93.685 80.239 93.8171 81.2849 94.2819L81.6911 93.3681ZM76.88 92.685L26.32 92.685L26.32 93.685L76.88 93.685L76.88 92.685ZM26.32 92.685C24.3993 92.685 22.767 92.8089 21.5089 93.3681L21.9151 94.2819C22.9609 93.8171 24.4007 93.685 26.32 93.685L26.32 92.685ZM21.5539 93.3507C21.1303 93.4919 20.7531 93.6867 20.4806 93.9819C20.1943 94.292 20.06 94.6732 20.06 95.105L21.06 95.105C21.06 94.8968 21.1177 94.766 21.2154 94.6601C21.3269 94.5393 21.5257 94.4141 21.8701 94.2993L21.5539 93.3507Z" fill="#1A1A1A"/>
</svg>
