<svg width="104" height="708" viewBox="0 0 104 708" fill="none" xmlns="http://www.w3.org/2000/svg">
<path d="M8.144 5.1975L8.41385 5.61846L8.41859 5.61535L8.144 5.1975ZM21.712 17.8695L21.5539 17.3952L21.5202 17.4064L21.4884 17.4223L21.712 17.8695ZM21.2 20.5575L21.465 20.1335L21.4449 20.1209L21.4236 20.1103L21.2 20.5575ZM35.408 19.7895L35.5937 20.2539L35.605 20.2491L35.408 19.7895ZM45.264 13.2615L45.5764 13.652L45.5806 13.6485L45.264 13.2615ZM60.496 3.6615L60.3148 3.1955L60.3069 3.19858L60.299 3.20193L60.496 3.6615ZM95.056 5.4535L95.3334 5.03747L95.3306 5.03565L95.056 5.4535ZM95.056 33.9975L95.3221 34.4208L95.3258 34.4184L95.056 33.9975ZM82.128 20.9415L82.3708 21.3786L82.3885 21.3688L82.4054 21.3575L82.128 20.9415ZM81.616 18.6375L81.8017 18.1733L81.7881 18.1678L81.7741 18.1632L81.616 18.6375ZM69.072 19.6615L68.8863 19.1973L68.8715 19.2032L68.857 19.2101L69.072 19.6615ZM59.344 26.3175L59.6606 26.7045L59.6641 26.7016L59.344 26.3175ZM43.984 35.7895L43.8142 35.3192L43.8071 35.3219L43.984 35.7895ZM8.272 33.8695L8.55485 33.457L8.54449 33.4503L8.272 33.8695ZM1.092 19.4055C1.092 13.2961 3.57164 8.72241 8.41383 5.61843L7.87417 4.77656C2.73236 8.07258 0.0920023 12.9709 0.092002 19.4055L1.092 19.4055ZM8.41859 5.61535C12.7862 2.74518 19.0767 1.2175 27.216 1.2175L27.216 0.217496C18.9713 0.217496 12.4618 1.76181 7.86941 4.77964L8.41859 5.61535ZM27.216 1.2175L33.872 1.2175L33.872 0.217496L27.216 0.217496L27.216 1.2175ZM33.872 1.2175C34.7479 1.2175 35.42 1.88964 35.42 2.7655L36.42 2.7655C36.42 1.33735 35.3001 0.217497 33.872 0.217496L33.872 1.2175ZM35.42 2.7655L35.42 15.1815L36.42 15.1815L36.42 2.7655L35.42 2.7655ZM35.42 15.1815C35.42 16.0574 34.7479 16.7295 33.872 16.7295L33.872 17.7295C35.3001 17.7295 36.42 16.6096 36.42 15.1815L35.42 15.1815ZM33.872 16.7295L26.192 16.7295L26.192 17.7295L33.872 17.7295L33.872 16.7295ZM26.192 16.7295C24.2251 16.7295 22.763 16.9921 21.5539 17.3952L21.8701 18.3438C22.965 17.9789 24.3189 17.7295 26.192 17.7295L26.192 16.7295ZM21.4884 17.4223C21.0835 17.6247 20.7251 17.8526 20.4684 18.1521C20.1962 18.4697 20.06 18.8421 20.06 19.2775L21.06 19.2775C21.06 19.0729 21.1159 18.9333 21.2276 18.8029C21.3549 18.6544 21.5725 18.4983 21.9356 18.3167L21.4884 17.4223ZM20.06 19.2775C20.06 19.8488 20.2037 20.6184 20.9764 21.0047L21.4236 20.1103C21.1723 19.9846 21.06 19.7302 21.06 19.2775L20.06 19.2775ZM20.935 20.9815C21.5378 21.3583 22.3265 21.5621 23.2329 21.6775C24.1456 21.7937 25.2277 21.8255 26.448 21.8255L26.448 20.8255C25.2363 20.8255 24.2064 20.7933 23.3591 20.6855C22.5055 20.5769 21.8862 20.3967 21.465 20.1335L20.935 20.9815ZM26.448 21.8255C29.9534 21.8255 32.9628 21.3061 35.5937 20.2537L35.2223 19.3253C32.7332 20.3209 29.8546 20.8255 26.448 20.8255L26.448 21.8255ZM35.605 20.2491C38.3597 19.0684 41.7326 16.727 45.5764 13.6519L44.9517 12.8711C41.1154 15.94 37.8323 18.2065 35.211 19.3299L35.605 20.2491ZM45.5806 13.6485C51.1826 9.06502 56.2629 6.01965 60.693 4.12107L60.299 3.20193C55.7691 5.14334 50.6094 8.24197 44.9474 12.8745L45.5806 13.6485ZM60.6772 4.1275C65.2176 2.36181 70.4024 1.4735 76.24 1.4735L76.24 0.473498C70.3016 0.473498 64.9904 1.37718 60.3148 3.1955L60.6772 4.1275ZM76.24 1.4735C84.2485 1.4735 90.4122 3.00012 94.7814 5.87135L95.3306 5.03565C90.7399 2.01887 84.3595 0.473499 76.24 0.473498L76.24 1.4735ZM94.7787 5.86952C99.6291 9.10317 102.108 13.6817 102.108 19.7895L103.108 19.7895C103.108 13.3533 100.467 8.45983 95.3334 5.03747L94.7787 5.86952ZM102.108 19.7895C102.108 25.8989 99.6284 30.4726 94.7862 33.5766L95.3258 34.4184C100.468 31.1224 103.108 26.2241 103.108 19.7895L102.108 19.7895ZM94.7899 33.5742C90.4175 36.3225 84.2494 37.8495 75.984 37.8495L75.984 38.8495C84.3586 38.8495 90.7345 37.3045 95.3221 34.4208L94.7899 33.5742ZM75.984 37.8495L70.864 37.8495L70.864 38.8495L75.984 38.8495L75.984 37.8495ZM70.864 37.8495C70.0266 37.8495 69.316 37.0894 69.316 36.1735L68.316 36.1735C68.316 37.5616 69.3974 38.8495 70.864 38.8495L70.864 37.8495ZM69.316 36.1735L69.316 23.8855L68.316 23.8855L68.316 36.1735L69.316 36.1735ZM69.316 23.8855C69.316 22.9696 70.0266 22.2095 70.864 22.2095L70.864 21.2095C69.3974 21.2095 68.316 22.4974 68.316 23.8855L69.316 23.8855ZM70.864 22.2095L76.88 22.2095L76.88 21.2095L70.864 21.2095L70.864 22.2095ZM76.88 22.2095C79.2907 22.2095 81.0877 22.0914 82.3708 21.3786L81.8852 20.5044C80.8643 21.0716 79.3333 21.2095 76.88 21.2095L76.88 22.2095ZM82.4054 21.3575C82.9667 20.9833 83.14 20.4168 83.14 19.9175L82.14 19.9175C82.14 20.1862 82.0573 20.3877 81.8507 20.5255L82.4054 21.3575ZM83.14 19.9175C83.14 19.4872 83.0071 19.1147 82.7497 18.8105C82.5018 18.5176 82.1644 18.3183 81.8017 18.1733L81.4303 19.1017C81.7077 19.2127 81.8822 19.3334 81.9863 19.4565C82.0809 19.5683 82.14 19.7078 82.14 19.9175L83.14 19.9175ZM81.7741 18.1632C80.565 17.7601 79.1029 17.4975 77.136 17.4975L77.136 18.4975C79.0091 18.4975 80.363 18.7469 81.4579 19.1118L81.7741 18.1632ZM77.136 17.4975C74.243 17.4975 71.4915 18.1552 68.8863 19.1973L69.2577 20.1257C71.7725 19.1198 74.397 18.4975 77.136 18.4975L77.136 17.4975ZM68.857 19.2101C66.1154 20.5156 62.8788 22.721 59.0239 25.9334L59.6641 26.7016C63.4892 23.514 66.6526 21.3674 69.287 20.1129L68.857 19.2101ZM59.0274 25.9305C53.4172 30.5207 48.3474 33.6822 43.8142 35.3192L44.1538 36.2598C48.8366 34.5688 54.0068 31.3303 59.6606 26.7045L59.0274 25.9305ZM43.8071 35.3219C39.1393 37.088 33.6975 37.9775 27.472 37.9775L27.472 38.9775C33.7905 38.9775 39.3567 38.075 44.1609 36.2571L43.8071 35.3219ZM27.472 37.9775C19.2029 37.9775 12.9181 36.4491 8.55476 33.4571L7.98923 34.2819C12.5859 37.4339 19.1011 38.9775 27.472 38.9775L27.472 37.9775ZM8.54449 33.4503C3.57097 30.2175 1.092 25.6418 1.092 19.4055L0.092002 19.4055C0.0920017 25.9692 2.73302 30.8655 7.9995 34.2887L8.54449 33.4503ZM8.144 45.8255L7.8748 45.4041L7.867 45.4091L7.8594 45.4144L8.144 45.8255ZM95.056 45.8255L95.3407 45.4143L95.3306 45.4076L95.056 45.8255ZM95.056 74.8815L94.7786 74.4654L94.7732 74.4691L95.056 74.8815ZM8.14399 74.8815L8.42135 74.4655L8.14399 74.8815ZM21.712 61.6975L21.9151 61.2406L21.893 61.2308L21.8701 61.2232L21.712 61.6975ZM81.488 61.6975L81.3299 61.2232L81.307 61.2308L81.2849 61.2406L81.488 61.6975ZM81.488 59.1375L81.2849 59.5944L81.307 59.6042L81.3299 59.6118L81.488 59.1375ZM21.712 59.1375L21.8701 59.6118L21.893 59.6042L21.9151 59.5944L21.712 59.1375ZM1.092 60.4175C1.092 54.1811 3.57187 49.5989 8.4286 46.2366L7.8594 45.4144C2.73211 48.9641 0.0920005 53.8539 0.0920002 60.4175L1.092 60.4175ZM8.41319 46.2468C12.9182 43.3687 19.0884 41.7175 27.216 41.7175L27.216 40.7175C18.9596 40.7175 12.5858 42.3943 7.8748 45.4041L8.41319 46.2468ZM27.216 41.7175L75.984 41.7175L75.984 40.7175L27.216 40.7175L27.216 41.7175ZM75.984 41.7175C84.1155 41.7175 90.4092 43.3702 94.7814 46.2434L95.3306 45.4076C90.7428 42.3928 84.2365 40.7175 75.984 40.7175L75.984 41.7175ZM94.7714 46.2366C99.6281 49.5989 102.108 54.1811 102.108 60.4175L103.108 60.4175C103.108 53.8539 100.468 48.9641 95.3406 45.4144L94.7714 46.2366ZM102.108 60.4175C102.108 66.5295 99.6257 71.2341 94.7787 74.4655L95.3334 75.2975C100.47 71.8729 103.108 66.8495 103.108 60.4175L102.108 60.4175ZM94.7732 74.4691C90.405 77.4645 84.1163 79.1175 75.984 79.1175L75.984 80.1175C84.2357 80.1175 90.747 78.4425 95.3388 75.2939L94.7732 74.4691ZM75.984 79.1175L27.216 79.1175L27.216 80.1175L75.984 80.1175L75.984 79.1175ZM27.216 79.1175C19.0877 79.1175 12.9223 77.4661 8.42135 74.4655L7.86665 75.2975C12.5817 78.4409 18.9603 80.1175 27.216 80.1175L27.216 79.1175ZM8.42135 74.4655C3.57429 71.2341 1.092 66.5295 1.092 60.4175L0.0920002 60.4175C0.0919999 66.8495 2.72969 71.8729 7.86665 75.2975L8.42135 74.4655ZM20.06 60.4175C20.06 60.8493 20.1943 61.2305 20.4806 61.5406C20.7531 61.8358 21.1303 62.0306 21.5539 62.1718L21.8701 61.2232C21.5257 61.1084 21.3269 60.9832 21.2154 60.8624C21.1177 60.7565 21.06 60.6257 21.06 60.4175L20.06 60.4175ZM21.5089 62.1544C22.767 62.7136 24.3993 62.8375 26.32 62.8375L26.32 61.8375C24.4007 61.8375 22.961 61.7054 21.9151 61.2406L21.5089 62.1544ZM26.32 62.8375L76.88 62.8375L76.88 61.8375L26.32 61.8375L26.32 62.8375ZM76.88 62.8375C78.8007 62.8375 80.433 62.7136 81.6911 62.1544L81.2849 61.2406C80.239 61.7054 78.7993 61.8375 76.88 61.8375L76.88 62.8375ZM81.6461 62.1718C82.0697 62.0306 82.4469 61.8358 82.7194 61.5406C83.0057 61.2305 83.14 60.8493 83.14 60.4175L82.14 60.4175C82.14 60.6257 82.0823 60.7565 81.9846 60.8624C81.8731 60.9832 81.6743 61.1084 81.3299 61.2232L81.6461 62.1718ZM83.14 60.4175C83.14 59.9857 83.0057 59.6045 82.7194 59.2944C82.4469 58.9992 82.0697 58.8044 81.6461 58.6632L81.3299 59.6118C81.6743 59.7266 81.8731 59.8518 81.9846 59.9726C82.0823 60.0785 82.14 60.2093 82.14 60.4175L83.14 60.4175ZM81.6911 58.6806C80.433 58.1214 78.8007 57.9975 76.88 57.9975L76.88 58.9975C78.7993 58.9975 80.239 59.1296 81.2849 59.5944L81.6911 58.6806ZM76.88 57.9975L26.32 57.9975L26.32 58.9975L76.88 58.9975L76.88 57.9975ZM26.32 57.9975C24.3993 57.9975 22.767 58.1214 21.5089 58.6806L21.9151 59.5944C22.961 59.1296 24.4007 58.9975 26.32 58.9975L26.32 57.9975ZM21.5539 58.6632C21.1303 58.8044 20.7531 58.9992 20.4806 59.2944C20.1943 59.6045 20.06 59.9857 20.06 60.4175L21.06 60.4175C21.06 60.2093 21.1177 60.0785 21.2154 59.9726C21.3269 59.8518 21.5257 59.7266 21.8701 59.6118L21.5539 58.6632ZM82 116.006L81.6464 116.36L82 116.006ZM81.104 99.7505L81.4576 99.3969L81.4002 99.3396L81.3276 99.3033L81.104 99.7505ZM63.568 99.7505L63.7916 100.198L63.8642 100.161L63.9216 100.104L63.568 99.7505ZM62.672 112.294L63.0255 112.648L63.0256 112.648L62.672 112.294ZM43.856 112.294L43.5024 112.648L43.5276 112.673L43.556 112.695L43.856 112.294ZM43.088 99.7505L43.4415 99.3969L43.3842 99.3396L43.3116 99.3033L43.088 99.7505ZM2.512 98.8545L2.15844 99.208L2.512 98.8545ZM2.512 82.9825L2.86555 83.336L2.512 82.9825ZM100.828 84.3905L100.828 114.471L101.828 114.471L101.828 84.3905L100.828 84.3905ZM100.828 114.471C100.828 115.346 100.028 116.146 99.152 116.146L99.152 117.146C100.58 117.146 101.828 115.899 101.828 114.471L100.828 114.471ZM99.152 116.146L83.408 116.146L83.408 117.146L99.152 117.146L99.152 116.146ZM83.408 116.146C83.0586 116.146 82.6674 115.967 82.3535 115.653L81.6464 116.36C82.1006 116.814 82.7334 117.146 83.408 117.146L83.408 116.146ZM82.3535 115.653C82.053 115.352 81.86 114.964 81.86 114.471L80.86 114.471C80.86 115.257 81.179 115.893 81.6464 116.36L82.3535 115.653ZM81.86 114.471L81.86 100.391L80.86 100.391L80.86 114.471L81.86 114.471ZM81.86 100.391C81.86 99.9932 81.673 99.6124 81.4576 99.3969L80.7504 100.104C80.7616 100.115 80.7927 100.155 80.8204 100.219C80.8473 100.282 80.86 100.343 80.86 100.391L81.86 100.391ZM81.3276 99.3033C81.1006 99.1898 80.733 98.9945 80.336 98.9945L80.336 99.9945C80.451 99.9945 80.5954 100.055 80.8804 100.198L81.3276 99.3033ZM80.336 98.9945L64.208 98.9945L64.208 99.9945L80.336 99.9945L80.336 98.9945ZM64.208 98.9945C63.8107 98.9945 63.4299 99.1815 63.2144 99.3969L63.9216 100.104C63.9327 100.093 63.9722 100.062 64.037 100.034C64.0996 100.007 64.1604 99.9945 64.208 99.9945L64.208 98.9945ZM63.3444 99.3033C63.073 99.439 62.9278 99.6591 62.8632 99.8851C62.8084 100.077 62.812 100.28 62.812 100.391L63.812 100.391C63.812 100.323 63.8122 100.276 63.815 100.233C63.8177 100.191 63.8221 100.169 63.8248 100.16C63.8268 100.153 63.8252 100.162 63.8138 100.177C63.8013 100.193 63.7898 100.199 63.7916 100.198L63.3444 99.3033ZM62.812 100.391L62.812 110.887L63.812 110.887L63.812 100.391L62.812 100.391ZM62.812 110.887C62.812 111.236 62.6323 111.627 62.3184 111.941L63.0256 112.648C63.4797 112.194 63.812 111.561 63.812 110.887L62.812 110.887ZM62.3184 111.941C62.0293 112.23 61.5169 112.434 61.136 112.434L61.136 113.434C61.7791 113.434 62.5467 113.127 63.0255 112.648L62.3184 111.941ZM61.136 112.434L45.392 112.434L45.392 113.434L61.136 113.434L61.136 112.434ZM45.392 112.434C45.0431 112.434 44.6393 112.257 44.156 111.894L43.556 112.695C44.0967 113.1 44.7168 113.434 45.392 113.434L45.392 112.434ZM44.2096 111.941C43.9524 111.684 43.844 111.321 43.844 110.887L42.844 110.887C42.844 111.476 42.9916 112.137 43.5024 112.648L44.2096 111.941ZM43.844 110.887L43.844 100.39L42.844 100.39L42.844 110.887L43.844 110.887ZM43.844 100.39C43.844 99.9932 43.657 99.6124 43.4415 99.3969L42.7344 100.104C42.7456 100.115 42.7767 100.155 42.8044 100.219C42.8313 100.282 42.844 100.343 42.844 100.39L43.844 100.39ZM43.3116 99.3033C43.0846 99.1898 42.717 98.9945 42.32 98.9945L42.32 99.9945C42.435 99.9945 42.5794 100.055 42.8644 100.198L43.3116 99.3033ZM42.32 98.9945L4.04799 98.9945L4.04799 99.9945L42.32 99.9945L42.32 98.9945ZM4.04799 98.9945C3.66709 98.9945 3.15472 98.7901 2.86555 98.5009L2.15844 99.208C2.63728 99.6869 3.4049 99.9945 4.04799 99.9945L4.04799 98.9945ZM2.86555 98.5009C2.60839 98.2438 2.5 97.8814 2.5 97.4465L1.5 97.4465C1.5 98.0356 1.6476 98.6972 2.15844 99.208L2.86555 98.5009ZM2.5 97.4465L2.5 84.3905L1.5 84.3905L1.5 97.4465L2.5 97.4465ZM2.5 84.3905C2.5 83.9556 2.60839 83.5932 2.86555 83.336L2.15844 82.6289C1.6476 83.1398 1.5 83.8014 1.5 84.3905L2.5 84.3905ZM2.86555 83.336C3.15472 83.0469 3.66709 82.8425 4.04799 82.8425L4.04799 81.8425C3.4049 81.8425 2.63728 82.1501 2.15844 82.6289L2.86555 83.336ZM4.04799 82.8425L99.152 82.8425L99.152 81.8425L4.04799 81.8425L4.04799 82.8425ZM99.152 82.8425C100.068 82.8425 100.828 83.5531 100.828 84.3905L101.828 84.3905C101.828 82.9239 100.54 81.8425 99.152 81.8425L99.152 82.8425ZM81.104 129.967L81.3276 130.414L81.4002 130.377L81.4576 130.32L81.104 129.967ZM82 119.982L81.6464 119.629L81.6464 119.629L82 119.982ZM82 157.615L82.3535 157.261L82.3284 157.236L82.3 157.215L82 157.615ZM81.104 147.63L81.5512 147.407L81.4767 147.258L81.3276 147.183L81.104 147.63ZM4.04799 130.722L80.336 130.723L80.336 129.723L4.04799 129.722L4.04799 130.722ZM80.336 130.723C80.733 130.723 81.1006 130.527 81.3276 130.414L80.8804 129.519C80.5954 129.662 80.451 129.723 80.336 129.723L80.336 130.723ZM81.4576 130.32C81.673 130.105 81.86 129.724 81.86 129.327L80.86 129.327C80.86 129.374 80.8473 129.435 80.8204 129.498C80.7927 129.562 80.7616 129.602 80.7504 129.613L81.4576 130.32ZM81.86 129.327L81.86 121.391L80.86 121.391L80.86 129.327L81.86 129.327ZM81.86 121.391C81.86 121.041 82.0397 120.65 82.3536 120.336L81.6464 119.629C81.1923 120.083 80.86 120.716 80.86 121.391L81.86 121.391ZM82.3535 120.336C82.6674 120.022 83.0586 119.842 83.408 119.842L83.408 118.842C82.7334 118.842 82.1006 119.175 81.6464 119.629L82.3535 120.336ZM83.408 119.842L99.152 119.842L99.152 118.842L83.408 118.842L83.408 119.842ZM99.152 119.842C99.6455 119.842 100.034 120.036 100.334 120.336L101.042 119.629C100.574 119.161 99.9385 118.842 99.152 118.842L99.152 119.842ZM100.334 120.336C100.648 120.65 100.828 121.041 100.828 121.391L101.828 121.391C101.828 120.716 101.496 120.083 101.042 119.629L100.334 120.336ZM100.828 121.391L100.828 156.206L101.828 156.206L101.828 121.391L100.828 121.391ZM100.828 156.206C100.828 156.556 100.648 156.947 100.334 157.261L101.042 157.968C101.496 157.514 101.828 156.881 101.828 156.206L100.828 156.206ZM100.334 157.261C100.034 157.561 99.6455 157.755 99.152 157.755L99.152 158.755C99.9385 158.755 100.574 158.436 101.042 157.968L100.334 157.261ZM99.152 157.755L83.408 157.754L83.408 158.754L99.152 158.755L99.152 157.755ZM83.408 157.754C83.0586 157.754 82.6674 157.575 82.3535 157.261L81.6464 157.968C82.1006 158.422 82.7334 158.754 83.408 158.754L83.408 157.754ZM82.3 157.215C81.9593 156.959 81.86 156.628 81.86 156.206L80.86 156.206C80.86 156.809 81.0167 157.502 81.7 158.014L82.3 157.215ZM81.86 156.206L81.86 148.271L80.86 148.271L80.86 156.206L81.86 156.206ZM81.86 148.271C81.86 148.045 81.7997 147.872 81.7272 147.727C81.695 147.663 81.6583 147.6 81.6311 147.553C81.6015 147.501 81.576 147.457 81.5512 147.407L80.6568 147.854C80.696 147.932 80.7345 148 80.7649 148.052C80.7977 148.109 80.817 148.142 80.8328 148.174C80.8562 148.221 80.86 148.24 80.86 148.271L81.86 148.271ZM81.3276 147.183C81.1006 147.07 80.733 146.874 80.336 146.874L80.336 147.874C80.451 147.874 80.5954 147.935 80.8804 148.078L81.3276 147.183ZM80.336 146.874L4.04799 146.874L4.04799 147.874L80.336 147.874L80.336 146.874ZM4.04799 146.874C3.17214 146.874 2.49999 146.202 2.49999 145.327L1.49999 145.327C1.49999 146.755 2.61985 147.874 4.04799 147.874L4.04799 146.874ZM2.49999 145.327L2.49999 132.271L1.49999 132.271L1.49999 145.327L2.49999 145.327ZM2.49999 132.271C2.49999 131.395 3.17214 130.722 4.04799 130.722L4.04799 129.722C2.61985 129.722 1.49999 130.842 1.49999 132.271L2.49999 132.271ZM71.504 179.271L71.4768 178.772L71.4738 179.771L71.504 179.271ZM99.28 180.936L99.3352 180.439L99.322 180.437L99.3088 180.436L99.28 180.936ZM99.28 198.855L99.28 198.355L99.2656 198.355L99.2512 198.356L99.28 198.855ZM71.504 200.519L71.4737 200.02L71.4768 201.019L71.504 200.519ZM99.28 202.056L99.2512 202.555L99.2656 202.556L99.28 202.556L99.28 202.056ZM100.56 217.288L100.914 217.641L100.914 217.641L100.56 217.288ZM99.024 217.799L98.9877 218.298L99.0058 218.299L99.024 218.299L99.024 217.799ZM3.91999 210.887L3.86477 211.384L3.87424 211.385L3.88375 211.386L3.91999 210.887ZM3.91999 191.431L3.91999 191.931L3.93135 191.931L3.94269 191.931L3.91999 191.431ZM43.984 189.767L44.0042 190.267L44.0042 189.268L43.984 189.767ZM3.91999 188.103L3.9427 187.604L3.93135 187.603L3.91999 187.603L3.91999 188.103ZM3.91999 167.879L3.88375 167.381L3.87424 167.381L3.86478 167.383L3.91999 167.879ZM99.024 160.967L99.024 160.467L99.0058 160.467L98.9878 160.469L99.024 160.967ZM100.56 161.48L100.206 161.833L100.232 161.858L100.26 161.88L100.56 161.48ZM99.28 177.736L99.28 177.236L99.2656 177.236L99.2512 177.236L99.28 177.736ZM71.504 179.271C71.4738 179.771 71.4738 179.771 71.474 179.771C71.4742 179.771 71.4744 179.771 71.4747 179.771C71.4754 179.771 71.4763 179.771 71.4776 179.771C71.4802 179.771 71.484 179.771 71.4891 179.772C71.4993 179.772 71.5145 179.773 71.5345 179.774C71.5747 179.777 71.6344 179.78 71.7126 179.785C71.8689 179.795 72.099 179.808 72.3943 179.826C72.9848 179.862 73.8358 179.914 74.8778 179.977C76.9618 180.103 79.8099 180.275 82.8659 180.459C88.9777 180.827 95.9224 181.243 99.2512 181.435L99.3088 180.436C95.9816 180.244 89.0382 179.828 82.926 179.46C79.8701 179.276 77.0221 179.104 74.9382 178.978C73.8962 178.915 73.0452 178.864 72.4547 178.828C72.1595 178.81 71.9293 178.796 71.773 178.787C71.6949 178.782 71.6352 178.779 71.595 178.776C71.5749 178.775 71.5597 178.774 71.5496 178.773C71.5445 178.773 71.5407 178.773 71.5381 178.773C71.5368 178.773 71.5359 178.773 71.5352 178.772C71.5349 178.772 71.5346 178.772 71.5345 178.772C71.5343 178.772 71.5342 178.772 71.504 179.271ZM99.2248 181.432C100.174 181.538 100.828 182.262 100.828 182.984L101.828 182.984C101.828 181.657 100.69 180.589 99.3352 180.439L99.2248 181.432ZM100.828 182.984L100.828 196.807L101.828 196.807L101.828 182.984L100.828 182.984ZM100.828 196.807C100.828 197.576 100.136 198.355 99.28 198.355L99.28 199.355C100.728 199.355 101.828 198.087 101.828 196.807L100.828 196.807ZM99.2512 198.356C95.9224 198.548 88.9777 198.964 82.8659 199.332C79.8099 199.516 76.9618 199.688 74.8778 199.814C73.8358 199.877 72.9848 199.929 72.3943 199.965C72.099 199.983 71.8689 199.996 71.7126 200.006C71.6344 200.011 71.5747 200.014 71.5345 200.017C71.5145 200.018 71.4993 200.019 71.4891 200.019C71.484 200.02 71.4802 200.02 71.4776 200.02C71.4763 200.02 71.4754 200.02 71.4747 200.02C71.4744 200.02 71.4742 200.02 71.474 200.02C71.4738 200.02 71.4737 200.02 71.504 200.519C71.5342 201.019 71.5343 201.019 71.5345 201.019C71.5346 201.019 71.5349 201.019 71.5352 201.019C71.5358 201.018 71.5368 201.018 71.5381 201.018C71.5407 201.018 71.5445 201.018 71.5496 201.018C71.5597 201.017 71.5749 201.016 71.595 201.015C71.6352 201.012 71.6949 201.009 71.773 201.004C71.9293 200.995 72.1595 200.981 72.4547 200.963C73.0452 200.927 73.8962 200.876 74.9382 200.813C77.0221 200.687 79.8701 200.515 82.926 200.331C89.0382 199.963 95.9816 199.547 99.3088 199.355L99.2512 198.356ZM71.504 200.519C71.4768 201.019 71.4768 201.019 71.477 201.019C71.4772 201.019 71.4774 201.019 71.4777 201.019C71.4784 201.019 71.4793 201.019 71.4806 201.019C71.4832 201.019 71.487 201.019 71.4921 201.02C71.5023 201.02 71.5175 201.021 71.5375 201.022C71.5777 201.024 71.6374 201.028 71.7156 201.032C71.8719 201.04 72.102 201.053 72.3972 201.069C72.9877 201.101 73.8387 201.148 74.8807 201.205C76.9647 201.319 79.8126 201.475 82.8685 201.643C88.9808 201.979 95.924 202.363 99.2512 202.555L99.3088 201.556C95.98 201.364 89.0352 200.98 82.9234 200.644C79.8674 200.476 77.0193 200.32 74.9353 200.206C73.8933 200.149 73.0423 200.103 72.4518 200.07C72.1565 200.054 71.9264 200.042 71.7701 200.033C71.6919 200.029 71.6322 200.026 71.592 200.024C71.5719 200.022 71.5567 200.022 71.5466 200.021C71.5415 200.021 71.5376 200.021 71.5351 200.02C71.5338 200.02 71.5328 200.02 71.5322 200.02C71.5319 200.02 71.5316 200.02 71.5315 200.02C71.5313 200.02 71.5312 200.02 71.504 200.519ZM99.28 202.556C100.136 202.556 100.828 203.335 100.828 204.103L101.828 204.103C101.828 202.824 100.728 201.556 99.28 201.556L99.28 202.556ZM100.828 204.103L100.828 215.751L101.828 215.751L101.828 204.103L100.828 204.103ZM100.828 215.751C100.828 216.084 100.664 216.476 100.206 216.934L100.914 217.641C101.48 217.075 101.828 216.443 101.828 215.751L100.828 215.751ZM100.206 216.934C99.957 217.183 99.6031 217.299 99.024 217.299L99.024 218.299C99.7249 218.299 100.395 218.16 100.914 217.641L100.206 216.934ZM99.0602 217.301L3.95624 210.389L3.88375 211.386L98.9877 218.298L99.0602 217.301ZM3.9752 210.391C3.06756 210.29 2.49999 209.6 2.49999 208.84L1.49999 208.84C1.49999 210.127 2.46841 211.229 3.86477 211.384L3.9752 210.391ZM2.49999 208.84L2.49999 193.479L1.49999 193.479L1.49999 208.84L2.49999 208.84ZM2.49999 193.479C2.49999 192.667 3.10476 191.931 3.91999 191.931L3.91999 190.931C2.43122 190.931 1.49999 192.244 1.49999 193.479L2.49999 193.479ZM3.94269 191.931C8.16534 191.739 18.1801 191.323 27.1405 190.955C31.6204 190.771 35.8364 190.599 38.9323 190.473C40.4803 190.41 41.7483 190.359 42.6293 190.323C43.0698 190.305 43.4135 190.291 43.6471 190.282C43.7639 190.277 43.8532 190.273 43.9133 190.271C43.9433 190.27 43.966 190.269 43.9813 190.268C43.9889 190.268 43.9946 190.267 43.9985 190.267C44.0004 190.267 44.0018 190.267 44.0028 190.267C44.0033 190.267 44.0036 190.267 44.0039 190.267C44.0041 190.267 44.0042 190.267 43.984 189.767C43.9638 189.268 43.9636 189.268 43.9634 189.268C43.9632 189.268 43.9628 189.268 43.9623 189.268C43.9614 189.268 43.9599 189.268 43.958 189.268C43.9542 189.268 43.9484 189.269 43.9408 189.269C43.9256 189.269 43.9028 189.27 43.8728 189.272C43.8127 189.274 43.7234 189.278 43.6066 189.282C43.373 189.292 43.0292 189.306 42.5887 189.324C41.7077 189.359 40.4397 189.411 38.8917 189.474C35.7956 189.6 31.5796 189.772 27.0995 189.956C18.1399 190.324 8.12264 190.74 3.89728 190.932L3.94269 191.931ZM43.984 189.767C44.0042 189.268 44.0041 189.268 44.0039 189.268C44.0036 189.268 44.0033 189.268 44.0028 189.268C44.0018 189.268 44.0004 189.268 43.9985 189.268C43.9946 189.268 43.9889 189.267 43.9813 189.267C43.966 189.266 43.9433 189.265 43.9133 189.264C43.8532 189.262 43.7639 189.258 43.6471 189.253C43.4135 189.244 43.0698 189.23 42.6293 189.212C41.7483 189.176 40.4803 189.125 38.9323 189.062C35.8364 188.936 31.6204 188.764 27.1405 188.58C18.1801 188.212 8.16534 187.796 3.9427 187.604L3.89728 188.603C8.12264 188.795 18.1399 189.211 27.0995 189.579C31.5796 189.763 35.7956 189.935 38.8917 190.061C40.4397 190.124 41.7077 190.176 42.5887 190.211C43.0292 190.229 43.373 190.243 43.6066 190.253C43.7234 190.257 43.8127 190.261 43.8728 190.263C43.9028 190.265 43.9256 190.266 43.9408 190.266C43.9484 190.266 43.9542 190.267 43.958 190.267C43.9599 190.267 43.9614 190.267 43.9623 190.267C43.9628 190.267 43.9632 190.267 43.9634 190.267C43.9636 190.267 43.9638 190.267 43.984 189.767ZM3.91999 187.603C3.08598 187.603 2.49999 186.975 2.49999 186.055L1.49999 186.055C1.49999 187.44 2.45001 188.603 3.91999 188.603L3.91999 187.603ZM2.49999 186.055L2.49999 169.928L1.49999 169.928L1.49999 186.055L2.49999 186.055ZM2.49999 169.928C2.49999 169.167 3.06757 168.477 3.97521 168.376L3.86478 167.383C2.46841 167.538 1.49999 168.64 1.49999 169.928L2.49999 169.928ZM3.95624 168.378L99.0602 161.466L98.9878 160.469L3.88375 167.381L3.95624 168.378ZM99.024 161.467C99.6031 161.467 99.957 161.584 100.206 161.833L100.914 161.126C100.395 160.607 99.7249 160.467 99.024 160.467L99.024 161.467ZM100.26 161.88C100.632 162.159 100.828 162.643 100.828 163.016L101.828 163.016C101.828 162.364 101.512 161.568 100.86 161.079L100.26 161.88ZM100.828 163.016L100.828 175.687L101.828 175.687L101.828 163.016L100.828 163.016ZM100.828 175.687C100.828 176.456 100.136 177.236 99.28 177.236L99.28 178.236C100.728 178.236 101.828 176.967 101.828 175.687L100.828 175.687ZM99.2512 177.236C95.924 177.428 88.9808 177.812 82.8685 178.148C79.8126 178.316 76.9647 178.472 74.8807 178.586C73.8387 178.643 72.9877 178.69 72.3972 178.722C72.102 178.738 71.8719 178.751 71.7156 178.759C71.6374 178.763 71.5777 178.767 71.5375 178.769C71.5175 178.77 71.5023 178.771 71.4921 178.771C71.487 178.772 71.4832 178.772 71.4806 178.772C71.4793 178.772 71.4784 178.772 71.4777 178.772C71.4774 178.772 71.4772 178.772 71.477 178.772C71.4768 178.772 71.4768 178.772 71.504 179.271C71.5312 179.771 71.5313 179.771 71.5315 179.771C71.5316 179.771 71.5319 179.771 71.5322 179.771C71.5328 179.771 71.5338 179.771 71.5351 179.771C71.5376 179.77 71.5415 179.77 71.5466 179.77C71.5567 179.769 71.5719 179.769 71.592 179.767C71.6322 179.765 71.6919 179.762 71.7701 179.758C71.9264 179.749 72.1565 179.737 72.4518 179.721C73.0423 179.688 73.8933 179.642 74.9353 179.585C77.0193 179.471 79.8674 179.315 82.9234 179.147C89.0352 178.811 95.98 178.427 99.3088 178.235L99.2512 177.236ZM19.152 238.028L19.152 237.528L19.1232 237.528L19.0947 237.532L19.152 238.028ZM19.28 232.14L19.2248 232.637L19.2523 232.64L19.28 232.64L19.28 232.14ZM3.79199 230.476L3.72996 230.973L3.7391 230.974L3.79199 230.476ZM2.63999 214.605L2.33999 214.204L2.31156 214.226L2.28644 214.251L2.63999 214.605ZM4.30399 214.092L4.36214 213.596L4.33317 213.592L4.30399 213.592L4.30399 214.092ZM99.408 225.228L99.47 224.732L99.4661 224.732L99.408 225.228ZM99.408 245.708L99.4661 246.205L99.47 246.205L99.408 245.708ZM4.30399 256.845L4.30399 257.345L4.33316 257.345L4.36214 257.341L4.30399 256.845ZM2.63999 256.332L2.28643 256.686L2.31156 256.711L2.33999 256.733L2.63999 256.332ZM3.79199 239.692L3.73909 239.195L3.72997 239.196L3.79199 239.692ZM36.944 237.773L36.944 238.273L36.9694 238.273L36.9947 238.27L36.944 237.773ZM50.768 236.364L50.768 235.864L50.7426 235.864L50.7173 235.867L50.768 236.364ZM50.768 234.572L50.7173 235.07L50.7426 235.072L50.768 235.072L50.768 234.572ZM36.944 233.165L36.9947 232.667L36.9694 232.665L36.944 232.665L36.944 233.165ZM36.176 233.42L36.5295 233.774L36.5295 233.774L36.176 233.42ZM36.176 237.516L36.5295 237.163L36.176 237.516ZM19.152 238.528C19.9401 238.528 20.548 237.921 20.548 237.133L19.548 237.133C19.548 237.368 19.3878 237.528 19.152 237.528L19.152 238.528ZM20.548 237.133L20.548 233.036L19.548 233.036L19.548 237.133L20.548 237.133ZM20.548 233.036C20.548 232.299 19.9884 231.64 19.28 231.64L19.28 232.64C19.3052 232.64 19.369 232.656 19.4363 232.731C19.4999 232.802 19.548 232.907 19.548 233.036L20.548 233.036ZM19.3352 231.644C17.606 231.451 13.7328 231.035 10.2932 230.667C8.57309 230.483 6.96103 230.311 5.77899 230.185C5.18797 230.122 4.70445 230.071 4.36868 230.035C4.2008 230.017 4.06985 230.003 3.98087 229.994C3.93638 229.989 3.90239 229.985 3.87951 229.983C3.86808 229.982 3.85942 229.981 3.85362 229.98C3.85072 229.98 3.84854 229.98 3.84708 229.98C3.84635 229.979 3.8458 229.979 3.84543 229.979C3.84525 229.979 3.84511 229.979 3.84502 229.979C3.84493 229.979 3.84488 229.979 3.79199 230.476C3.7391 230.974 3.73914 230.974 3.73923 230.974C3.73932 230.974 3.73946 230.974 3.73964 230.974C3.74001 230.974 3.74056 230.974 3.74128 230.974C3.74274 230.974 3.74493 230.974 3.74782 230.975C3.75362 230.975 3.76227 230.976 3.77371 230.977C3.79657 230.98 3.83056 230.983 3.87504 230.988C3.964 230.998 4.09494 231.012 4.2628 231.029C4.59853 231.065 5.08201 231.117 5.67299 231.18C6.85495 231.306 8.46689 231.478 10.1868 231.662C13.6272 232.03 17.498 232.446 19.2248 232.637L19.3352 231.644ZM3.85401 229.98C3.08679 229.884 2.49999 229.207 2.49999 228.428L1.49999 228.428C1.49999 229.698 2.44919 230.813 3.72997 230.973L3.85401 229.98ZM2.49999 228.428L2.49999 216.14L1.49999 216.14L1.49999 228.428L2.49999 228.428ZM2.49999 216.14C2.49999 215.76 2.70437 215.247 2.99354 214.958L2.28644 214.251C1.80761 214.73 1.49999 215.497 1.49999 216.14L2.49999 216.14ZM2.93999 215.004C3.34645 214.7 3.74575 214.592 4.30399 214.592L4.30399 213.592C3.58223 213.592 2.95753 213.741 2.33999 214.204L2.93999 215.004ZM4.24584 214.589L99.3498 225.725L99.4661 224.732L4.36214 213.596L4.24584 214.589ZM99.346 225.725C100.156 225.826 100.828 226.539 100.828 227.277L101.828 227.277C101.828 225.966 100.708 224.887 99.47 224.732L99.346 225.725ZM100.828 227.277L100.828 243.661L101.828 243.661L101.828 227.277L100.828 227.277ZM100.828 243.661C100.828 244.398 100.156 245.111 99.346 245.212L99.47 246.205C100.708 246.05 101.828 244.971 101.828 243.661L100.828 243.661ZM99.3498 245.212L4.24584 256.348L4.36214 257.341L99.4661 246.205L99.3498 245.212ZM4.30399 256.345C3.74575 256.345 3.34645 256.237 2.93999 255.932L2.33999 256.733C2.95752 257.196 3.58223 257.345 4.30399 257.345L4.30399 256.345ZM2.99354 255.979C2.70437 255.69 2.49999 255.177 2.49999 254.797L1.49999 254.797C1.49999 255.44 1.80761 256.207 2.28643 256.686L2.99354 255.979ZM2.49999 254.797L2.49999 241.741L1.49999 241.741L1.49999 254.797L2.49999 254.797ZM2.49999 241.741C2.49999 240.962 3.08679 240.285 3.85401 240.189L3.72997 239.196C2.44919 239.356 1.49999 240.471 1.49999 241.741L2.49999 241.741ZM3.79199 239.692C3.84488 240.19 3.84493 240.19 3.84502 240.19C3.84511 240.19 3.84525 240.19 3.84543 240.19C3.8458 240.19 3.84635 240.19 3.84708 240.189C3.84854 240.189 3.85073 240.189 3.85363 240.189C3.85943 240.188 3.86808 240.187 3.87952 240.186C3.90239 240.184 3.93638 240.18 3.98086 240.175C4.06981 240.166 4.2007 240.152 4.36847 240.134C4.704 240.098 5.18704 240.047 5.77707 239.984C6.95715 239.858 8.56527 239.686 10.2774 239.502C13.7007 239.134 17.5429 238.717 19.2093 238.525L19.0947 237.532C17.4331 237.724 13.5953 238.139 10.1706 238.507C8.45871 238.691 6.85083 238.863 5.6709 238.989C5.08095 239.052 4.59798 239.104 4.26251 239.14C4.09478 239.157 3.96392 239.171 3.875 239.181C3.83053 239.186 3.79655 239.189 3.77369 239.192C3.76227 239.193 3.75361 239.194 3.74782 239.194C3.74492 239.195 3.74274 239.195 3.74128 239.195C3.74056 239.195 3.74001 239.195 3.73964 239.195C3.73946 239.195 3.73932 239.195 3.73923 239.195C3.73914 239.195 3.73909 239.195 3.79199 239.692ZM36.9947 238.27L50.8187 236.862L50.7173 235.867L36.8933 237.275L36.9947 238.27ZM50.768 236.864C51.5561 236.864 52.164 236.257 52.164 235.469L51.164 235.469C51.164 235.704 51.0039 235.864 50.768 235.864L50.768 236.864ZM52.164 235.469C52.164 234.68 51.5561 234.072 50.768 234.072L50.768 235.072C51.0039 235.072 51.164 235.233 51.164 235.469L52.164 235.469ZM50.8187 234.075L36.9947 232.667L36.8933 233.662L50.7173 235.07L50.8187 234.075ZM36.944 232.665C36.6806 232.665 36.2339 232.655 35.8224 233.067L36.5295 233.774C36.5921 233.711 36.6393 233.692 36.6813 233.682C36.74 233.667 36.8067 233.665 36.944 233.665L36.944 232.665ZM35.8224 233.067C35.607 233.282 35.42 233.663 35.42 234.06L36.42 234.06C36.42 234.013 36.4327 233.952 36.4596 233.889C36.4873 233.825 36.5184 233.785 36.5295 233.774L35.8224 233.067ZM35.42 234.06L35.42 236.876L36.42 236.876L36.42 234.06L35.42 234.06ZM35.42 236.876C35.42 237.274 35.607 237.655 35.8224 237.87L36.5295 237.163C36.5184 237.152 36.4873 237.112 36.4596 237.048C36.4327 236.985 36.42 236.924 36.42 236.876L35.42 236.876ZM35.8224 237.87C36.2339 238.282 36.6806 238.273 36.944 238.273L36.944 237.273C36.8067 237.273 36.74 237.27 36.6813 237.255C36.6393 237.245 36.5921 237.226 36.5295 237.163L35.8224 237.87ZM52.816 292.233L53.1425 291.854L52.8058 291.564L52.4781 291.864L52.816 292.233ZM46.928 295.56L46.7774 295.084L46.7699 295.086L46.928 295.56ZM10.448 297.48L10.4065 296.982L10.4027 296.983L10.448 297.48ZM6.35198 298.248L6.20831 297.77L6.20494 297.771L6.35198 298.248ZM4.68799 298.76L4.54094 298.283L4.52133 298.289L4.50229 298.296L4.68799 298.76ZM2.76798 298.505L2.46799 298.905L2.76798 298.505ZM3.53599 281.48L3.39862 281L3.53599 281.48ZM4.43199 281.224L4.56938 281.705L4.57903 281.702L4.43199 281.224ZM40.784 279.177L41.0234 279.615L41.0324 279.611L41.0412 279.605L40.784 279.177ZM41.68 276.745L42.18 276.745L42.18 276.245L41.68 276.245L41.68 276.745ZM2.51199 276.104L2.15844 276.458L2.51199 276.104ZM2.51199 260.233L2.86554 260.586L2.51199 260.233ZM94.672 292.872L94.9614 293.28L94.9661 293.277L94.672 292.872ZM81.104 276.872L81.4575 276.519L81.4002 276.462L81.3276 276.425L81.104 276.872ZM59.856 276.872L59.6324 276.425L59.5598 276.462L59.5024 276.519L59.856 276.872ZM52.4781 291.864C50.9974 293.221 49.1418 294.337 46.7774 295.084L47.0786 296.037C49.5782 295.248 51.5626 294.06 53.1539 292.601L52.4781 291.864ZM46.7699 295.086C43.39 296.213 38.7175 296.724 32.848 296.724L32.848 297.724C38.7545 297.724 43.5539 297.212 47.0861 296.035L46.7699 295.086ZM32.848 296.724L16.592 296.724L16.592 297.724L32.848 297.724L32.848 296.724ZM16.592 296.724C14.0148 296.724 11.9525 296.853 10.4065 296.982L10.4895 297.979C12.0154 297.852 14.0491 297.724 16.592 297.724L16.592 296.724ZM10.4027 296.983C8.96628 297.113 7.5248 297.375 6.20832 297.77L6.49566 298.727C7.73918 298.354 9.1137 298.104 10.4933 297.978L10.4027 296.983ZM6.20494 297.771L4.54094 298.283L4.83503 299.238L6.49903 298.726L6.20494 297.771ZM4.50229 298.296C4.03163 298.485 3.44681 298.389 3.06799 298.104L2.46799 298.905C3.11316 299.388 4.06435 299.548 4.87368 299.225L4.50229 298.296ZM3.06799 298.104C2.70774 297.834 2.49999 297.359 2.49999 296.841L1.49999 296.841C1.49999 297.603 1.80424 298.407 2.46799 298.905L3.06799 298.104ZM2.49999 296.841L2.49999 283.528L1.49999 283.528L1.49999 296.841L2.49999 296.841ZM2.49999 283.528C2.49999 282.737 2.98258 282.159 3.67335 281.961L3.39862 281C2.2974 281.314 1.49999 282.272 1.49999 283.528L2.49999 283.528ZM3.67335 281.961L4.56935 281.705L4.29463 280.744L3.39862 281L3.67335 281.961ZM4.57903 281.702C6.20017 281.204 7.82791 280.952 9.21325 280.826L9.12272 279.831C7.69207 279.961 5.99181 280.221 4.28495 280.747L4.57903 281.702ZM9.21325 280.826C10.5923 280.701 13.1214 280.7 16.72 280.7L16.72 279.7C13.1505 279.7 10.5597 279.7 9.12272 279.831L9.21325 280.826ZM16.72 280.7L33.616 280.7L33.616 279.7L16.72 279.7L16.72 280.7ZM33.616 280.7C35.3532 280.7 36.8187 280.636 38.0349 280.472C39.248 280.308 40.2437 280.041 41.0234 279.615L40.5446 278.738C39.9162 279.08 39.0559 279.325 37.901 279.481C36.7493 279.637 35.3348 279.7 33.616 279.7L33.616 280.7ZM41.0412 279.605C41.4868 279.338 41.7701 278.91 41.9402 278.456C42.1104 278.002 42.18 277.492 42.18 277L41.18 277C41.18 277.405 41.1216 277.791 41.0038 278.105C40.8859 278.419 40.7212 278.631 40.5267 278.748L41.0412 279.605ZM42.18 277L42.18 276.745L41.18 276.745L41.18 277L42.18 277ZM41.68 276.245L4.04798 276.245L4.04798 277.245L41.68 277.245L41.68 276.245ZM4.04798 276.245C3.66708 276.245 3.15471 276.04 2.86554 275.751L2.15844 276.458C2.63727 276.937 3.4049 277.245 4.04798 277.245L4.04798 276.245ZM2.86554 275.751C2.60838 275.494 2.49999 275.131 2.49999 274.696L1.49999 274.696C1.49999 275.286 1.64759 275.947 2.15844 276.458L2.86554 275.751ZM2.49999 274.696L2.49999 261.64L1.49999 261.64L1.49999 274.696L2.49999 274.696ZM2.49999 261.64C2.49999 261.206 2.60838 260.843 2.86554 260.586L2.15844 259.879C1.64759 260.39 1.49999 261.051 1.49999 261.64L2.49999 261.64ZM2.86554 260.586C3.15471 260.297 3.66708 260.092 4.04799 260.092L4.04799 259.092C3.4049 259.092 2.63727 259.4 2.15844 259.879L2.86554 260.586ZM4.04799 260.092L99.152 260.092L99.152 259.092L4.04799 259.092L4.04799 260.092ZM99.152 260.092C100.068 260.092 100.828 260.803 100.828 261.641L101.828 261.641C101.828 260.174 100.54 259.092 99.152 259.092L99.152 260.092ZM100.828 261.641L100.828 278.409L101.828 278.409L101.828 261.641L100.828 261.641ZM100.828 278.409C100.828 284.927 98.4555 289.503 94.3779 292.468L94.9661 293.277C99.3364 290.098 101.828 285.202 101.828 278.409L100.828 278.409ZM94.3826 292.465C90.5341 295.196 84.6375 296.724 76.624 296.724L76.624 297.724C84.7385 297.724 90.8739 296.181 94.9614 293.28L94.3826 292.465ZM76.624 296.724L70.864 296.724L70.864 297.724L76.624 297.724L76.624 296.724ZM70.864 296.724C62.6001 296.724 56.7249 294.942 53.1425 291.854L52.4895 292.611C56.3311 295.923 62.4879 297.724 70.864 297.724L70.864 296.724ZM59.1 277.384L59.1 277.897L60.1 277.897L60.1 277.384L59.1 277.384ZM59.1 277.897C59.1 278.795 59.5911 279.571 60.3096 280.106C61.0284 280.64 61.9996 280.957 63.056 280.957L63.056 279.957C62.1924 279.957 61.4356 279.697 60.9063 279.303C60.3769 278.91 60.1 278.406 60.1 277.897L59.1 277.897ZM63.056 280.957L77.776 280.957L77.776 279.957L63.056 279.957L63.056 280.957ZM77.776 280.957C78.8311 280.957 79.8298 280.641 80.5767 280.113C81.3204 279.587 81.86 278.811 81.86 277.897L80.86 277.897C80.86 278.39 80.5675 278.894 79.9993 279.296C79.4342 279.696 78.6408 279.957 77.776 279.957L77.776 280.957ZM81.86 277.897L81.86 277.384L80.86 277.384L80.86 277.897L81.86 277.897ZM81.86 277.384C81.86 277.199 81.7828 277.016 81.7272 276.905C81.6637 276.778 81.571 276.632 81.4575 276.519L80.7504 277.226C80.7549 277.23 80.7674 277.245 80.7849 277.27C80.8016 277.295 80.8183 277.323 80.8328 277.352C80.8475 277.382 80.8568 277.405 80.8615 277.42C80.8638 277.427 80.8639 277.429 80.8632 277.425C80.8628 277.423 80.86 277.408 80.86 277.384L81.86 277.384ZM81.3276 276.425C80.9514 276.237 80.5794 276.245 80.336 276.245L80.336 277.245C80.6046 277.245 80.7446 277.252 80.8804 277.32L81.3276 276.425ZM80.336 276.245L60.496 276.245L60.496 277.245L80.336 277.245L80.336 276.245ZM60.496 276.245C60.3778 276.245 60.2383 276.243 60.0938 276.267C59.9369 276.293 59.7929 276.345 59.6324 276.425L60.0796 277.32C60.1751 277.272 60.2231 277.26 60.2582 277.254C60.3057 277.246 60.3581 277.245 60.496 277.245L60.496 276.245ZM59.5024 276.519C59.389 276.632 59.2963 276.778 59.2328 276.905C59.1772 277.016 59.1 277.199 59.1 277.384L60.1 277.384C60.1 277.408 60.0972 277.423 60.0967 277.425C60.0961 277.429 60.0962 277.427 60.0985 277.42C60.1032 277.405 60.1125 277.382 60.1272 277.352C60.1417 277.323 60.1584 277.295 60.1751 277.27C60.1926 277.245 60.2051 277.23 60.2095 277.226L59.5024 276.519ZM100.688 336.152L100.334 335.799L100.334 335.799L100.688 336.152ZM62.544 332.44L62.8975 332.794L62.544 332.44ZM43.216 318.745L43.716 318.745L43.716 318.245L43.216 318.245L43.216 318.745ZM22.224 319L22.4476 319.448L22.5202 319.411L22.5775 319.354L22.224 319ZM2.51199 336.152L2.86554 335.799L2.51199 336.152ZM2.51199 302.233L2.86554 302.586L2.51199 302.233ZM100.828 303.641L100.828 334.617L101.828 334.617L101.828 303.641L100.828 303.641ZM100.828 334.617C100.828 334.997 100.624 335.51 100.334 335.799L101.042 336.506C101.52 336.027 101.828 335.26 101.828 334.617L100.828 334.617ZM100.334 335.799C100.085 336.048 99.7311 336.164 99.152 336.164L99.152 337.164C99.8529 337.164 100.523 337.025 101.042 336.506L100.334 335.799ZM99.152 336.164L83.408 336.164L83.408 337.164L99.152 337.164L99.152 336.164ZM83.408 336.164C82.5321 336.164 81.86 335.492 81.86 334.617L80.86 334.617C80.86 336.045 81.9798 337.164 83.408 337.164L83.408 336.164ZM81.86 334.617L81.86 319.641L80.86 319.641L80.86 334.617L81.86 334.617ZM81.86 319.641C81.86 319.208 81.6423 318.852 81.3601 318.616C81.0805 318.383 80.7118 318.245 80.336 318.245L80.336 319.245C80.4722 319.245 80.6155 319.298 80.7199 319.385C80.8217 319.469 80.86 319.561 80.86 319.641L81.86 319.641ZM80.336 318.245L64.208 318.245L64.208 319.245L80.336 319.245L80.336 318.245ZM64.208 318.245C63.7882 318.245 63.4044 318.372 63.1197 318.631C62.8321 318.892 62.684 319.254 62.684 319.641L63.684 319.641C63.684 319.515 63.7279 319.429 63.7923 319.37C63.8596 319.309 63.9878 319.245 64.208 319.245L64.208 318.245ZM62.684 319.641L62.684 330.905L63.684 330.905L63.684 319.641L62.684 319.641ZM62.684 330.905C62.684 331.398 62.491 331.786 62.1904 332.087L62.8975 332.794C63.365 332.327 63.684 331.691 63.684 330.905L62.684 330.905ZM62.1904 332.087C61.8766 332.401 61.4854 332.581 61.136 332.581L61.136 333.581C61.8106 333.581 62.4434 333.248 62.8975 332.794L62.1904 332.087ZM61.136 332.581L45.392 332.581L45.392 333.581L61.136 333.581L61.136 332.581ZM45.392 332.581C44.5161 332.581 43.716 331.78 43.716 330.905L42.716 330.905C42.716 332.333 43.9638 333.581 45.392 333.581L45.392 332.581ZM43.716 330.905L43.716 318.745L42.716 318.745L42.716 330.905L43.716 330.905ZM43.216 318.245L22.864 318.245L22.864 319.245L43.216 319.245L43.216 318.245ZM22.864 318.245C22.4667 318.245 22.0859 318.431 21.8704 318.647L22.5775 319.354C22.5887 319.343 22.6282 319.312 22.6929 319.284C22.7556 319.257 22.8164 319.245 22.864 319.245L22.864 318.245ZM22.0004 318.553C21.5515 318.778 21.34 319.223 21.34 319.64L22.34 319.64C22.34 319.546 22.3844 319.479 22.4476 319.448L22.0004 318.553ZM21.34 319.64L21.34 334.617L22.34 334.617L22.34 319.64L21.34 319.64ZM21.34 334.617C21.34 335.492 20.6678 336.164 19.792 336.164L19.792 337.164C21.2201 337.164 22.34 336.045 22.34 334.617L21.34 334.617ZM19.792 336.164L4.04798 336.164L4.04798 337.164L19.792 337.164L19.792 336.164ZM4.04798 336.164C3.58189 336.164 3.10846 336.042 2.86554 335.799L2.15843 336.506C2.68352 337.031 3.49009 337.164 4.04798 337.164L4.04798 336.164ZM2.86554 335.799C2.62262 335.556 2.49999 335.083 2.49999 334.617L1.49999 334.617C1.49999 335.174 1.63335 335.981 2.15843 336.506L2.86554 335.799ZM2.49999 334.617L2.49999 303.64L1.49999 303.64L1.49999 334.617L2.49999 334.617ZM2.49999 303.64C2.49999 303.206 2.60838 302.843 2.86554 302.586L2.15843 301.879C1.64759 302.39 1.49999 303.051 1.49999 303.64L2.49999 303.64ZM2.86554 302.586C3.15471 302.297 3.66708 302.092 4.04798 302.092L4.04798 301.092C3.40489 301.092 2.63727 301.4 2.15843 301.879L2.86554 302.586ZM4.04798 302.092L99.152 302.092L99.152 301.092L4.04798 301.092L4.04798 302.092ZM99.152 302.092C99.6455 302.092 100.034 302.286 100.334 302.586L101.042 301.879C100.574 301.411 99.9385 301.092 99.152 301.092L99.152 302.092ZM100.334 302.586C100.648 302.9 100.828 303.291 100.828 303.641L101.828 303.641C101.828 302.966 101.496 302.333 101.042 301.879L100.334 302.586ZM3.79198 380.056L3.29198 380.056L3.29198 380.5L3.73241 380.553L3.79198 380.056ZM3.79198 379.928L4.29198 379.928L4.29198 379.487L3.854 379.432L3.79198 379.928ZM3.79198 369.048L3.73241 368.552L3.72996 368.552L3.79198 369.048ZM31.824 365.465L31.8885 365.96L31.824 364.965L31.824 365.465ZM4.04798 365.336L4.05742 364.836L4.04798 364.836L4.04798 365.336ZM2.51199 350.233L2.86554 350.586L2.51199 350.233ZM99.408 371.096L99.4463 371.595L99.4582 371.594L99.47 371.593L99.408 371.096ZM59.216 374.552L59.172 374.054L59.172 375.051L59.216 374.552ZM99.408 378.009L99.47 377.512L99.4582 377.511L99.4463 377.51L99.408 378.009ZM100.688 398.872L100.334 398.519L100.334 398.519L100.688 398.872ZM2.51198 398.872L2.86554 398.519L2.51198 398.872ZM4.04798 383.64L4.04798 383.14L4.02029 383.14L3.99277 383.144L4.04798 383.64ZM31.824 383.513L31.827 384.012L31.8856 383.016L31.824 383.513ZM4.29198 380.056L4.29198 379.928L3.29198 379.928L3.29198 380.056L4.29198 380.056ZM3.854 379.432C3.08678 379.336 2.49998 378.659 2.49998 377.88L1.49998 377.88C1.49998 379.15 2.44918 380.265 3.72996 380.425L3.854 379.432ZM2.49998 377.88L2.49998 371.096L1.49998 371.096L1.49998 377.88L2.49998 377.88ZM2.49998 371.096C2.49998 370.318 3.08678 369.641 3.854 369.545L3.72996 368.552C2.44918 368.712 1.49998 369.827 1.49998 371.096L2.49998 371.096ZM3.85155 369.545C7.05421 369.161 14.0647 368.264 20.2719 367.464C23.3761 367.064 26.2802 366.688 28.4083 366.412C29.4723 366.274 30.3424 366.161 30.9464 366.083C31.2484 366.044 31.484 366.013 31.644 365.992C31.724 365.982 31.7851 365.974 31.8263 365.968C31.8468 365.966 31.8624 365.964 31.8728 365.962C31.878 365.962 31.882 365.961 31.8846 365.961C31.8859 365.961 31.8869 365.961 31.8875 365.96C31.8879 365.96 31.8881 365.96 31.8883 365.96C31.8884 365.96 31.8885 365.96 31.824 365.465C31.7594 364.969 31.7594 364.969 31.7592 364.969C31.759 364.969 31.7588 364.969 31.7585 364.969C31.7578 364.969 31.7568 364.969 31.7555 364.969C31.7529 364.97 31.749 364.97 31.7438 364.971C31.7333 364.972 31.7178 364.974 31.6972 364.977C31.6561 364.982 31.595 364.99 31.515 365C31.355 365.021 31.1195 365.052 30.8175 365.091C30.2136 365.17 29.3436 365.283 28.2797 365.421C26.1518 365.697 23.2479 366.073 20.1441 366.473C13.9353 367.273 6.92976 368.168 3.73241 368.552L3.85155 369.545ZM31.824 365.465C31.824 364.965 31.8239 364.965 31.8237 364.965C31.8236 364.965 31.8233 364.965 31.823 364.965C31.8224 364.965 31.8214 364.965 31.8202 364.965C31.8176 364.965 31.8138 364.965 31.8088 364.965C31.7987 364.965 31.7836 364.965 31.7636 364.965C31.7237 364.964 31.6644 364.964 31.5867 364.964C31.4313 364.964 31.2025 364.964 30.909 364.964C30.3218 364.964 29.4754 364.963 28.4385 364.962C26.3647 364.961 23.5289 364.957 20.4813 364.949C14.3841 364.932 7.44452 364.9 4.05742 364.837L4.03855 365.836C7.43545 365.901 14.3839 365.932 20.4787 365.948C23.527 365.957 26.3633 365.961 28.4375 365.962C29.4746 365.963 30.3212 365.964 30.9085 365.964C31.2022 365.964 31.431 365.964 31.5865 365.964C31.6642 365.964 31.7236 365.964 31.7635 365.965C31.7835 365.965 31.7986 365.965 31.8087 365.965C31.8138 365.965 31.8176 365.965 31.8201 365.965C31.8214 365.965 31.8224 365.965 31.823 365.965C31.8233 365.965 31.8236 365.965 31.8237 365.965C31.8239 365.965 31.824 365.965 31.824 365.465ZM4.04798 364.836C3.17213 364.836 2.49998 364.164 2.49998 363.289L1.49998 363.289C1.49998 364.717 2.61984 365.836 4.04798 365.836L4.04798 364.836ZM2.49998 363.289L2.49998 351.64L1.49998 351.64L1.49998 363.289L2.49998 363.289ZM2.49998 351.64C2.49998 351.206 2.60838 350.843 2.86554 350.586L2.15843 349.879C1.64759 350.39 1.49998 351.051 1.49998 351.64L2.49998 351.64ZM2.86554 350.586C3.15471 350.297 3.66708 350.092 4.04798 350.092L4.04798 349.092C3.40489 349.092 2.63727 349.4 2.15843 349.879L2.86554 350.586ZM4.04798 350.092L99.152 350.092L99.152 349.092L4.04798 349.092L4.04798 350.092ZM99.152 350.092C99.6455 350.092 100.034 350.286 100.334 350.586L101.042 349.879C100.574 349.411 99.9385 349.092 99.152 349.092L99.152 350.092ZM100.334 350.586C100.648 350.9 100.828 351.291 100.828 351.641L101.828 351.641C101.828 350.966 101.496 350.333 101.042 349.879L100.334 350.586ZM100.828 351.641L100.828 368.921L101.828 368.921L101.828 351.641L100.828 351.641ZM100.828 368.921C100.828 369.804 100.136 370.502 99.346 370.6L99.47 371.593C100.728 371.435 101.828 370.341 101.828 368.921L100.828 368.921ZM99.3696 370.598C95.2065 370.918 85.1556 371.782 76.1486 372.566C71.6445 372.958 67.4003 373.33 64.2822 373.604C62.7232 373.741 61.4456 373.854 60.5578 373.932C60.1139 373.971 59.7675 374.002 59.532 374.023C59.4143 374.033 59.3243 374.041 59.2637 374.046C59.2334 374.049 59.2105 374.051 59.1951 374.052C59.1874 374.053 59.1817 374.054 59.1778 374.054C59.1759 374.054 59.1744 374.054 59.1734 374.054C59.173 374.054 59.1726 374.054 59.1723 374.054C59.1721 374.054 59.172 374.054 59.216 374.552C59.26 375.051 59.2601 375.051 59.2604 375.051C59.2606 375.051 59.261 375.05 59.2614 375.05C59.2624 375.05 59.2639 375.05 59.2658 375.05C59.2697 375.05 59.2754 375.049 59.2831 375.049C59.2985 375.047 59.3214 375.045 59.3517 375.042C59.4122 375.037 59.5022 375.029 59.6199 375.019C59.8554 374.998 60.2018 374.967 60.6456 374.928C61.5334 374.85 62.8108 374.738 64.3698 374.601C67.4877 374.327 71.7315 373.955 76.2353 373.563C85.2444 372.779 95.2894 371.915 99.4463 371.595L99.3696 370.598ZM59.216 374.552C59.172 375.051 59.1721 375.051 59.1723 375.051C59.1726 375.051 59.173 375.051 59.1734 375.051C59.1744 375.051 59.1759 375.051 59.1778 375.051C59.1817 375.051 59.1874 375.052 59.1951 375.053C59.2105 375.054 59.2334 375.056 59.2637 375.059C59.3243 375.064 59.4143 375.072 59.532 375.082C59.7675 375.103 60.1139 375.134 60.5578 375.173C61.4456 375.251 62.7232 375.364 64.2822 375.501C67.4003 375.775 71.6445 376.147 76.1486 376.539C85.1556 377.323 95.2065 378.187 99.3696 378.507L99.4463 377.51C95.2894 377.19 85.2444 376.326 76.2353 375.542C71.7315 375.15 67.4877 374.778 64.3698 374.504C62.8108 374.367 61.5334 374.255 60.6456 374.177C60.2018 374.138 59.8554 374.107 59.6199 374.086C59.5022 374.076 59.4122 374.068 59.3517 374.063C59.3214 374.06 59.2985 374.058 59.2831 374.056C59.2754 374.056 59.2697 374.055 59.2658 374.055C59.2639 374.055 59.2624 374.055 59.2614 374.055C59.261 374.055 59.2606 374.055 59.2604 374.054C59.2601 374.054 59.26 374.054 59.216 374.552ZM99.346 378.505C100.156 378.606 100.828 379.319 100.828 380.056L101.828 380.056C101.828 378.746 100.708 377.667 99.47 377.512L99.346 378.505ZM100.828 380.056L100.828 397.465L101.828 397.465L101.828 380.056L100.828 380.056ZM100.828 397.465C100.828 397.814 100.648 398.205 100.334 398.519L101.042 399.226C101.496 398.772 101.828 398.139 101.828 397.465L100.828 397.465ZM100.334 398.519C100.034 398.819 99.6455 399.013 99.152 399.013L99.152 400.013C99.9385 400.013 100.574 399.694 101.042 399.226L100.334 398.519ZM99.152 399.013L4.04798 399.013L4.04798 400.013L99.152 400.013L99.152 399.013ZM4.04798 399.013C3.66707 399.013 3.1547 398.808 2.86554 398.519L2.15843 399.226C2.63727 399.705 3.40489 400.013 4.04798 400.013L4.04798 399.013ZM2.86554 398.519C2.60837 398.262 2.49998 397.899 2.49998 397.465L1.49998 397.465C1.49998 398.054 1.64759 398.715 2.15843 399.226L2.86554 398.519ZM2.49998 397.465L2.49998 385.816L1.49998 385.816L1.49998 397.465L2.49998 397.465ZM2.49998 385.816C2.49998 384.949 3.17356 384.241 4.1032 384.137L3.99277 383.144C2.61841 383.296 1.49998 384.38 1.49998 385.816L2.49998 385.816ZM4.04798 384.14C7.44156 384.14 14.387 384.108 20.4826 384.077C23.5307 384.06 26.3668 384.044 28.4409 384.032C29.4779 384.026 30.3244 384.021 30.9117 384.018C31.2054 384.016 31.4342 384.015 31.5896 384.014C31.6673 384.013 31.7267 384.013 31.7666 384.013C31.7866 384.013 31.8017 384.013 31.8118 384.013C31.8168 384.013 31.8207 384.013 31.8232 384.013C31.8245 384.013 31.8254 384.013 31.8261 384.013C31.8264 384.012 31.8266 384.012 31.8268 384.012C31.827 384.012 31.827 384.012 31.824 383.513C31.8209 383.013 31.8209 383.013 31.8207 383.013C31.8205 383.013 31.8203 383.013 31.82 383.013C31.8193 383.013 31.8184 383.013 31.8171 383.013C31.8146 383.013 31.8108 383.013 31.8057 383.013C31.7956 383.013 31.7805 383.013 31.7605 383.013C31.7206 383.013 31.6613 383.013 31.5836 383.014C31.4282 383.015 31.1994 383.016 30.9058 383.018C30.3185 383.022 29.4721 383.027 28.4351 383.032C26.3612 383.044 23.5252 383.061 20.4774 383.077C14.381 383.109 7.4384 383.14 4.04798 383.14L4.04798 384.14ZM31.824 383.513C31.8856 383.016 31.8856 383.016 31.8854 383.016C31.8852 383.016 31.885 383.016 31.8846 383.016C31.884 383.016 31.883 383.016 31.8817 383.016C31.8791 383.015 31.8751 383.015 31.8699 383.014C31.8595 383.013 31.8439 383.011 31.8234 383.009C31.7823 383.003 31.7211 382.996 31.6411 382.986C31.4811 382.966 31.2456 382.937 30.9436 382.899C30.3396 382.824 29.4696 382.716 28.4055 382.584C26.2775 382.32 23.3734 381.96 20.2694 381.576C14.0617 380.808 7.05266 379.944 3.85155 379.56L3.73241 380.553C6.9313 380.937 13.9383 381.801 20.1466 382.569C23.2505 382.953 26.1545 383.313 28.2824 383.577C29.3464 383.709 30.2164 383.817 30.8204 383.892C31.1224 383.929 31.3579 383.958 31.5179 383.978C31.5978 383.988 31.659 383.996 31.7001 384.001C31.7206 384.004 31.7362 384.005 31.7466 384.007C31.7518 384.007 31.7558 384.008 31.7584 384.008C31.7597 384.008 31.7607 384.008 31.7613 384.009C31.7617 384.009 31.7619 384.009 31.7621 384.009C31.7622 384.009 31.7623 384.009 31.824 383.513ZM19.152 426.153L19.152 425.653L19.1232 425.653L19.0947 425.657L19.152 426.153ZM19.28 420.265L19.2248 420.762L19.2523 420.765L19.28 420.765L19.28 420.265ZM3.79198 418.601L3.72995 419.098L3.73909 419.099L3.79198 418.601ZM2.63998 402.729L2.33998 402.329L2.31155 402.351L2.28643 402.376L2.63998 402.729ZM4.30398 402.217L4.36213 401.721L4.33316 401.717L4.30398 401.717L4.30398 402.217ZM99.408 413.354L99.47 412.857L99.4661 412.857L99.408 413.354ZM99.408 433.833L99.4661 434.33L99.47 434.33L99.408 433.833ZM4.30398 444.97L4.30398 445.47L4.33316 445.47L4.36213 445.466L4.30398 444.97ZM2.63998 444.457L2.28643 444.811L2.31155 444.836L2.33998 444.858L2.63998 444.457ZM3.79198 427.817L3.73908 427.32L3.72996 427.321L3.79198 427.817ZM36.944 425.897L36.944 426.397L36.9694 426.397L36.9946 426.395L36.944 425.897ZM50.768 424.489L50.768 423.989L50.7426 423.989L50.7173 423.992L50.768 424.489ZM50.768 422.698L50.7173 423.195L50.7426 423.198L50.768 423.198L50.768 422.698ZM36.944 421.289L36.9946 420.792L36.9694 420.789L36.944 420.789L36.944 421.289ZM36.176 421.545L36.5295 421.899L36.5295 421.899L36.176 421.545ZM36.176 425.642L36.5295 425.288L36.176 425.642ZM19.152 426.653C19.9401 426.653 20.548 426.046 20.548 425.258L19.548 425.258C19.548 425.493 19.3878 425.653 19.152 425.653L19.152 426.653ZM20.548 425.258L20.548 421.161L19.548 421.161L19.548 425.258L20.548 425.258ZM20.548 421.161C20.548 420.424 19.9884 419.765 19.28 419.765L19.28 420.765C19.3052 420.765 19.369 420.781 19.4363 420.856C19.4999 420.927 19.548 421.032 19.548 421.161L20.548 421.161ZM19.3352 419.769C17.606 419.576 13.7328 419.16 10.2932 418.792C8.57309 418.608 6.96102 418.436 5.77898 418.31C5.18796 418.247 4.70444 418.196 4.36867 418.16C4.20079 418.142 4.06984 418.128 3.98086 418.119C3.93638 418.114 3.90238 418.11 3.87951 418.108C3.86807 418.107 3.85941 418.106 3.85361 418.105C3.85071 418.105 3.84853 418.105 3.84707 418.105C3.84634 418.104 3.84579 418.104 3.84543 418.104C3.84524 418.104 3.8451 418.104 3.84501 418.104C3.84492 418.104 3.84488 418.104 3.79198 418.601C3.73909 419.099 3.73913 419.099 3.73922 419.099C3.73932 419.099 3.73945 419.099 3.73964 419.099C3.74 419.099 3.74055 419.099 3.74128 419.099C3.74273 419.099 3.74492 419.099 3.74781 419.1C3.75361 419.1 3.76226 419.101 3.7737 419.102C3.79657 419.105 3.83056 419.108 3.87504 419.113C3.96399 419.123 4.09493 419.137 4.26279 419.154C4.59852 419.19 5.08201 419.242 5.67299 419.305C6.85494 419.431 8.46688 419.603 10.1868 419.787C13.6272 420.155 17.498 420.571 19.2248 420.762L19.3352 419.769ZM3.854 418.105C3.08678 418.009 2.49998 417.332 2.49998 416.553L1.49998 416.553C1.49998 417.823 2.44918 418.938 3.72996 419.098L3.854 418.105ZM2.49998 416.553L2.49998 404.265L1.49998 404.265L1.49998 416.553L2.49998 416.553ZM2.49998 404.265C2.49998 403.885 2.70437 403.372 2.99354 403.083L2.28643 402.376C1.8076 402.855 1.49998 403.622 1.49998 404.265L2.49998 404.265ZM2.93998 403.129C3.34644 402.825 3.74574 402.717 4.30398 402.717L4.30398 401.717C3.58222 401.717 2.95752 401.866 2.33998 402.329L2.93998 403.129ZM4.24583 402.714L99.3498 413.85L99.4661 412.857L4.36213 401.721L4.24583 402.714ZM99.346 413.85C100.156 413.951 100.828 414.664 100.828 415.401L101.828 415.401C101.828 414.091 100.708 413.012 99.47 412.857L99.346 413.85ZM100.828 415.401L100.828 431.785L101.828 431.785L101.828 415.401L100.828 415.401ZM100.828 431.785C100.828 432.523 100.156 433.236 99.346 433.337L99.47 434.33C100.708 434.175 101.828 433.096 101.828 431.785L100.828 431.785ZM99.3498 433.337L4.24583 444.473L4.36213 445.466L99.4661 434.33L99.3498 433.337ZM4.30398 444.47C3.74574 444.47 3.34644 444.362 2.93998 444.057L2.33998 444.858C2.95752 445.321 3.58222 445.47 4.30398 445.47L4.30398 444.47ZM2.99353 444.104C2.70436 443.815 2.49998 443.302 2.49998 442.922L1.49998 442.922C1.49998 443.565 1.8076 444.332 2.28643 444.811L2.99353 444.104ZM2.49998 442.922L2.49998 429.866L1.49998 429.866L1.49998 442.922L2.49998 442.922ZM2.49998 429.866C2.49998 429.087 3.08678 428.41 3.854 428.314L3.72996 427.321C2.44918 427.481 1.49998 428.596 1.49998 429.866L2.49998 429.866ZM3.79198 427.817C3.84488 428.315 3.84492 428.315 3.84501 428.315C3.8451 428.315 3.84524 428.315 3.84542 428.315C3.84579 428.315 3.84634 428.315 3.84707 428.314C3.84853 428.314 3.85072 428.314 3.85362 428.314C3.85942 428.313 3.86808 428.312 3.87951 428.311C3.90239 428.309 3.93637 428.305 3.98085 428.3C4.06981 428.291 4.2007 428.277 4.36846 428.259C4.70399 428.223 5.18703 428.172 5.77707 428.109C6.95714 427.983 8.56527 427.811 10.2774 427.627C13.7006 427.259 17.5429 426.842 19.2093 426.65L19.0947 425.657C17.4331 425.849 13.5953 426.264 10.1706 426.632C8.4587 426.816 6.85082 426.988 5.67089 427.114C5.08094 427.177 4.59797 427.229 4.2625 427.265C4.09477 427.282 3.96391 427.296 3.87499 427.306C3.83052 427.311 3.79654 427.314 3.77369 427.317C3.76226 427.318 3.75361 427.319 3.74781 427.319C3.74492 427.32 3.74273 427.32 3.74128 427.32C3.74055 427.32 3.74 427.32 3.73964 427.32C3.73945 427.32 3.73932 427.32 3.73922 427.32C3.73913 427.32 3.73909 427.32 3.79198 427.817ZM36.9946 426.395L50.8186 424.987L50.7173 423.992L36.8933 425.4L36.9946 426.395ZM50.768 424.989C51.5561 424.989 52.164 424.382 52.164 423.594L51.164 423.594C51.164 423.829 51.0038 423.989 50.768 423.989L50.768 424.989ZM52.164 423.594C52.164 422.805 51.5561 422.198 50.768 422.198L50.768 423.198C51.0038 423.198 51.164 423.358 51.164 423.594L52.164 423.594ZM50.8186 422.2L36.9946 420.792L36.8933 421.787L50.7173 423.195L50.8186 422.2ZM36.944 420.789C36.6806 420.789 36.2339 420.78 35.8224 421.192L36.5295 421.899C36.5921 421.836 36.6393 421.817 36.6813 421.807C36.74 421.792 36.8067 421.789 36.944 421.789L36.944 420.789ZM35.8224 421.192C35.607 421.407 35.42 421.788 35.42 422.185L36.42 422.185C36.42 422.138 36.4327 422.077 36.4596 422.014C36.4873 421.95 36.5184 421.91 36.5295 421.899L35.8224 421.192ZM35.42 422.185L35.42 425.001L36.42 425.001L36.42 422.185L35.42 422.185ZM35.42 425.001C35.42 425.399 35.607 425.78 35.8224 425.995L36.5295 425.288C36.5184 425.277 36.4873 425.237 36.4596 425.173C36.4327 425.11 36.42 425.049 36.42 425.001L35.42 425.001ZM35.8224 425.995C36.2339 426.406 36.6806 426.397 36.944 426.397L36.944 425.397C36.8067 425.397 36.74 425.395 36.6813 425.38C36.6393 425.37 36.5921 425.35 36.5295 425.288L35.8224 425.995ZM8.14398 449.948L8.41383 450.368L8.41857 450.365L8.14398 449.948ZM21.712 462.62L21.5539 462.145L21.5202 462.156L21.4884 462.172L21.712 462.62ZM21.2 465.307L21.465 464.884L21.4448 464.871L21.4236 464.86L21.2 465.307ZM35.408 464.539L35.5937 465.004L35.6049 464.999L35.408 464.539ZM45.264 458.012L45.5764 458.402L45.5806 458.398L45.264 458.012ZM60.496 448.411L60.3148 447.945L60.3068 447.949L60.299 447.952L60.496 448.411ZM95.056 450.203L95.3333 449.787L95.3306 449.786L95.056 450.203ZM95.056 478.747L95.3221 479.171L95.3258 479.168L95.056 478.747ZM82.128 465.691L82.3708 466.129L82.3885 466.119L82.4053 466.108L82.128 465.691ZM81.616 463.388L81.8017 462.923L81.788 462.918L81.7741 462.913L81.616 463.388ZM69.072 464.411L68.8863 463.947L68.8715 463.953L68.857 463.96L69.072 464.411ZM59.344 471.068L59.6606 471.454L59.6641 471.452L59.344 471.068ZM43.984 480.539L43.8141 480.069L43.807 480.072L43.984 480.539ZM8.27198 478.62L8.55483 478.207L8.54447 478.2L8.27198 478.62ZM1.09198 464.155C1.09198 458.046 3.57162 453.472 8.41381 450.368L7.87415 449.527C2.73234 452.823 0.0919828 457.721 0.0919825 464.155L1.09198 464.155ZM8.41857 450.365C12.7862 447.495 19.0767 445.967 27.216 445.967L27.216 444.967C18.9713 444.967 12.4617 446.512 7.86939 449.53L8.41857 450.365ZM27.216 445.967L33.872 445.967L33.872 444.967L27.216 444.967L27.216 445.967ZM33.872 445.967C34.7478 445.967 35.42 446.64 35.42 447.515L36.42 447.515C36.42 446.087 35.3001 444.967 33.872 444.967L33.872 445.967ZM35.42 447.515L35.42 459.931L36.42 459.931L36.42 447.515L35.42 447.515ZM35.42 459.931C35.42 460.807 34.7478 461.479 33.872 461.479L33.872 462.479C35.3001 462.479 36.42 461.36 36.42 459.931L35.42 459.931ZM33.872 461.479L26.192 461.479L26.192 462.479L33.872 462.479L33.872 461.479ZM26.192 461.479C24.2251 461.479 22.763 461.742 21.5539 462.145L21.8701 463.094C22.965 462.729 24.3189 462.479 26.192 462.479L26.192 461.479ZM21.4884 462.172C21.0835 462.375 20.725 462.603 20.4684 462.902C20.1961 463.22 20.06 463.592 20.06 464.027L21.06 464.027C21.06 463.823 21.1158 463.683 21.2276 463.553C21.3549 463.404 21.5725 463.248 21.9356 463.067L21.4884 462.172ZM20.06 464.027C20.06 464.599 20.2037 465.368 20.9764 465.755L21.4236 464.86C21.1723 464.735 21.06 464.48 21.06 464.027L20.06 464.027ZM20.935 465.732C21.5378 466.108 22.3265 466.312 23.2329 466.427C24.1456 466.544 25.2277 466.575 26.448 466.575L26.448 465.575C25.2363 465.575 24.2063 465.543 23.3591 465.436C22.5055 465.327 21.8861 465.147 21.465 464.884L20.935 465.732ZM26.448 466.575C29.9534 466.575 32.9627 466.056 35.5937 465.004L35.2223 464.075C32.7332 465.071 29.8546 465.575 26.448 465.575L26.448 466.575ZM35.6049 464.999C38.3597 463.818 41.7326 461.477 45.5763 458.402L44.9516 457.621C41.1154 460.69 37.8322 462.957 35.211 464.08L35.6049 464.999ZM45.5806 458.398C51.1826 453.815 56.2629 450.77 60.6929 448.871L60.299 447.952C55.769 449.893 50.6094 452.992 44.9474 457.625L45.5806 458.398ZM60.6772 448.877C65.2175 447.112 70.4024 446.224 76.24 446.224L76.24 445.224C70.3016 445.224 64.9904 446.127 60.3148 447.945L60.6772 448.877ZM76.24 446.224C84.2484 446.224 90.4121 447.75 94.7814 450.621L95.3306 449.786C90.7398 446.769 84.3595 445.224 76.24 445.224L76.24 446.224ZM94.7786 450.62C99.6291 453.853 102.108 458.432 102.108 464.539L103.108 464.539C103.108 458.103 100.467 453.21 95.3333 449.787L94.7786 450.62ZM102.108 464.539C102.108 470.649 99.6283 475.223 94.7862 478.327L95.3258 479.168C100.468 475.872 103.108 470.974 103.108 464.539L102.108 464.539ZM94.7899 478.324C90.4175 481.073 84.2494 482.599 75.984 482.599L75.984 483.599C84.3586 483.599 90.7344 482.054 95.3221 479.171L94.7899 478.324ZM75.984 482.599L70.864 482.599L70.864 483.599L75.984 483.599L75.984 482.599ZM70.864 482.599C70.0266 482.599 69.316 481.839 69.316 480.923L68.316 480.923C68.316 482.312 69.3974 483.599 70.864 483.599L70.864 482.599ZM69.316 480.923L69.316 468.635L68.316 468.635L68.316 480.923L69.316 480.923ZM69.316 468.635C69.316 467.72 70.0266 466.96 70.864 466.96L70.864 465.96C69.3974 465.96 68.316 467.247 68.316 468.635L69.316 468.635ZM70.864 466.96L76.88 466.96L76.88 465.96L70.864 465.96L70.864 466.96ZM76.88 466.96C79.2907 466.96 81.0877 466.841 82.3708 466.129L81.8852 465.254C80.8643 465.822 79.3332 465.96 76.88 465.96L76.88 466.96ZM82.4053 466.108C82.9667 465.733 83.14 465.167 83.14 464.668L82.14 464.668C82.14 464.936 82.0573 465.138 81.8506 465.275L82.4053 466.108ZM83.14 464.668C83.14 464.237 83.0071 463.865 82.7497 463.561C82.5018 463.268 82.1643 463.068 81.8017 462.923L81.4303 463.852C81.7076 463.963 81.8822 464.083 81.9863 464.206C82.0809 464.318 82.14 464.458 82.14 464.668L83.14 464.668ZM81.7741 462.913C80.565 462.51 79.1029 462.247 77.136 462.247L77.136 463.247C79.0091 463.247 80.363 463.497 81.4579 463.862L81.7741 462.913ZM77.136 462.247C74.243 462.247 71.4915 462.905 68.8863 463.947L69.2577 464.876C71.7725 463.87 74.397 463.247 77.136 463.247L77.136 462.247ZM68.857 463.96C66.1154 465.266 62.8788 467.471 59.0239 470.683L59.6641 471.452C63.4892 468.264 66.6526 466.117 69.287 464.863L68.857 463.96ZM59.0274 470.681C53.4172 475.271 48.3474 478.432 43.8142 480.069L44.1538 481.01C48.8366 479.319 54.0068 476.08 59.6606 471.454L59.0274 470.681ZM43.807 480.072C39.1393 481.838 33.6974 482.728 27.472 482.728L27.472 483.728C33.7905 483.728 39.3567 482.825 44.1609 481.007L43.807 480.072ZM27.472 482.728C19.2028 482.728 12.918 481.199 8.55474 478.207L7.98921 479.032C12.5859 482.184 19.1011 483.728 27.472 483.728L27.472 482.728ZM8.54447 478.2C3.57096 474.967 1.09198 470.392 1.09198 464.155L0.0919825 464.155C0.0919822 470.719 2.733 475.616 7.99948 479.039L8.54447 478.2ZM81.104 496.591L81.3276 497.039L81.4002 497.002L81.4575 496.945L81.104 496.591ZM82 486.608L81.6464 486.254L81.6464 486.254L82 486.608ZM82 524.24L82.3535 523.886L82.3284 523.861L82.3 523.839L82 524.24ZM81.104 514.255L81.5512 514.032L81.4767 513.883L81.3276 513.808L81.104 514.255ZM4.04797 497.347L80.336 497.348L80.336 496.348L4.04797 496.347L4.04797 497.347ZM80.336 497.348C80.733 497.348 81.1006 497.152 81.3276 497.039L80.8804 496.144C80.5954 496.287 80.451 496.348 80.336 496.348L80.336 497.348ZM81.4575 496.945C81.673 496.73 81.86 496.349 81.86 495.952L80.86 495.952C80.86 495.999 80.8472 496.06 80.8204 496.123C80.7926 496.187 80.7615 496.227 80.7504 496.238L81.4575 496.945ZM81.86 495.952L81.86 488.016L80.86 488.016L80.86 495.952L81.86 495.952ZM81.86 488.016C81.86 487.666 82.0397 487.275 82.3535 486.961L81.6464 486.254C81.1923 486.708 80.86 487.341 80.86 488.016L81.86 488.016ZM82.3535 486.961C82.6674 486.647 83.0586 486.467 83.408 486.467L83.408 485.467C82.7334 485.467 82.1006 485.8 81.6464 486.254L82.3535 486.961ZM83.408 486.467L99.152 486.467L99.152 485.467L83.408 485.467L83.408 486.467ZM99.152 486.467C99.6455 486.467 100.034 486.661 100.334 486.961L101.042 486.254C100.574 485.786 99.9385 485.467 99.152 485.467L99.152 486.467ZM100.334 486.961C100.648 487.275 100.828 487.666 100.828 488.016L101.828 488.016C101.828 487.341 101.496 486.708 101.042 486.254L100.334 486.961ZM100.828 488.016L100.828 522.831L101.828 522.831L101.828 488.016L100.828 488.016ZM100.828 522.831C100.828 523.181 100.648 523.572 100.334 523.886L101.042 524.593C101.496 524.139 101.828 523.506 101.828 522.831L100.828 522.831ZM100.334 523.886C100.034 524.186 99.6455 524.38 99.152 524.38L99.152 525.38C99.9385 525.38 100.574 525.061 101.042 524.593L100.334 523.886ZM99.152 524.38L83.408 524.38L83.408 525.38L99.152 525.38L99.152 524.38ZM83.408 524.38C83.0586 524.38 82.6674 524.2 82.3535 523.886L81.6464 524.593C82.1006 525.047 82.7334 525.38 83.408 525.38L83.408 524.38ZM82.3 523.839C81.9593 523.584 81.86 523.253 81.86 522.831L80.86 522.831C80.86 523.434 81.0167 524.127 81.7 524.64L82.3 523.839ZM81.86 522.831L81.86 514.896L80.86 514.896L80.86 522.831L81.86 522.831ZM81.86 514.896C81.86 514.67 81.7997 514.497 81.7272 514.352C81.695 514.288 81.6583 514.225 81.6311 514.178C81.6015 514.126 81.576 514.081 81.5512 514.032L80.6568 514.479C80.696 514.557 80.7344 514.625 80.7649 514.677C80.7977 514.734 80.817 514.767 80.8328 514.799C80.8562 514.846 80.86 514.865 80.86 514.896L81.86 514.896ZM81.3276 513.808C81.1006 513.695 80.733 513.5 80.336 513.5L80.336 514.5C80.451 514.5 80.5954 514.56 80.8804 514.703L81.3276 513.808ZM80.336 513.5L4.04797 513.5L4.04797 514.5L80.336 514.5L80.336 513.5ZM4.04797 513.5C3.17212 513.5 2.49998 512.827 2.49998 511.951L1.49998 511.951C1.49998 513.38 2.61984 514.5 4.04797 514.5L4.04797 513.5ZM2.49998 511.951L2.49998 498.896L1.49998 498.896L1.49998 511.951L2.49998 511.951ZM2.49998 498.896C2.49998 498.02 3.17212 497.347 4.04797 497.347L4.04797 496.347C2.61984 496.347 1.49998 497.467 1.49998 498.896L2.49998 498.896ZM100.688 562.153L100.334 561.799L100.334 561.799L100.688 562.153ZM62.544 558.44L62.8975 558.794L62.544 558.44ZM43.216 544.745L43.716 544.745L43.716 544.245L43.216 544.245L43.216 544.745ZM22.224 545L22.4476 545.448L22.5202 545.411L22.5775 545.354L22.224 545ZM2.51198 562.153L2.86553 561.799L2.51198 562.153ZM2.51198 528.232L2.86553 528.586L2.51198 528.232ZM100.828 529.641L100.828 560.617L101.828 560.617L101.828 529.641L100.828 529.641ZM100.828 560.617C100.828 560.997 100.624 561.51 100.334 561.799L101.042 562.506C101.52 562.027 101.828 561.26 101.828 560.617L100.828 560.617ZM100.334 561.799C100.085 562.048 99.7311 562.164 99.152 562.164L99.152 563.164C99.8528 563.164 100.523 563.025 101.042 562.506L100.334 561.799ZM99.152 562.164L83.408 562.164L83.408 563.164L99.152 563.164L99.152 562.164ZM83.408 562.164C82.5321 562.164 81.86 561.492 81.86 560.617L80.86 560.617C80.86 562.045 81.9798 563.164 83.408 563.164L83.408 562.164ZM81.86 560.617L81.86 545.641L80.86 545.641L80.86 560.617L81.86 560.617ZM81.86 545.641C81.86 545.208 81.6423 544.852 81.3601 544.616C81.0804 544.383 80.7118 544.245 80.336 544.245L80.336 545.245C80.4721 545.245 80.6155 545.298 80.7199 545.385C80.8217 545.469 80.86 545.561 80.86 545.641L81.86 545.641ZM80.336 544.245L64.208 544.245L64.208 545.245L80.336 545.245L80.336 544.245ZM64.208 544.245C63.7881 544.245 63.4044 544.372 63.1196 544.631C62.8321 544.892 62.684 545.254 62.684 545.641L63.684 545.641C63.684 545.515 63.7279 545.429 63.7923 545.37C63.8596 545.309 63.9878 545.245 64.208 545.245L64.208 544.245ZM62.684 545.641L62.684 556.904L63.684 556.904L63.684 545.641L62.684 545.641ZM62.684 556.904C62.684 557.398 62.491 557.786 62.1904 558.087L62.8975 558.794C63.365 558.327 63.684 557.691 63.684 556.904L62.684 556.904ZM62.1904 558.087C61.8766 558.401 61.4854 558.581 61.136 558.581L61.136 559.581C61.8106 559.581 62.4434 559.248 62.8975 558.794L62.1904 558.087ZM61.136 558.581L45.392 558.581L45.392 559.581L61.136 559.581L61.136 558.581ZM45.392 558.581C44.5161 558.581 43.716 557.78 43.716 556.904L42.716 556.904C42.716 558.333 43.9638 559.581 45.392 559.581L45.392 558.581ZM43.716 556.904L43.716 544.745L42.716 544.745L42.716 556.904L43.716 556.904ZM43.216 544.245L22.864 544.245L22.864 545.245L43.216 545.245L43.216 544.245ZM22.864 544.245C22.4667 544.245 22.0859 544.432 21.8704 544.647L22.5775 545.354C22.5886 545.343 22.6282 545.312 22.6929 545.284C22.7556 545.257 22.8164 545.245 22.864 545.245L22.864 544.245ZM22.0004 544.553C21.5515 544.778 21.34 545.223 21.34 545.64L22.34 545.64C22.34 545.546 22.3844 545.479 22.4476 545.448L22.0004 544.553ZM21.34 545.64L21.34 560.617L22.34 560.617L22.34 545.64L21.34 545.64ZM21.34 560.617C21.34 561.492 20.6678 562.164 19.792 562.164L19.792 563.164C21.2201 563.164 22.34 562.045 22.34 560.617L21.34 560.617ZM19.792 562.164L4.04797 562.164L4.04797 563.164L19.792 563.164L19.792 562.164ZM4.04797 562.164C3.58188 562.164 3.10845 562.042 2.86553 561.799L2.15842 562.506C2.68351 563.031 3.49008 563.164 4.04797 563.164L4.04797 562.164ZM2.86553 561.799C2.62261 561.556 2.49998 561.083 2.49998 560.617L1.49998 560.617C1.49998 561.174 1.63334 561.981 2.15842 562.506L2.86553 561.799ZM2.49998 560.617L2.49998 529.64L1.49998 529.64L1.49998 560.617L2.49998 560.617ZM2.49998 529.64C2.49998 529.206 2.60837 528.843 2.86553 528.586L2.15842 527.879C1.64758 528.39 1.49998 529.051 1.49998 529.64L2.49998 529.64ZM2.86553 528.586C3.1547 528.297 3.66707 528.093 4.04797 528.093L4.04797 527.093C3.40488 527.093 2.63726 527.4 2.15842 527.879L2.86553 528.586ZM4.04797 528.093L99.152 528.093L99.152 527.093L4.04797 527.093L4.04797 528.093ZM99.152 528.093C99.6455 528.093 100.034 528.286 100.334 528.586L101.042 527.879C100.574 527.411 99.9385 527.093 99.152 527.093L99.152 528.093ZM100.334 528.586C100.648 528.9 100.828 529.291 100.828 529.641L101.828 529.641C101.828 528.966 101.496 528.333 101.042 527.879L100.334 528.586ZM52.816 597.982L53.1424 597.604L52.8058 597.314L52.4781 597.614L52.816 597.982ZM46.928 601.31L46.7774 600.834L46.7699 600.836L46.928 601.31ZM10.448 603.231L10.4065 602.732L10.4027 602.733L10.448 603.231ZM6.35197 603.998L6.20829 603.52L6.20493 603.521L6.35197 603.998ZM4.68798 604.51L4.54093 604.033L4.52132 604.039L4.50228 604.046L4.68798 604.51ZM2.76797 604.255L2.46798 604.654L2.76797 604.255ZM3.53598 587.231L3.39861 586.75L3.53598 587.231ZM4.43197 586.974L4.56936 587.455L4.57901 587.452L4.43197 586.974ZM40.784 584.927L41.0234 585.365L41.0324 585.361L41.0412 585.355L40.784 584.927ZM41.68 582.495L42.18 582.495L42.18 581.995L41.68 581.995L41.68 582.495ZM2.51198 581.854L2.15842 582.208L2.51198 581.854ZM2.51198 565.982L2.86553 566.336L2.51198 565.982ZM94.672 598.622L94.9614 599.03L94.9661 599.027L94.672 598.622ZM81.104 582.622L81.4575 582.269L81.4002 582.212L81.3276 582.175L81.104 582.622ZM59.856 582.622L59.6324 582.175L59.5598 582.212L59.5024 582.269L59.856 582.622ZM52.4781 597.614C50.9974 598.971 49.1418 600.087 46.7774 600.834L47.0785 601.787C49.5782 600.998 51.5626 599.81 53.1538 598.351L52.4781 597.614ZM46.7699 600.836C43.39 601.963 38.7175 602.474 32.848 602.474L32.848 603.474C38.7545 603.474 43.5539 602.962 47.0861 601.785L46.7699 600.836ZM32.848 602.474L16.592 602.474L16.592 603.474L32.848 603.474L32.848 602.474ZM16.592 602.474C14.0148 602.474 11.9525 602.603 10.4065 602.732L10.4895 603.729C12.0154 603.602 14.0491 603.474 16.592 603.474L16.592 602.474ZM10.4027 602.733C8.96627 602.863 7.52478 603.125 6.2083 603.52L6.49565 604.477C7.73916 604.104 9.11368 603.854 10.4932 603.728L10.4027 602.733ZM6.20493 603.521L4.54093 604.033L4.83502 604.988L6.49902 604.476L6.20493 603.521ZM4.50228 604.046C4.03161 604.235 3.4468 604.139 3.06797 603.854L2.46798 604.654C3.11315 605.138 4.06434 605.298 4.87367 604.975L4.50228 604.046ZM3.06797 603.854C2.70772 603.584 2.49997 603.109 2.49997 602.591L1.49997 602.591C1.49997 603.352 1.80423 604.157 2.46798 604.654L3.06797 603.854ZM2.49997 602.591L2.49997 589.278L1.49997 589.278L1.49997 602.591L2.49997 602.591ZM2.49997 589.278C2.49997 588.487 2.98256 587.909 3.67334 587.711L3.39861 586.75C2.29738 587.064 1.49997 588.022 1.49997 589.278L2.49997 589.278ZM3.67334 587.711L4.56933 587.455L4.29461 586.494L3.39861 586.75L3.67334 587.711ZM4.57901 587.452C6.20015 586.954 7.82789 586.702 9.21324 586.576L9.12271 585.581C7.69205 585.711 5.9918 585.971 4.28493 586.497L4.57901 587.452ZM9.21324 586.576C10.5923 586.451 13.1214 586.45 16.72 586.45L16.72 585.45C13.1505 585.45 10.5597 585.45 9.12271 585.581L9.21324 586.576ZM16.72 586.45L33.616 586.45L33.616 585.45L16.72 585.45L16.72 586.45ZM33.616 586.45C35.3532 586.45 36.8187 586.386 38.0349 586.222C39.248 586.058 40.2437 585.791 41.0234 585.365L40.5445 584.488C39.9162 584.83 39.0559 585.075 37.901 585.231C36.7493 585.387 35.3348 585.45 33.616 585.45L33.616 586.45ZM41.0412 585.355C41.4868 585.088 41.77 584.66 41.9401 584.206C42.1104 583.752 42.18 583.242 42.18 582.75L41.18 582.75C41.18 583.155 41.1216 583.541 41.0038 583.855C40.8859 584.169 40.7212 584.381 40.5267 584.498L41.0412 585.355ZM42.18 582.75L42.18 582.495L41.18 582.495L41.18 582.75L42.18 582.75ZM41.68 581.995L4.04797 581.995L4.04797 582.995L41.68 582.995L41.68 581.995ZM4.04797 581.995C3.66707 581.995 3.1547 581.79 2.86553 581.501L2.15842 582.208C2.63726 582.687 3.40488 582.995 4.04797 582.995L4.04797 581.995ZM2.86553 581.501C2.60837 581.244 2.49997 580.881 2.49997 580.446L1.49997 580.446C1.49997 581.036 1.64758 581.697 2.15842 582.208L2.86553 581.501ZM2.49997 580.446L2.49998 567.39L1.49998 567.39L1.49997 580.446L2.49997 580.446ZM2.49998 567.39C2.49998 566.956 2.60837 566.593 2.86553 566.336L2.15842 565.629C1.64758 566.14 1.49998 566.801 1.49998 567.39L2.49998 567.39ZM2.86553 566.336C3.1547 566.047 3.66707 565.843 4.04797 565.843L4.04797 564.843C3.40488 564.843 2.63726 565.15 2.15842 565.629L2.86553 566.336ZM4.04797 565.843L99.152 565.843L99.152 564.843L4.04797 564.843L4.04797 565.843ZM99.152 565.843C100.068 565.843 100.828 566.553 100.828 567.391L101.828 567.391C101.828 565.924 100.54 564.843 99.152 564.843L99.152 565.843ZM100.828 567.391L100.828 584.159L101.828 584.159L101.828 567.391L100.828 567.391ZM100.828 584.159C100.828 590.677 98.4555 595.253 94.3779 598.218L94.9661 599.027C99.3364 595.848 101.828 590.952 101.828 584.159L100.828 584.159ZM94.3826 598.215C90.5341 600.946 84.6374 602.474 76.624 602.474L76.624 603.474C84.7385 603.474 90.8739 601.931 94.9614 599.03L94.3826 598.215ZM76.624 602.474L70.864 602.474L70.864 603.474L76.624 603.474L76.624 602.474ZM70.864 602.474C62.6 602.474 56.7249 600.692 53.1424 597.604L52.4895 598.361C56.3311 601.673 62.4879 603.474 70.864 603.474L70.864 602.474ZM59.1 583.135L59.1 583.646L60.1 583.646L60.1 583.135L59.1 583.135ZM59.1 583.646C59.1 584.545 59.591 585.321 60.3096 585.856C61.0284 586.39 61.9996 586.706 63.056 586.706L63.056 585.706C62.1924 585.706 61.4356 585.447 60.9063 585.053C60.3769 584.66 60.1 584.156 60.1 583.646L59.1 583.646ZM63.056 586.706L77.776 586.706L77.776 585.706L63.056 585.706L63.056 586.706ZM77.776 586.706C78.8311 586.706 79.8298 586.391 80.5767 585.863C81.3204 585.337 81.86 584.561 81.86 583.646L80.86 583.646C80.86 584.14 80.5675 584.644 79.9992 585.046C79.4342 585.446 78.6408 585.706 77.776 585.706L77.776 586.706ZM81.86 583.646L81.86 583.135L80.86 583.135L80.86 583.646L81.86 583.646ZM81.86 583.135C81.86 582.949 81.7828 582.766 81.7272 582.655C81.6637 582.528 81.571 582.382 81.4575 582.269L80.7504 582.976C80.7548 582.98 80.7674 582.995 80.7849 583.02C80.8016 583.045 80.8183 583.073 80.8328 583.102C80.8475 583.132 80.8568 583.155 80.8615 583.17C80.8638 583.177 80.8639 583.179 80.8632 583.175C80.8627 583.173 80.86 583.158 80.86 583.135L81.86 583.135ZM81.3276 582.175C80.9514 581.987 80.5794 581.995 80.336 581.995L80.336 582.995C80.6046 582.995 80.7445 583.002 80.8804 583.07L81.3276 582.175ZM80.336 581.995L60.496 581.995L60.496 582.995L80.336 582.995L80.336 581.995ZM60.496 581.995C60.3778 581.995 60.2383 581.993 60.0938 582.017C59.9369 582.043 59.7929 582.095 59.6324 582.175L60.0796 583.07C60.1751 583.022 60.2231 583.01 60.2582 583.004C60.3057 582.996 60.3581 582.995 60.496 582.995L60.496 581.995ZM59.5024 582.269C59.389 582.382 59.2963 582.528 59.2328 582.655C59.1771 582.766 59.1 582.949 59.1 583.135L60.1 583.135C60.1 583.158 60.0972 583.173 60.0967 583.175C60.0961 583.179 60.0962 583.177 60.0984 583.17C60.1031 583.155 60.1125 583.132 60.1272 583.102C60.1416 583.073 60.1584 583.045 60.1751 583.02C60.1926 582.995 60.2051 582.98 60.2095 582.976L59.5024 582.269ZM100.688 623.854L101.042 624.208H101.042L100.688 623.854ZM2.51197 623.854L2.15842 624.208L2.51197 623.854ZM2.51197 607.982L2.86553 608.336L2.51197 607.982ZM100.828 609.391L100.828 622.446L101.828 622.446L101.828 609.391L100.828 609.391ZM100.828 622.446C100.828 622.796 100.648 623.187 100.334 623.501L101.042 624.208C101.496 623.754 101.828 623.121 101.828 622.446L100.828 622.446ZM100.334 623.501C100.034 623.801 99.6455 623.995 99.152 623.995L99.152 624.995C99.9385 624.995 100.574 624.676 101.042 624.208L100.334 623.501ZM99.152 623.995L4.04797 623.995L4.04797 624.995L99.152 624.995L99.152 623.995ZM4.04797 623.995C3.66706 623.995 3.1547 623.79 2.86553 623.501L2.15842 624.208C2.63726 624.687 3.40488 624.995 4.04797 624.995L4.04797 623.995ZM2.86553 623.501C2.60836 623.244 2.49997 622.881 2.49997 622.446L1.49997 622.446C1.49997 623.036 1.64758 623.697 2.15842 624.208L2.86553 623.501ZM2.49997 622.446L2.49997 609.39L1.49997 609.39L1.49997 622.446L2.49997 622.446ZM2.49997 609.39C2.49997 608.956 2.60836 608.593 2.86553 608.336L2.15842 607.629C1.64758 608.14 1.49997 608.801 1.49997 609.39L2.49997 609.39ZM2.86553 608.336C3.1547 608.047 3.66706 607.843 4.04797 607.843L4.04797 606.843C3.40488 606.843 2.63726 607.15 2.15842 607.629L2.86553 608.336ZM4.04797 607.843L99.152 607.843L99.152 606.843L4.04797 606.843L4.04797 607.843ZM99.152 607.843C99.6455 607.843 100.034 608.036 100.334 608.336L101.042 607.629C100.574 607.161 99.9385 606.843 99.152 606.843L99.152 607.843ZM100.334 608.336C100.648 608.65 100.828 609.041 100.828 609.391L101.828 609.391C101.828 608.716 101.496 608.083 101.042 607.629L100.334 608.336ZM2.51197 627.857L2.86553 628.211L2.51197 627.857ZM99.536 644.37L99.474 643.873L99.4602 643.875L99.4465 643.878L99.536 644.37ZM65.872 650.641L65.7798 650.15L65.872 651.141L65.872 650.641ZM100.688 651.281L100.334 651.635L100.688 651.281ZM100.688 666.002L101.042 666.355H101.042L100.688 666.002ZM2.51197 666.002L2.15842 666.355L2.51197 666.002ZM3.66397 649.489L3.72598 649.986L3.74411 649.983L3.76203 649.98L3.66397 649.489ZM37.328 643.218L37.4178 643.709L37.328 642.718L37.328 643.218ZM2.51197 642.578L2.15842 642.931L2.51197 642.578ZM2.49997 641.169L2.49997 629.265L1.49997 629.265L1.49997 641.169L2.49997 641.169ZM2.49997 629.265C2.49997 628.831 2.60836 628.468 2.86553 628.211L2.15842 627.504C1.64758 628.015 1.49997 628.676 1.49997 629.265L2.49997 629.265ZM2.86553 628.211C3.1547 627.922 3.66706 627.718 4.04797 627.718L4.04797 626.718C3.40488 626.718 2.63726 627.025 2.15842 627.504L2.86553 628.211ZM4.04797 627.718L99.152 627.718L99.152 626.718L4.04797 626.718L4.04797 627.718ZM99.152 627.718C99.6455 627.718 100.034 627.911 100.334 628.211L101.042 627.504C100.574 627.036 99.9385 626.718 99.152 626.718L99.152 627.718ZM100.334 628.211C100.648 628.525 100.828 628.916 100.828 629.266L101.828 629.266C101.828 628.591 101.496 627.958 101.042 627.504L100.334 628.211ZM100.828 629.266L100.828 642.321L101.828 642.321L101.828 629.266L100.828 629.266ZM100.828 642.321C100.828 643.1 100.241 643.777 99.474 643.873L99.598 644.866C100.879 644.706 101.828 643.591 101.828 642.321L100.828 642.321ZM99.4465 643.878C95.9251 644.518 87.5076 646.086 79.9721 647.494C76.2041 648.198 72.656 648.862 70.0499 649.35C68.7469 649.594 67.6794 649.794 66.9376 649.933C66.5667 650.003 66.2773 650.057 66.0806 650.094C65.9822 650.112 65.907 650.126 65.8564 650.136C65.8311 650.14 65.812 650.144 65.7992 650.146C65.7927 650.148 65.7879 650.149 65.7847 650.149C65.7831 650.149 65.7819 650.15 65.781 650.15C65.7806 650.15 65.7803 650.15 65.7801 650.15C65.7799 650.15 65.7798 650.15 65.872 650.641C65.9641 651.133 65.9642 651.133 65.9644 651.133C65.9646 651.133 65.9649 651.133 65.9653 651.133C65.9661 651.133 65.9674 651.132 65.969 651.132C65.9722 651.131 65.977 651.13 65.9834 651.129C65.9963 651.127 66.0154 651.123 66.0407 651.119C66.0913 651.109 66.1665 651.095 66.2648 651.077C66.4615 651.04 66.751 650.985 67.1218 650.916C67.8636 650.777 68.931 650.577 70.234 650.333C72.84 649.845 76.3879 649.181 80.1558 648.477C87.6923 647.069 96.1069 645.501 99.6254 644.861L99.4465 643.878ZM65.872 651.141L99.152 651.141L99.152 650.141L65.872 650.141L65.872 651.141ZM99.152 651.141C99.6455 651.141 100.034 651.335 100.334 651.635L101.042 650.928C100.574 650.46 99.9385 650.141 99.152 650.141L99.152 651.141ZM100.334 651.635C100.648 651.949 100.828 652.34 100.828 652.69L101.828 652.69C101.828 652.015 101.496 651.382 101.042 650.928L100.334 651.635ZM100.828 652.69L100.828 664.466L101.828 664.466L101.828 652.69L100.828 652.69ZM100.828 664.466C100.828 664.959 100.635 665.347 100.334 665.648L101.042 666.355C101.509 665.888 101.828 665.252 101.828 664.466L100.828 664.466ZM100.334 665.648C100.034 665.948 99.6455 666.141 99.152 666.141L99.152 667.141C99.9385 667.141 100.574 666.823 101.042 666.355L100.334 665.648ZM99.152 666.141L4.04797 666.141L4.04797 667.141L99.152 667.141L99.152 666.141ZM4.04797 666.141C3.66706 666.141 3.15469 665.937 2.86553 665.648L2.15842 666.355C2.63725 666.834 3.40488 667.141 4.04797 667.141L4.04797 666.141ZM2.86553 665.648C2.61609 665.398 2.49997 665.045 2.49997 664.466L1.49997 664.466C1.49997 665.166 1.63985 665.836 2.15842 666.355L2.86553 665.648ZM2.49997 664.466L2.49997 651.537L1.49997 651.537L1.49997 664.466L2.49997 664.466ZM2.49997 651.537C2.49997 650.711 3.00264 650.076 3.72598 649.986L3.60195 648.993C2.27731 649.159 1.49997 650.316 1.49997 651.537L2.49997 651.537ZM3.76203 649.98C7.27756 649.277 15.6893 647.709 23.2268 646.317C26.9945 645.621 30.5423 644.969 33.1482 644.491C34.4511 644.252 35.5185 644.057 36.2602 643.921C36.6311 643.853 36.9205 643.8 37.1172 643.764C37.2155 643.746 37.2907 643.733 37.3413 643.723C37.3666 643.719 37.3857 643.715 37.3985 643.713C37.4049 643.712 37.4098 643.711 37.413 643.71C37.4146 643.71 37.4158 643.71 37.4166 643.71C37.417 643.71 37.4173 643.709 37.4175 643.709C37.4177 643.709 37.4178 643.709 37.328 643.218C37.2381 642.726 37.238 642.726 37.2378 642.726C37.2376 642.726 37.2373 642.726 37.2369 642.726C37.2361 642.726 37.2349 642.726 37.2333 642.726C37.23 642.727 37.2252 642.728 37.2188 642.729C37.2059 642.732 37.1868 642.735 37.1615 642.74C37.1109 642.749 37.0357 642.763 36.9373 642.781C36.7406 642.817 36.4511 642.87 36.0802 642.937C35.3384 643.073 34.2708 643.269 32.9678 643.508C30.3616 643.986 26.8134 644.638 23.0452 645.334C15.5107 646.726 7.09039 648.294 3.56591 648.999L3.76203 649.98ZM37.328 642.718L4.04797 642.718L4.04797 643.718L37.328 643.718L37.328 642.718ZM4.04797 642.718C3.66706 642.718 3.1547 642.513 2.86553 642.224L2.15842 642.931C2.63726 643.41 3.40488 643.718 4.04797 643.718L4.04797 642.718ZM2.86553 642.224C2.60836 641.967 2.49997 641.604 2.49997 641.169L1.49997 641.169C1.49997 641.759 1.64758 642.42 2.15842 642.931L2.86553 642.224ZM41.424 688.927L41.1466 688.51L41.0634 688.566L41.008 688.649L41.424 688.927ZM8.14397 702.622L7.86662 703.039L7.86938 703.04L8.14397 702.622ZM8.14397 673.95L8.41382 674.371L8.41856 674.368L8.14397 673.95ZM95.056 673.95L94.7814 674.368L94.7861 674.371L95.056 673.95ZM95.056 702.622L95.3306 703.04L95.3333 703.039L95.056 702.622ZM65.232 706.463L65.632 706.162L65.6107 706.134L65.5855 706.109L65.232 706.463ZM81.488 689.95L81.3299 689.476L81.488 689.95ZM81.488 687.135L81.2849 687.591L81.307 687.601L81.3299 687.609L81.488 687.135ZM21.712 687.135L21.8701 687.609L21.893 687.601L21.915 687.591L21.712 687.135ZM21.712 689.95L21.8701 689.476L21.712 689.95ZM26.192 691.091L40.528 691.091L40.528 690.091L26.192 690.091L26.192 691.091ZM40.528 691.091C40.8418 691.091 41.071 690.928 41.2064 690.759C41.3291 690.605 41.412 690.402 41.412 690.206L40.412 690.206C40.412 690.182 40.4148 690.166 40.4164 690.158C40.4182 690.15 40.42 690.145 40.4207 690.143C40.4219 690.139 40.4229 690.137 40.4255 690.134C40.4285 690.13 40.4382 690.12 40.4578 690.109C40.4798 690.097 40.5053 690.091 40.528 690.091L40.528 691.091ZM41.412 690.206C41.412 689.867 41.5732 689.604 41.84 689.204L41.008 688.649C40.7627 689.017 40.412 689.522 40.412 690.206L41.412 690.206ZM41.7013 689.343C41.8742 689.227 42.0712 689.115 42.2609 689.034C42.4587 688.949 42.6102 688.914 42.704 688.914L42.704 687.914C42.4138 687.914 42.1172 688.008 41.867 688.115C41.6088 688.226 41.3578 688.37 41.1466 688.51L41.7013 689.343ZM42.704 688.914L58.832 688.914L58.832 687.914L42.704 687.914L42.704 688.914ZM58.832 688.914C59.6694 688.914 60.38 689.675 60.38 690.591L61.38 690.591C61.38 689.202 60.2985 687.914 58.832 687.914L58.832 688.914ZM60.38 690.591L60.38 705.055L61.38 705.055L61.38 690.591L60.38 690.591ZM60.38 705.055C60.38 705.93 59.7078 706.602 58.832 706.602L58.832 707.602C60.2601 707.602 61.38 706.483 61.38 705.055L60.38 705.055ZM58.832 706.602L27.216 706.602L27.216 707.602L58.832 707.602L58.832 706.602ZM27.216 706.602C18.9496 706.602 12.7867 705.075 8.41856 702.205L7.86938 703.04C12.4612 706.058 18.8423 707.602 27.216 707.602L27.216 706.602ZM8.42132 702.206C3.57085 698.973 1.09197 694.394 1.09197 688.286L0.0919727 688.286C0.0919725 694.723 2.73309 699.616 7.86662 703.039L8.42132 702.206ZM1.09197 688.286C1.09197 682.173 3.57508 677.473 8.4138 674.371L7.87414 673.53C2.72886 676.828 0.091973 681.856 0.0919727 688.286L1.09197 688.286ZM8.41856 674.368C12.7913 671.495 18.9574 669.843 27.216 669.843L27.216 668.843C18.8345 668.843 12.4566 670.518 7.86938 673.533L8.41856 674.368ZM27.216 669.843L75.984 669.843L75.984 668.843L27.216 668.843L27.216 669.843ZM75.984 669.843C84.2425 669.843 90.4086 671.495 94.7814 674.368L95.3306 673.533C90.7433 670.518 84.3654 668.843 75.984 668.843L75.984 669.843ZM94.7861 674.371C99.6249 677.473 102.108 682.173 102.108 688.286L103.108 688.286C103.108 681.856 100.471 676.828 95.3258 673.53L94.7861 674.371ZM102.108 688.286C102.108 694.394 99.6291 698.973 94.7786 702.206L95.3333 703.039C100.467 699.616 103.108 694.723 103.108 688.286L102.108 688.286ZM94.7814 702.205C90.4132 705.075 84.2503 706.602 75.984 706.602L75.984 707.602C84.3576 707.602 90.7387 706.058 95.3306 703.04L94.7814 702.205ZM75.984 706.602L66.768 706.602L66.768 707.602L75.984 707.602L75.984 706.602ZM66.768 706.602C66.3094 706.602 65.873 706.484 65.632 706.162L64.832 706.763C65.359 707.465 66.2026 707.602 66.768 707.602L66.768 706.602ZM65.5855 706.109C65.3284 705.852 65.22 705.489 65.22 705.055L64.22 705.055C64.22 705.644 64.3676 706.305 64.8784 706.816L65.5855 706.109ZM65.22 705.055L65.22 692.638L64.22 692.638L64.22 705.055L65.22 705.055ZM65.22 692.638C65.22 691.763 65.8921 691.091 66.768 691.091L66.768 690.091C65.3398 690.091 64.22 691.21 64.22 692.638L65.22 692.638ZM66.768 691.091L76.88 691.091L76.88 690.091L66.768 690.091L66.768 691.091ZM76.88 691.091C78.8423 691.091 80.4333 690.829 81.6461 690.425L81.3299 689.476C80.2386 689.84 78.7576 690.091 76.88 690.091L76.88 691.091ZM81.6461 690.425C82.1003 690.273 82.4776 690.034 82.7424 689.703C83.0103 689.368 83.14 688.968 83.14 688.542L82.14 688.542C82.14 688.757 82.0777 688.933 81.9615 689.078C81.8423 689.227 81.6436 689.372 81.3299 689.476L81.6461 690.425ZM83.14 688.542C83.14 688.07 83.0191 687.656 82.7316 687.321C82.4552 686.999 82.0693 686.801 81.6461 686.66L81.3299 687.609C81.6746 687.724 81.8648 687.846 81.9723 687.972C82.0689 688.085 82.14 688.247 82.14 688.542L83.14 688.542ZM81.691 686.678C80.4329 686.118 78.8007 685.995 76.88 685.995L76.88 686.995C78.7992 686.995 80.239 687.127 81.2849 687.591L81.691 686.678ZM76.88 685.995L26.192 685.995L26.192 686.995L76.88 686.995L76.88 685.995ZM26.192 685.995C24.2662 685.995 22.765 686.119 21.5089 686.678L21.915 687.591C22.963 687.126 24.2777 686.995 26.192 686.995L26.192 685.995ZM21.5539 686.66C21.1306 686.801 20.7447 686.999 20.4683 687.321C20.1809 687.656 20.06 688.07 20.06 688.542L21.06 688.542C21.06 688.247 21.1311 688.085 21.2276 687.972C21.3352 687.846 21.5253 687.724 21.8701 687.609L21.5539 686.66ZM20.06 688.542C20.06 688.968 20.1897 689.368 20.4575 689.703C20.7223 690.034 21.0996 690.273 21.5539 690.425L21.8701 689.476C21.5563 689.372 21.3576 689.227 21.2384 689.078C21.1223 688.933 21.06 688.757 21.06 688.542L20.06 688.542ZM21.5539 690.425C22.763 690.828 24.2251 691.091 26.192 691.091L26.192 690.091C24.3188 690.091 22.965 689.841 21.8701 689.476L21.5539 690.425Z" fill="black"/>
</svg>
